<svg width="146" height="72" viewBox="0 0 146 72" fill="none" xmlns="http://www.w3.org/2000/svg">
<path d="M15.2128 30.5204H0V45.7065H15.2128V30.5204Z" fill="#CA1E52"/>
<path d="M15.2129 0V30.5204H30.4257V45.7065H61V0H15.2129ZM45.7118 30.4452H30.499V15.2613H45.7118V30.4452Z" fill="#4F67B0"/>
<path d="M15.2128 30.5204H0V45.7065H15.2128V30.5204Z" fill="#CA1551"/>
<path d="M15.2129 0V30.5204H30.4257V45.7065H61V0H15.2129ZM45.7118 30.4452H30.499V15.2613H45.7118V30.4452Z" fill="#4166F5"/>
<path d="M60.6402 56.4676C60.6827 56.7024 60.7006 56.9283 60.7006 57.1431C60.7006 57.8096 60.5105 58.4045 60.1279 58.9346C59.5194 59.7755 58.5216 60.196 57.1436 60.196H50.3807V57.7894H57.0921C57.5328 57.7894 57.8416 57.729 58.025 57.615C58.2084 57.4987 58.3024 57.3242 58.3024 57.0804C58.3024 57.0089 58.2912 56.9283 58.2733 56.8389C58.2219 56.5906 58.1771 56.3356 58.1279 56.0762C58.11 55.98 58.0921 55.8749 58.0675 55.7608L58.0384 55.6199L58.0161 55.4813C57.9534 55.0787 57.8863 54.7946 57.846 54.6224L60.1436 53.9268C60.289 54.6157 60.459 55.4656 60.6402 56.4698M55.9556 60.1937H50.0988C49.5596 60.1937 49.0719 60.0953 48.6424 59.9097C48.3158 59.7666 48.0272 59.572 47.7833 59.3282C47.5395 59.0822 47.3471 58.7981 47.2017 58.4716C47.0115 58.0399 46.9153 57.5546 46.9153 57.0111V49.6192H49.3158V57.0111C49.3158 57.3086 49.3695 57.5166 49.4836 57.6262C49.591 57.7313 49.799 57.7872 50.0988 57.7872H55.9556V60.1937ZM42.3448 53.1754C43.4254 53.1754 44.2844 53.5712 44.9265 54.3563C45.5149 55.0765 45.8146 55.9688 45.8146 57.0402V59.7308C45.8146 61.4328 45.1122 62.6473 43.7117 63.3764C43.1681 63.6582 42.5238 63.8617 41.7766 63.9915C41.1927 64.0921 40.5573 64.1436 39.8705 64.1436V61.737C41.092 61.737 42.0093 61.5648 42.6267 61.2248C43.1211 60.952 43.3739 60.6053 43.3739 60.1915H42.3471C41.4723 60.1915 40.7318 59.9544 40.1256 59.487C39.3873 58.9167 39.0182 58.1048 39.0182 57.0379C39.0182 56.027 39.262 55.1704 39.752 54.4659C40.3493 53.6048 41.2151 53.1754 42.3471 53.1754H42.3448ZM43.4097 57.7961V57.0402C43.4097 56.5906 43.3135 56.2328 43.1211 55.9711C42.9332 55.7116 42.6714 55.5819 42.3448 55.5819C42.0182 55.5819 41.7497 55.7139 41.5529 55.9711C41.3717 56.2104 41.2822 56.5213 41.2822 56.9015C41.2822 56.9462 41.2867 56.9932 41.2911 57.0402C41.3068 57.3019 41.4209 57.4964 41.6356 57.6262C41.8213 57.7402 42.0585 57.7961 42.3448 57.7961H43.4097ZM37.696 60.1937H35.2911V49.6192H37.696V60.1937ZM34.5573 50.4557L29.7541 52.6408C30.1747 53.0546 30.7676 53.6629 31.5215 54.4659C32.1747 55.1614 32.6311 55.8145 32.8929 56.4139C33.0763 56.8344 33.1636 57.2392 33.1636 57.6239V57.6821C33.1636 57.9974 33.0987 58.2859 32.9823 58.5566C32.8727 58.8093 32.7206 59.0397 32.5193 59.2454C32.2597 59.5094 31.9331 59.7218 31.5372 59.8784C30.9891 60.0909 30.3201 60.1937 29.5327 60.1937H22.4297V57.7872H29.5327C30.2911 57.7872 30.743 57.7469 30.8906 57.6642C30.8794 57.6217 30.8593 57.5546 30.819 57.4741C30.772 57.3801 30.7027 57.275 30.6199 57.152C30.4096 56.8366 30.1255 56.4877 29.7698 56.112C28.9175 55.2062 28.1814 54.4524 27.555 53.8463C27.4499 53.7434 27.3425 53.6517 27.2463 53.5623C27.1702 53.4907 27.1031 53.4236 27.0338 53.3632C27.0092 53.3409 26.9823 53.3207 26.9599 53.2984L26.9085 53.2447L26.8727 53.2134L27.1434 51.2004L33.564 48.2661L34.5573 50.4579V50.4557ZM18.6042 53.1754C19.6825 53.1754 20.5438 53.569 21.1859 54.3563C21.7765 55.0742 22.074 55.9688 22.074 57.0402V57.7961H26.0159V60.1937H22.0494C21.9286 61.7124 21.1859 62.8016 19.819 63.4569C19.2865 63.7097 18.6624 63.8931 17.9509 64.0049C17.3894 64.0988 16.7787 64.1458 16.1254 64.1458V61.7392C17.3469 61.7392 18.2664 61.5693 18.8816 61.2271C19.3827 60.9564 19.6288 60.6075 19.6288 60.1937H18.6042C17.7317 60.1937 16.9934 59.9589 16.3805 59.4892C15.6489 58.9211 15.2798 58.107 15.2798 57.0402C15.2798 56.0292 15.5236 55.1726 16.0136 54.4681C16.6042 53.607 17.4677 53.1776 18.6042 53.1776V53.1754ZM19.6668 57.7961V57.0402C19.6668 56.5906 19.5729 56.235 19.3827 55.9711C19.1926 55.7139 18.9308 55.5819 18.6064 55.5819C18.282 55.5819 18.0091 55.7139 17.8122 55.9711C17.6333 56.2104 17.5415 56.5213 17.5415 56.9015C17.5415 56.9462 17.5438 56.9932 17.5505 57.0402C17.5639 57.3019 17.6825 57.4942 17.9017 57.6262C18.0874 57.7402 18.3223 57.7961 18.6064 57.7961H19.6691H19.6668Z" fill="#4166F5"/>
<path d="M55.0555 52.3112H52.3281V55.0337H55.0555V52.3112Z" fill="#CA1551"/>
<path d="M58.3647 67.794L57.9231 67.3468L58.3605 66.8934L58.8148 67.3468L58.3668 67.794H58.3647ZM59.4385 67.7981L58.9969 67.351L59.4322 66.8976L59.8864 67.351L59.4385 67.7981ZM59.3004 66.5361L58.9027 66.9248L58.5112 66.5361L58.9152 66.137L59.3004 66.5361ZM52.6191 69.921H56.6128C56.64 69.921 56.6798 69.9168 56.7321 69.9085C56.7844 69.9001 56.8367 69.8792 56.887 69.8458C56.9372 69.8103 56.9812 69.758 57.0209 69.6912C57.0586 69.6222 57.0775 69.5282 57.0775 69.4091V68.5629H57.607V69.3986C57.607 69.5783 57.6489 69.7121 57.7347 69.7956C57.8205 69.8792 57.9587 69.921 58.1533 69.921C58.1805 69.921 58.2203 69.9168 58.2726 69.9064C58.325 69.8959 58.3752 69.873 58.4275 69.8374C58.4778 69.8019 58.5238 69.7497 58.5615 69.6807C58.5992 69.6118 58.618 69.5177 58.618 69.3986V68.5629H59.1434V69.3986C59.1434 69.5783 59.1873 69.7121 59.2752 69.7977C59.3632 69.8834 59.5034 69.9252 59.698 69.9252C59.7273 69.9252 59.7671 69.9189 59.8174 69.9085C59.8697 69.8959 59.9178 69.8709 59.9681 69.8333C60.0183 69.7956 60.0602 69.7434 60.0957 69.6745C60.1313 69.6055 60.1502 69.5136 60.1502 69.3986C60.1502 69.3569 60.1481 69.3067 60.1418 69.2461C60.1355 69.1855 60.1271 69.1187 60.1167 69.0476C60.1062 68.9766 60.0957 68.9055 60.0811 68.8324C60.0685 68.7593 60.056 68.6903 60.0413 68.6256C60.0288 68.5608 60.0162 68.5044 60.0036 68.4521C59.9932 68.3999 59.9827 68.3623 59.9764 68.3393L60.4767 68.1805C60.4809 68.191 60.4872 68.2223 60.4997 68.2683C60.5102 68.3163 60.5248 68.3748 60.5395 68.4438C60.5541 68.5127 60.5709 68.5921 60.5855 68.6757C60.6023 68.7614 60.6169 68.847 60.6316 68.9348C60.6462 69.0205 60.6567 69.104 60.6672 69.1855C60.6755 69.267 60.6818 69.3381 60.6818 69.3986C60.6818 69.5763 60.6525 69.7288 60.5939 69.8604C60.5374 69.992 60.462 70.1007 60.3699 70.1864C60.2778 70.2741 60.1711 70.3368 60.056 70.3828C59.9388 70.4267 59.8215 70.4496 59.7022 70.4517C59.5243 70.4517 59.3652 70.4246 59.2292 70.3723C59.091 70.318 58.9759 70.2428 58.8796 70.1425C58.7834 70.2449 58.6703 70.3222 58.5426 70.3723C58.415 70.4225 58.2873 70.4475 58.1575 70.4475C57.9817 70.4475 57.8268 70.4225 57.6907 70.3702C57.5547 70.318 57.4396 70.2449 57.3475 70.1488C57.2491 70.2532 57.1361 70.3305 57.0084 70.3786C56.8786 70.4287 56.7488 70.4517 56.6191 70.4517H51.4281C51.4093 70.4517 51.3988 70.4434 51.3988 70.4246V69.9461C51.3988 69.9315 51.4093 69.9252 51.4281 69.9252H52.6254L52.6191 69.921ZM52.2067 70.4475H52.0853C51.9074 70.4475 51.7421 70.412 51.5914 70.341C51.5914 70.6022 51.5537 70.8341 51.4825 71.0389C51.4093 71.2436 51.3046 71.417 51.1644 71.5591C51.0241 71.7012 50.8525 71.8099 50.6495 71.8851C50.4443 71.9582 50.212 71.9958 49.9462 71.9958H49.561V71.4672H49.9462C50.1387 71.4672 50.3062 71.4442 50.4464 71.3982C50.5867 71.3523 50.7039 71.2833 50.796 71.1872C50.8881 71.0932 50.9571 70.972 51.0011 70.8257C51.0451 70.6774 51.066 70.504 51.066 70.3013V68.5587H51.5956V69.4843C51.5956 69.5888 51.6165 69.6703 51.6604 69.7288C51.7044 69.7873 51.7546 69.8291 51.8132 69.8583C51.8718 69.8855 51.9263 69.9043 51.9807 69.9085C52.033 69.9147 52.0707 69.9189 52.0895 69.9189H52.2109V70.4455L52.2067 70.4475ZM46.2371 70.4475V69.921H47.8761C48.01 69.921 48.1231 69.9064 48.211 69.875C48.301 69.8437 48.3575 69.8019 48.3826 69.7476C48.3952 69.7204 48.4014 69.6891 48.4014 69.6536C48.4014 69.6222 48.3931 69.5763 48.3742 69.5177C48.3575 69.4592 48.3198 69.3819 48.2612 69.2858C48.2026 69.1897 48.1314 69.0894 48.0477 68.9829C47.964 68.8784 47.874 68.7718 47.7756 68.6653C47.6772 68.5587 47.5788 68.4563 47.4763 68.3539C47.3737 68.2515 47.2753 68.1575 47.1791 68.0719C47.0828 67.9841 46.997 67.9089 46.9195 67.842C46.8421 67.7772 46.7772 67.725 46.7269 67.6895L46.7814 67.0961L49.3413 65.972L49.5548 66.4525L47.313 67.4304C47.3695 67.4847 47.4407 67.5558 47.5286 67.6414C47.6165 67.725 47.7107 67.819 47.8133 67.9235C47.9158 68.028 48.0205 68.1366 48.1272 68.2536C48.234 68.3706 48.3345 68.4877 48.4286 68.6047C48.5249 68.7217 48.6087 68.8366 48.6819 68.9494C48.7552 69.0623 48.8096 69.1646 48.8452 69.2607C48.8766 69.3422 48.8996 69.4195 48.9122 69.4906C48.9205 69.5512 48.9268 69.6076 48.9268 69.6577C48.9268 69.6682 48.9268 69.6891 48.9268 69.7225C48.9268 69.7559 48.9184 69.7956 48.9059 69.8416C48.8954 69.8897 48.8808 69.9294 48.8661 69.9628C48.8452 70.0088 48.8138 70.061 48.7698 70.1174C48.7259 70.1738 48.6673 70.2261 48.5898 70.2762C48.5124 70.3264 48.4161 70.3661 48.301 70.3995C48.1859 70.4329 48.0435 70.4496 47.8761 70.4496H46.2371V70.4475ZM42.5616 68.3038L42.12 67.8566L42.5574 67.4032L43.0116 67.8566L42.5637 68.3038H42.5616ZM43.6333 68.308L43.1917 67.8608L43.627 67.4074L44.0812 67.8608L43.6333 68.308ZM46.3858 69.921V70.4455H46.302C46.166 70.4455 46.0362 70.4267 45.9148 70.387C45.7934 70.3473 45.6867 70.2888 45.5904 70.2114C45.5799 70.2031 45.5673 70.1926 45.5569 70.1822C45.5464 70.1717 45.5339 70.1613 45.5234 70.1488C45.3266 70.3452 45.0399 70.4434 44.6652 70.4455H41.4899C41.3581 70.4455 41.2325 70.4225 41.1174 70.3786C41.0001 70.3326 40.8976 70.2699 40.8076 70.1864C40.7699 70.1529 40.7322 70.1111 40.6966 70.0631C40.659 70.0129 40.6255 69.9565 40.5941 69.8918C40.5627 69.827 40.5376 69.7518 40.5187 69.6703C40.4999 69.5888 40.4894 69.4948 40.4894 69.3903C40.4894 69.2963 40.4999 69.1939 40.5187 69.0831C40.5376 68.9724 40.5606 68.8658 40.5836 68.7656C40.6066 68.6653 40.6297 68.5796 40.6506 68.5065C40.6715 68.4333 40.6862 68.3895 40.6925 68.3727L41.1969 68.5315C41.1843 68.5712 41.1676 68.6276 41.1488 68.6987C41.1299 68.7697 41.109 68.847 41.0901 68.9285C41.0692 69.01 41.0525 69.0915 41.0378 69.1751C41.0253 69.2587 41.0169 69.3297 41.0169 69.3903C41.0169 69.5136 41.0357 69.6097 41.0755 69.6807C41.1153 69.7518 41.1613 69.804 41.2136 69.8395C41.2681 69.875 41.3204 69.898 41.3748 69.9064C41.4292 69.9147 41.4711 69.921 41.4983 69.921H44.6485C44.7845 69.921 44.8934 69.9064 44.975 69.8792C45.0566 69.85 45.1173 69.8165 45.1592 69.7727C45.201 69.7288 45.2283 69.6828 45.2408 69.6306C45.2534 69.5783 45.2597 69.5303 45.2597 69.4843V68.5148H45.7871V69.4697C45.7871 69.5763 45.8102 69.6598 45.8562 69.7204C45.9023 69.781 45.9546 69.8249 46.0153 69.8562C46.0739 69.8855 46.1325 69.9043 46.189 69.9106C46.2455 69.9168 46.2853 69.921 46.3062 69.921H46.3899H46.3858ZM36.9102 66.2937L37.3853 65.8132L37.8709 66.3L37.3895 66.7806L36.9081 66.2937H36.9102ZM37.3372 67.9381C37.2765 67.9381 37.2137 67.9486 37.1488 67.9716C37.0839 67.9925 37.0274 68.0238 36.9751 68.0677C36.9227 68.1116 36.8809 68.168 36.8495 68.2369C36.816 68.3059 36.8013 68.3874 36.8013 68.4835C36.8013 68.5441 36.8076 68.5963 36.8202 68.6381C36.8327 68.6799 36.8495 68.7154 36.8704 68.7426C36.8913 68.7697 36.9123 68.7927 36.9353 68.8073C36.9583 68.8241 36.9793 68.8387 37.0002 68.8491C37.0546 68.8805 37.1195 68.9035 37.199 68.9181C37.2765 68.9327 37.3686 68.939 37.4753 68.939H37.9065C37.9023 68.7551 37.8835 68.5921 37.85 68.4563C37.8144 68.3184 37.7684 68.2056 37.7077 68.1178C37.6176 67.9987 37.4963 67.9381 37.3393 67.9381H37.3372ZM35.6648 70.4475V69.921H36.906C37.1153 69.921 37.2828 69.9064 37.4104 69.875C37.5381 69.8458 37.6386 69.8082 37.7098 69.7643C37.7809 69.7183 37.8291 69.6703 37.8542 69.618C37.8793 69.5637 37.896 69.5136 37.9002 69.4655H37.4753C37.4251 69.4655 37.3728 69.4634 37.3121 69.4613C37.2534 69.4572 37.1907 69.4509 37.1258 69.4404C37.0609 69.43 36.996 69.4154 36.9311 69.3945C36.8662 69.3736 36.8034 69.3485 36.7406 69.313C36.6904 69.2837 36.6381 69.2461 36.5857 69.2022C36.5334 69.1584 36.4853 69.1019 36.4434 69.0372C36.4015 68.9703 36.3681 68.893 36.3408 68.8032C36.3136 68.7112 36.3011 68.6068 36.3011 68.4856C36.3011 68.3351 36.3262 68.191 36.3785 68.0572C36.4309 67.9235 36.5062 67.8065 36.6025 67.7104C36.7009 67.6122 36.8118 67.5391 36.9353 67.4889C37.0609 67.4388 37.1948 67.4137 37.3351 67.4137C37.4963 67.4137 37.647 67.4471 37.783 67.5182C37.9191 67.5871 38.0342 67.6853 38.1284 67.8149C38.2288 67.9486 38.3042 68.1136 38.3523 68.3121C38.4005 68.5106 38.4256 68.7363 38.4256 68.9912V69.3757C38.4256 69.5595 38.3879 69.7246 38.3147 69.8667C38.2414 70.0109 38.1305 70.1279 37.9798 70.2156C37.7307 70.3744 37.3728 70.4538 36.906 70.4538H35.6648V70.4475ZM34.12 67.2695L34.5952 66.7889L35.0808 67.2758L34.5994 67.7564L34.1179 67.2695H34.12ZM35.7841 69.921V70.4475H35.5664C35.3968 70.4475 35.2482 70.4225 35.1164 70.3744C34.9866 70.3264 34.8819 70.2532 34.8045 70.1571C34.6098 70.3514 34.3231 70.4475 33.9421 70.4475H33.4042V69.921H33.9421C34.0761 69.921 34.1828 69.9064 34.2603 69.8792C34.3377 69.8521 34.3984 69.8186 34.4382 69.7789C34.478 69.7392 34.5052 69.6933 34.5177 69.6452C34.5282 69.5951 34.5345 69.5491 34.5345 69.5031V68.5587H35.0598V69.4843C35.0598 69.5533 35.0703 69.6118 35.0912 69.6598C35.1122 69.7079 35.1394 69.7497 35.1708 69.781C35.2043 69.8124 35.2399 69.8374 35.2796 69.8583C35.3194 69.8771 35.3592 69.8897 35.3948 69.9001C35.4324 69.9106 35.4659 69.9147 35.4952 69.9168C35.5266 69.9168 35.5475 69.9189 35.5622 69.9189H35.7799L35.7841 69.921ZM33.5172 70.4475C33.3205 70.4475 33.1593 70.4329 33.0316 70.4058C32.9039 70.3807 32.7951 70.3452 32.7072 70.2971C32.6193 70.249 32.5481 70.1906 32.4937 70.1195C32.4414 70.0485 32.3974 69.9628 32.3681 69.8667C32.3388 69.7706 32.3179 69.664 32.3095 69.5449C32.3011 69.4258 32.2948 69.2942 32.2948 69.1479V66.4609H32.8244V69.1479C32.8244 69.3088 32.8286 69.4404 32.839 69.5407C32.8495 69.6431 32.8767 69.7183 32.9207 69.7747C32.9646 69.8291 33.0295 69.8667 33.1195 69.8855C33.2074 69.9043 33.3393 69.9168 33.5151 69.9189V70.4455L33.5172 70.4475ZM30.1871 68.5712C30.0029 68.5712 29.8584 68.636 29.7559 68.7676C29.6533 68.8972 29.601 69.0811 29.601 69.3172C29.601 69.5533 29.6742 69.7246 29.8187 69.8186C29.8542 69.8395 29.8898 69.8583 29.9275 69.873C29.9652 69.8855 30.0008 69.8959 30.0363 69.9043C30.0719 69.9106 30.1033 69.9147 30.1326 69.9168C30.1619 69.9189 30.185 69.921 30.2038 69.921H30.7187V69.3924C30.7187 69.2566 30.7082 69.1417 30.6873 69.0476C30.6664 68.9536 30.6413 68.8763 30.6099 68.8157C30.5785 68.7551 30.5429 68.707 30.501 68.6736C30.4613 68.6402 30.4215 68.6172 30.3817 68.6026C30.3419 68.5879 30.3043 68.5796 30.2708 68.5754C30.2352 68.5754 30.2059 68.5712 30.1829 68.5712H30.1871ZM29.2724 71.463C29.5549 71.463 29.7915 71.4421 29.984 71.3982C30.1766 71.3544 30.3294 71.2896 30.4403 71.1997C30.5366 71.1203 30.6078 71.0221 30.6538 70.901C30.6999 70.7798 30.7229 70.6293 30.7229 70.4475H30.208C30.0782 70.4475 29.9443 70.4287 29.8103 70.389C29.6763 70.3493 29.5528 70.2846 29.444 70.1968C29.3352 70.107 29.2451 69.99 29.1782 69.8458C29.1091 69.7016 29.0735 69.5261 29.0735 69.3172C29.0735 69.1939 29.084 69.0831 29.1049 68.9849C29.1258 68.8846 29.153 68.7948 29.1865 68.7175C29.22 68.6402 29.2556 68.5712 29.2933 68.5127C29.3331 68.4563 29.3707 68.4062 29.4084 68.3644C29.511 68.262 29.6282 68.1826 29.7621 68.1283C29.894 68.0719 30.0363 68.0447 30.1871 68.0447C30.3189 68.0447 30.4424 68.0656 30.5596 68.1053C30.6747 68.1471 30.7794 68.2077 30.8694 68.2892C31.1206 68.5232 31.2462 68.8909 31.2462 69.3924V70.4475C31.2462 70.7108 31.2064 70.9386 31.1311 71.1308C31.0536 71.3209 30.9322 71.4818 30.771 71.6093C30.6078 71.7367 30.4047 71.8328 30.1598 71.8955C29.917 71.9582 29.6198 71.9896 29.2724 71.9896V71.463ZM26.4236 71.9979V71.4693H26.8087C27.0013 71.4693 27.1667 71.4463 27.309 71.4003C27.4492 71.3544 27.5665 71.2854 27.6586 71.1893C27.7507 71.0953 27.8176 70.9741 27.8637 70.8278C27.9097 70.6816 27.9286 70.5061 27.9286 70.3034V68.5608H28.4581V70.3034C28.4581 70.5687 28.4225 70.8069 28.3535 71.018C28.2844 71.2269 28.1797 71.4045 28.0416 71.5508C27.9035 71.6949 27.7318 71.8078 27.5246 71.883C27.3195 71.9603 27.0809 72 26.8087 72H26.4236V71.9979ZM24.3598 71.4567C24.5461 71.4567 24.7072 71.44 24.8454 71.4066C24.9814 71.3732 25.0966 71.323 25.1845 71.2499C25.2745 71.1789 25.3415 71.0869 25.3833 70.9741C25.4273 70.8613 25.4461 70.7234 25.4461 70.5604C25.2682 70.5123 25.0924 70.4664 24.9207 70.4204C24.8475 70.4016 24.77 70.3828 24.6905 70.3619C24.611 70.341 24.5314 70.318 24.4519 70.2971C24.3723 70.2762 24.2949 70.2553 24.2195 70.2365C24.1442 70.2177 24.073 70.201 24.0102 70.1843C23.9286 69.9837 23.8867 69.7873 23.8867 69.5951C23.8867 69.5846 23.8867 69.524 23.8909 69.4175C23.893 69.3088 23.9349 69.1667 24.0102 68.9891C24.0877 68.8136 24.1944 68.6548 24.3347 68.5127C24.4749 68.3727 24.6361 68.2599 24.8182 68.1763C25.0003 68.0927 25.1991 68.0405 25.4168 68.0238C25.4608 68.0196 25.5047 68.0175 25.5487 68.0175C25.7245 68.0175 25.9045 68.0447 26.0887 68.099L25.9568 68.6047C25.8292 68.565 25.7015 68.5462 25.5696 68.5482C25.4398 68.5482 25.3143 68.5671 25.1929 68.6047C25.0735 68.6402 24.9605 68.6924 24.858 68.7614C24.7554 68.8303 24.6675 68.9118 24.5963 69.0079C24.5251 69.104 24.4728 69.2127 24.4414 69.3297C24.4184 69.407 24.4079 69.4885 24.4079 69.5721C24.4079 69.6222 24.4121 69.6703 24.4184 69.7183L25.4901 69.9837C25.6387 70.0255 25.7517 70.0923 25.825 70.1864C25.9003 70.2804 25.9359 70.3911 25.9359 70.5269C25.9359 70.7714 25.9066 70.9845 25.8501 71.1684C25.7915 71.3523 25.6994 71.5048 25.5738 71.626C25.4461 71.7472 25.2829 71.837 25.0819 71.8997C24.8831 71.9603 24.6382 71.9916 24.3535 71.9916H23.7339C23.5916 71.9916 23.4556 71.9749 23.3216 71.9394C23.1897 71.9039 23.0641 71.8537 22.9469 71.7911C22.8297 71.7284 22.7209 71.6511 22.6225 71.5612C22.5241 71.4714 22.4362 71.3732 22.3629 71.2645C22.275 71.1224 22.2081 70.9678 22.1641 70.7986C22.118 70.6293 22.0971 70.4496 22.0971 70.2616C22.0971 70.0297 22.1348 69.7789 22.2081 69.5094C22.2813 69.2419 22.3902 68.9557 22.5304 68.6569C22.6141 68.6966 22.6916 68.7342 22.7648 68.7697C22.8381 68.8052 22.9134 68.8429 22.9951 68.8826C22.7481 69.407 22.6267 69.8625 22.6267 70.2491C22.6267 70.387 22.6434 70.5165 22.6769 70.6419C22.7104 70.7672 22.7565 70.8801 22.8172 70.9804C22.9134 71.1287 23.0411 71.2457 23.2044 71.3314C23.3656 71.417 23.5435 71.4588 23.736 71.4588H24.3556L24.3598 71.4567ZM19.7235 70.4455H19.194V66.463H19.7235V70.4455ZM17.1636 69.921C17.1804 69.921 17.2034 69.921 17.2327 69.9189C17.262 69.9189 17.2934 69.9127 17.329 69.9043C17.3646 69.898 17.4022 69.8876 17.4399 69.873C17.4776 69.8604 17.5153 69.8416 17.5508 69.8207C17.6241 69.7727 17.6806 69.7079 17.7141 69.6243C17.7497 69.5428 17.7664 69.4404 17.7664 69.3172C17.7664 69.0811 17.7162 68.8972 17.6157 68.7656C17.5153 68.6339 17.375 68.5691 17.1929 68.5691C17.1071 68.5691 17.0234 68.5879 16.9417 68.6256C16.8601 68.6653 16.7785 68.7175 16.6989 68.7823C16.6194 68.8491 16.544 68.9264 16.4687 69.0142C16.3933 69.102 16.3222 69.196 16.251 69.2963C16.1819 69.3945 16.1129 69.4969 16.0501 69.6034C15.9852 69.7079 15.9224 69.8103 15.8617 69.9085C15.8575 69.9106 15.8575 69.9147 15.8575 69.9189H17.1636V69.921ZM14.6058 70.4475V69.921H15.2317C15.2798 69.85 15.3238 69.7768 15.3698 69.6974C15.4159 69.6201 15.4619 69.5428 15.51 69.4718V66.4651H16.0354V68.7196C16.115 68.6235 16.1987 68.5357 16.2866 68.4542C16.3745 68.3706 16.4645 68.2996 16.5608 68.239C16.6571 68.1805 16.7575 68.1324 16.8643 68.0969C16.971 68.0635 17.0799 68.0468 17.195 68.0468C17.3311 68.0468 17.465 68.0719 17.599 68.122C17.7309 68.1742 17.8502 68.2495 17.9527 68.3539C18.0553 68.4584 18.139 68.59 18.2039 68.7509C18.2667 68.9118 18.3002 69.102 18.3002 69.3213C18.3002 69.4613 18.2834 69.5867 18.252 69.6954C18.2206 69.804 18.1767 69.9022 18.1223 69.9858C18.0679 70.0694 18.003 70.1404 17.9276 70.1989C17.8543 70.2574 17.7748 70.3055 17.6911 70.3452C17.6074 70.3828 17.5195 70.4099 17.4294 70.4267C17.3394 70.4434 17.2515 70.4517 17.1657 70.4517H14.6079L14.6058 70.4475ZM14.7335 69.921V70.4475H14.5912C14.4216 70.4475 14.2709 70.4225 14.1411 70.3744C14.0114 70.3264 13.9067 70.2532 13.8293 70.1571C13.6346 70.3514 13.3478 70.4475 12.9669 70.4475H11.3154V69.921H12.9669C13.1009 69.921 13.2076 69.9064 13.2851 69.8792C13.3625 69.8521 13.4232 69.8186 13.463 69.7789C13.5027 69.7392 13.5279 69.6933 13.5404 69.6452C13.553 69.5951 13.5592 69.5491 13.5592 69.5031V66.4588H14.0846V69.4843C14.0846 69.5533 14.0951 69.6118 14.116 69.6598C14.137 69.7079 14.1642 69.7497 14.1956 69.781C14.2291 69.8124 14.2646 69.8374 14.3044 69.8583C14.3442 69.8771 14.3839 69.8897 14.4195 69.9001C14.4572 69.9106 14.4907 69.9147 14.52 69.9168C14.5493 69.9168 14.5723 69.9189 14.587 69.9189H14.7293L14.7335 69.921ZM11.6629 69.4258L11.4954 66.5737L12.0187 66.5152L12.1903 69.4258H11.665H11.6629ZM7.54779 70.4475V69.921H8.50435C8.43528 69.85 8.38085 69.7768 8.33899 69.7058C8.29713 69.6327 8.26573 69.5616 8.24271 69.4969C8.21968 69.43 8.20503 69.3673 8.19666 69.3088C8.19038 69.2503 8.1862 69.1981 8.1862 69.1542C8.1862 68.9996 8.21759 68.8575 8.2783 68.7217C8.339 68.5859 8.42272 68.4688 8.52528 68.3706C8.62994 68.2724 8.74925 68.193 8.8853 68.1366C9.02135 68.0781 9.16578 68.0489 9.31648 68.0489C9.4044 68.0489 9.48812 68.0593 9.56975 68.0781C9.64929 68.0969 9.73092 68.1262 9.81255 68.1617C9.89419 68.1972 9.98001 68.2432 10.07 68.2954C10.16 68.3477 10.2605 68.4062 10.3714 68.473L10.1077 68.9264C10.0428 68.8867 9.97582 68.847 9.90675 68.8052C9.83977 68.7635 9.77069 68.7258 9.70162 68.6924C9.63255 68.659 9.56557 68.6318 9.50068 68.6088C9.43579 68.5879 9.373 68.5775 9.31439 68.5775C9.24113 68.5775 9.16996 68.59 9.0988 68.6172C9.02763 68.6423 8.96065 68.6799 8.90204 68.73C8.84344 68.7802 8.79529 68.8408 8.75971 68.9118C8.72204 68.9829 8.70529 69.0622 8.70529 69.1542C8.70529 69.2545 8.72413 69.3443 8.7639 69.4195C8.80367 69.4969 8.85809 69.5637 8.92716 69.6201C8.99623 69.6765 9.07787 69.7246 9.16996 69.7622C9.26206 69.8019 9.36044 69.8312 9.46719 69.8541C9.57185 69.8771 9.68069 69.8959 9.79162 69.9064C9.90256 69.9168 10.0114 69.921 10.1202 69.921H10.4719V70.4475H7.54361H7.54779ZM7.66292 70.4475C7.46616 70.4475 7.30499 70.4329 7.17731 70.4058C7.04963 70.3807 6.94079 70.3452 6.85288 70.2971C6.76497 70.249 6.6938 70.1906 6.64147 70.1195C6.58705 70.0485 6.54518 69.9628 6.51588 69.8667C6.48658 69.7706 6.46564 69.664 6.45727 69.5449C6.4489 69.4258 6.44262 69.2942 6.44262 69.1479V66.4609H6.97218V69.1479C6.97218 69.3088 6.97637 69.4404 6.98683 69.5407C6.9973 69.6431 7.02451 69.7183 7.06847 69.7747C7.11242 69.8291 7.17731 69.8667 7.26731 69.8855C7.35522 69.9043 7.48709 69.9168 7.66292 69.9189V70.4455V70.4475ZM2.46359 68.3038L2.02194 67.8566L2.4594 67.4032L2.91361 67.8566L2.46568 68.3038H2.46359ZM3.53736 68.308L3.09571 67.8608L3.53108 67.4074L3.98529 67.8608L3.53736 68.308ZM4.75138 69.9315C4.82045 69.9315 4.88533 69.921 4.94394 69.8959C5.00255 69.8709 5.05488 69.8395 5.09674 69.7956C5.17628 69.71 5.21605 69.5951 5.21605 69.4467V69.4154C5.21605 69.3882 5.21186 69.3589 5.20767 69.3193C5.20558 69.2816 5.1993 69.2399 5.19512 69.1918C5.18884 69.1437 5.18256 69.0957 5.17628 69.0476C5.17 68.9975 5.16162 68.9452 5.15325 68.8909C5.14488 68.8366 5.13442 68.776 5.12186 68.7091C5.11139 68.6444 5.09674 68.5691 5.08209 68.4877L5.5949 68.402C5.61165 68.4814 5.6263 68.5545 5.63886 68.6235C5.65142 68.6903 5.66398 68.753 5.67235 68.8115C5.69119 68.9285 5.70584 69.0393 5.7184 69.1416C5.73096 69.2461 5.73723 69.3276 5.74142 69.3882V69.4446C5.74142 69.5198 5.73514 69.593 5.72258 69.664C5.71002 69.735 5.68909 69.804 5.66398 69.8667C5.63676 69.9315 5.60956 69.9858 5.57607 70.0338C5.54258 70.0819 5.51118 70.1216 5.47769 70.155C5.38559 70.2511 5.27675 70.3264 5.15116 70.3786C5.02348 70.4308 4.89161 70.4559 4.75138 70.4559H1.24329C1.11352 70.4559 0.990024 70.4308 0.870716 70.387C0.753501 70.3431 0.650935 70.2804 0.560931 70.1947C0.523255 70.1613 0.487672 70.1216 0.449995 70.0714C0.412319 70.0234 0.378831 69.967 0.347434 69.9022C0.316037 69.8374 0.293012 69.7622 0.274174 69.6786C0.255335 69.5951 0.244873 69.501 0.244873 69.3966C0.244873 69.3025 0.253242 69.2002 0.274174 69.0894C0.293012 68.9787 0.313947 68.8721 0.336971 68.7739C0.359996 68.6736 0.383015 68.5879 0.403946 68.5127C0.424878 68.4396 0.439532 68.3936 0.445811 68.3769L0.950256 68.5357C0.93979 68.5754 0.923045 68.6318 0.904207 68.7029C0.885369 68.7739 0.864438 68.8512 0.845599 68.9327C0.824668 69.0142 0.807923 69.0957 0.793271 69.1793C0.780713 69.2628 0.772339 69.3339 0.772339 69.3945C0.772339 69.5178 0.791177 69.6139 0.830946 69.6849C0.870715 69.7559 0.916765 69.8082 0.969093 69.8437C1.02351 69.8792 1.07584 69.9022 1.12817 69.9106C1.18259 69.9189 1.22236 69.9231 1.24957 69.9231H4.75346L4.75138 69.9315Z" fill="#4166F5"/>
<path d="M140.149 54.4297H90.3249C90.3139 54.4297 90.3033 54.4254 90.2955 54.4177C90.2877 54.4099 90.2833 54.3994 90.2833 54.3885V5.00831C90.2833 4.99737 90.2877 4.98687 90.2955 4.97913C90.3033 4.97139 90.3139 4.96704 90.3249 4.96704H140.148C140.159 4.96704 140.17 4.97139 140.178 4.97913C140.185 4.98687 140.19 4.99737 140.19 5.00831L140.19 54.3885C140.19 54.3994 140.186 54.4099 140.178 54.4177C140.17 54.4254 140.16 54.4297 140.149 54.4297ZM97.4763 12.0661C97.4677 12.0661 97.4593 12.0695 97.4532 12.0756C97.4471 12.0817 97.4436 12.0899 97.4436 12.0985V47.2841C97.4436 47.2927 97.4471 47.301 97.4532 47.3071C97.4593 47.3131 97.4677 47.3166 97.4763 47.3166H133.003C133.011 47.3166 133.02 47.3131 133.026 47.3071C133.032 47.301 133.035 47.2927 133.035 47.2841L133.036 12.0979C133.036 12.0893 133.033 12.0811 133.026 12.075C133.02 12.0689 133.012 12.0655 133.003 12.0655L97.4763 12.0661Z" fill="#F06135"/>
<path d="M115.252 22.6315L131.675 29.148C131.682 29.1507 131.688 29.1555 131.692 29.1616C131.696 29.1677 131.698 29.1749 131.698 29.1822L131.702 36.7211C131.702 36.7271 131.701 36.733 131.698 36.7383C131.695 36.7436 131.691 36.7482 131.686 36.7515C131.681 36.7549 131.675 36.757 131.669 36.7577C131.663 36.7583 131.657 36.7575 131.651 36.7553L115.252 30.2547C115.243 30.2512 115.233 30.2512 115.225 30.2547L98.824 36.7541C98.8184 36.7563 98.8123 36.7572 98.8063 36.7565C98.8003 36.7559 98.7945 36.7537 98.7895 36.7504C98.7845 36.747 98.7805 36.7424 98.7776 36.7371C98.7748 36.7318 98.7734 36.7259 98.7734 36.7199L98.7764 29.1822C98.7764 29.1749 98.7785 29.1677 98.7827 29.1616C98.7868 29.1555 98.7927 29.1507 98.7996 29.148L115.225 22.6315C115.233 22.628 115.243 22.628 115.252 22.6315Z" fill="#F06135"/>
<path d="M100.616 65.5488C100.611 65.5315 100.601 65.5156 100.587 65.501C99.7444 64.6646 98.9026 63.8283 98.0612 62.9922C98.0466 62.9777 98.0466 62.9631 98.0612 62.9486L100.839 60.1903C100.862 60.1675 100.89 60.1561 100.923 60.1561H103.108C103.137 60.1561 103.141 60.1663 103.121 60.1868L100.32 62.9639C100.312 62.972 100.308 62.983 100.308 62.9944C100.308 63.0058 100.313 63.0166 100.321 63.0246L102.855 65.5394C102.872 65.5559 102.892 65.5639 102.916 65.5635C103.3 65.5572 103.684 65.5567 104.065 65.5618C104.179 65.563 104.289 65.5311 104.395 65.4663C104.455 65.4297 104.498 65.3745 104.525 65.3006C104.569 65.1803 104.591 65.0673 104.591 64.9615C104.591 64.2736 104.591 63.583 104.591 62.8896C104.591 62.8815 104.595 62.8737 104.6 62.8679C104.606 62.8622 104.614 62.8589 104.622 62.8589L106.154 62.8601C106.173 62.8601 106.183 62.8696 106.183 62.8884C106.181 63.7115 106.181 64.5347 106.182 65.3578C106.182 65.5211 106.314 65.5954 106.446 65.6538C106.587 65.7157 106.79 65.6785 106.941 65.6655C107.052 65.6565 107.108 65.5964 107.108 65.4851L107.104 62.9156C107.104 62.8782 107.123 62.8595 107.161 62.8595H108.667C108.674 62.8595 108.681 62.8611 108.688 62.8642C108.694 62.8673 108.7 62.8717 108.704 62.8773C108.708 62.8828 108.712 62.8893 108.713 62.8962C108.715 62.9031 108.715 62.9104 108.713 62.9173C108.707 62.9468 108.703 62.9761 108.703 63.0052C108.699 63.7367 108.699 64.4875 108.701 65.2575C108.701 65.4089 108.751 65.5195 108.849 65.5895C108.918 65.639 109.018 65.6661 109.147 65.6709C109.241 65.674 109.348 65.672 109.468 65.665C109.578 65.6587 109.633 65.6028 109.634 65.4975C109.638 64.617 109.639 63.7432 109.635 62.876C109.635 62.874 109.636 62.8719 109.637 62.87C109.637 62.868 109.639 62.8663 109.64 62.8648C109.642 62.8633 109.643 62.8621 109.645 62.8613C109.647 62.8605 109.649 62.8601 109.651 62.8601L111.207 62.8595C111.212 62.8595 111.217 62.8616 111.221 62.8652C111.224 62.8689 111.226 62.8738 111.226 62.879C111.224 63.6679 111.223 64.4629 111.223 65.264C111.223 65.3554 111.259 65.438 111.289 65.524C111.302 65.5633 111.327 65.5977 111.36 65.6229C111.393 65.6481 111.433 65.6629 111.475 65.6655C111.587 65.672 111.665 65.7198 111.783 65.7192C112.163 65.718 112.517 65.7182 112.844 65.7198C112.946 65.7202 113.055 65.684 113.172 65.6113C113.189 65.6003 113.201 65.5834 113.206 65.5641C113.225 65.4914 113.243 65.4159 113.261 65.3377C113.275 65.276 113.282 65.2108 113.28 65.142C113.272 64.8126 113.272 64.4796 113.279 64.1431C113.283 64.0005 113.313 63.8609 113.37 63.7245C113.523 63.3574 113.803 63.0958 114.209 62.9397C114.355 62.8835 114.508 62.8562 114.667 62.8578C115.163 62.8625 115.674 62.8607 116.199 62.8525C116.42 62.8493 116.613 62.8774 116.779 62.9368C117.213 63.0928 117.507 63.3831 117.661 63.8077C117.697 63.9083 117.717 64.0052 117.721 64.0983C117.726 64.2516 117.762 64.3985 117.759 64.5576C117.752 64.9657 117.75 65.3646 117.753 65.7546C117.753 65.8159 117.746 65.877 117.732 65.938C117.72 65.9902 117.712 66.0443 117.709 66.1001C117.695 66.3631 117.563 66.6331 117.368 66.8401C117.079 67.1482 116.702 67.301 116.238 67.2982C115.806 67.2958 115.352 67.297 114.878 67.3017C114.405 67.3065 114.039 67.2221 113.696 66.899C113.678 66.8822 113.655 66.8728 113.63 66.8727C113.605 66.8726 113.582 66.8818 113.564 66.8984C113.284 67.1555 112.933 67.288 112.511 67.2958C112.171 67.3021 111.871 67.301 111.612 67.2923C111.374 67.2844 111.091 67.205 110.764 67.0541C110.68 67.0148 110.583 66.9423 110.474 66.8365C110.455 66.8181 110.435 66.8163 110.414 66.8312C110.123 67.0352 109.862 67.1909 109.5 67.264C108.961 67.3743 108.366 67.1526 107.932 66.8306C107.917 66.82 107.903 66.8198 107.888 66.83C107.052 67.4203 106.172 67.4698 105.342 66.843C105.322 66.8281 105.302 66.8281 105.282 66.843C105.159 66.935 105.019 67.0124 104.861 67.0753C104.748 67.1205 104.626 67.1429 104.497 67.1425C102.201 67.1418 99.9126 67.1414 97.6326 67.1414C97.4186 67.1414 97.226 67.0747 97.0215 67.0258C96.9965 67.0199 96.9799 67.0289 96.9716 67.0529C96.9181 67.2137 96.8487 67.3811 96.7635 67.5553C96.4526 68.1921 95.8486 68.7717 95.1347 68.9533C94.948 69.001 94.7614 69.0488 94.5646 69.0488C93.9372 69.0484 93.3325 69.0468 92.7503 69.0441C92.5616 69.0433 92.3478 69.0034 92.1089 68.9244C91.9135 68.8599 91.731 68.7707 91.5614 68.6567C90.9784 68.2652 90.5934 67.7275 90.4063 67.0435C90.352 66.8442 90.3253 66.6209 90.3261 66.3737C90.3292 65.2432 90.3298 64.0854 90.3279 62.9002C90.3279 62.8735 90.3413 62.8601 90.3683 62.8601L91.8717 62.8589C91.905 62.8589 91.9216 62.8755 91.9216 62.9085C91.9188 64.0928 91.9178 65.2937 91.9186 66.5111C91.9192 66.9085 92.1653 67.1532 92.4869 67.3359C92.6076 67.4049 92.739 67.4144 92.8727 67.448C92.9171 67.4594 92.9619 67.4653 93.0071 67.4657C93.47 67.47 93.9105 67.4692 94.3286 67.4633C94.4455 67.4617 94.5648 67.4409 94.6865 67.4008C95.0725 67.273 95.3148 67.0521 95.4135 66.7381C95.4507 66.6194 95.467 66.3534 95.4622 65.9403C95.4503 64.8703 95.4482 63.8521 95.4557 62.8855C95.4557 62.8686 95.4642 62.8601 95.4813 62.8601L97.0013 62.8589C97.0334 62.8589 97.0494 62.8751 97.0494 62.9073C97.0451 63.5712 97.0447 64.275 97.0483 65.0187C97.0498 65.3234 97.1933 65.4859 97.4787 65.5063C97.5476 65.5111 97.5857 65.5606 97.6481 65.56C98.6313 65.5565 99.6171 65.5576 100.606 65.5635C100.607 65.5635 100.609 65.5631 100.611 65.5623C100.612 65.5615 100.614 65.5603 100.615 65.5589C100.616 65.5574 100.616 65.5558 100.617 65.554C100.617 65.5523 100.617 65.5505 100.616 65.5488ZM116.257 64.5338C116.256 64.4215 116.211 64.314 116.131 64.2349C116.05 64.1558 115.942 64.1115 115.828 64.1119L115.166 64.1142C115.11 64.1144 115.055 64.1256 115.003 64.147C114.951 64.1685 114.904 64.1998 114.865 64.2393C114.825 64.2787 114.794 64.3255 114.773 64.3769C114.752 64.4284 114.741 64.4835 114.741 64.5391L114.744 65.414C114.744 65.5263 114.79 65.6338 114.87 65.713C114.95 65.7921 115.059 65.8363 115.172 65.8359L115.835 65.8336C115.891 65.8334 115.946 65.8223 115.998 65.8008C116.049 65.7794 116.096 65.748 116.136 65.7086C116.175 65.6691 116.207 65.6223 116.228 65.5709C116.249 65.5195 116.26 65.4644 116.26 65.4088L116.257 64.5338Z" fill="#F06135"/>
<path d="M127.646 65.5477C127.648 65.5459 127.65 65.5437 127.651 65.5412C127.652 65.5388 127.653 65.5361 127.653 65.5334C127.653 65.5307 127.653 65.528 127.652 65.5255C127.651 65.523 127.649 65.5207 127.647 65.5188L125.081 62.9758C125.057 62.9522 125.06 62.9322 125.089 62.9157C125.134 62.8909 125.177 62.8738 125.214 62.8378C126.086 61.9731 126.972 61.0941 127.872 60.2011C127.902 60.1712 127.938 60.1562 127.981 60.1562H130.113C130.115 60.1563 130.118 60.1572 130.12 60.1587C130.122 60.1603 130.124 60.1624 130.125 60.1649C130.126 60.1673 130.127 60.1701 130.126 60.1727C130.126 60.1754 130.124 60.1778 130.123 60.1798L127.319 62.9593C127.317 62.961 127.316 62.963 127.315 62.9652C127.314 62.9674 127.314 62.9698 127.314 62.9722C127.314 62.9746 127.314 62.9771 127.315 62.9793C127.316 62.9815 127.318 62.9836 127.32 62.9852L129.896 65.543C129.902 65.5488 129.909 65.5534 129.917 65.5566C129.924 65.5597 129.933 65.5613 129.941 65.5613C130.482 65.5593 130.995 65.5586 131.48 65.5589C131.674 65.5593 131.81 65.4811 131.888 65.3243C131.926 65.2464 131.947 65.1102 131.948 64.9157C131.953 64.2482 131.953 63.5741 131.946 62.8933C131.946 62.8889 131.947 62.8845 131.949 62.8804C131.951 62.8763 131.953 62.8726 131.956 62.8695C131.959 62.8664 131.963 62.8639 131.967 62.8622C131.971 62.8605 131.976 62.8597 131.98 62.8597H133.544C133.548 62.8597 133.552 62.8605 133.556 62.8621C133.56 62.8638 133.563 62.8661 133.566 62.8692C133.569 62.8722 133.572 62.8757 133.573 62.8797C133.575 62.8836 133.576 62.8878 133.576 62.8921C133.573 63.6236 133.573 64.3744 133.576 65.1444C133.577 65.3508 133.543 65.5472 133.516 65.7529C133.505 65.8335 133.488 65.9074 133.464 65.9746C133.264 66.5379 132.903 66.9019 132.381 67.0666C132.213 67.1197 132.008 67.146 131.765 67.1456C128.212 67.1413 124.563 67.1407 120.816 67.1438C120.646 67.1438 120.462 67.1079 120.262 67.036C120.122 66.9852 120.001 66.9198 119.898 66.8396C119.602 66.6081 119.393 66.3168 119.271 65.9658C119.198 65.7575 119.164 65.4931 119.167 65.1727C119.174 64.6252 119.174 64.1049 119.167 63.612C119.167 63.5884 119.179 63.5766 119.203 63.5766L120.705 63.5755C120.742 63.5755 120.76 63.5937 120.76 63.6303C120.761 64.1256 120.761 64.6419 120.762 65.1792C120.762 65.2862 120.791 65.3919 120.85 65.4965C120.859 65.5134 120.873 65.5242 120.892 65.5289C120.94 65.5407 120.984 65.5595 121.035 65.5595C123.229 65.5588 125.42 65.5593 127.609 65.5613C127.623 65.5613 127.635 65.5568 127.646 65.5477Z" fill="#F06135"/>
<path d="M135.514 66.6816C135.249 66.4546 135.079 66.1132 135.034 65.7671C135.006 65.5615 134.992 65.3424 134.991 65.1097C134.985 63.3699 134.984 61.7288 134.988 60.1863C134.988 60.1667 134.998 60.1568 135.018 60.1568L136.544 60.1562C136.566 60.1562 136.578 60.1675 136.578 60.1899C136.574 61.748 136.575 63.3029 136.58 64.8544C136.58 64.9646 136.626 65.0536 136.622 65.1651C136.619 65.2789 136.691 65.4163 136.794 65.4622C137.129 65.6102 137.538 65.556 137.9 65.5619C137.973 65.5631 138.044 65.554 138.114 65.5348C138.202 65.5106 138.33 65.5194 138.398 65.4575C138.502 65.362 138.555 65.2407 138.555 65.0937C138.554 64.4251 138.554 63.6946 138.555 62.9021C138.555 62.8746 138.569 62.8608 138.596 62.8608L140.159 62.8591C140.166 62.8591 140.173 62.8619 140.178 62.867C140.183 62.8721 140.186 62.879 140.186 62.8862C140.181 63.6197 140.181 64.3225 140.185 64.9947C140.186 65.1099 140.178 65.2233 140.161 65.3349C140.139 65.4799 140.153 65.6185 140.109 65.7594C139.901 66.4316 139.481 66.8669 138.85 67.0654C138.662 67.1248 138.464 67.1521 138.257 67.1474C137.865 67.1387 137.476 67.1389 137.088 67.148C136.772 67.155 136.506 67.1309 136.29 67.0754C135.991 66.9992 135.732 66.8679 135.514 66.6816Z" fill="#F06135"/>
<path d="M94.4071 61.4642L92.9744 61.4667C92.9524 61.4668 92.9346 61.4845 92.9346 61.5063L92.9372 62.9709C92.9373 62.9927 92.9551 63.0104 92.9771 63.0104L94.4098 63.0079C94.4318 63.0078 94.4496 62.9901 94.4495 62.9683L94.447 61.5037C94.4469 61.4819 94.4291 61.4642 94.4071 61.4642Z" fill="#F06135"/>
<path d="M131.254 61.4668H129.831C129.807 61.4668 129.788 61.4858 129.788 61.5092V62.9656C129.788 62.9891 129.807 63.0081 129.831 63.0081H131.254C131.278 63.0081 131.297 62.9891 131.297 62.9656V61.5092C131.297 61.4858 131.278 61.4668 131.254 61.4668Z" fill="#F06135"/>
<path d="M138.327 67.5476L136.85 67.5527C136.841 67.5527 136.834 67.5599 136.834 67.5687L136.839 69.0344C136.839 69.0432 136.846 69.0503 136.855 69.0503L138.332 69.0452C138.341 69.0452 138.348 69.038 138.348 69.0292L138.343 67.5634C138.343 67.5546 138.336 67.5475 138.327 67.5476Z" fill="#F06135"/>
</svg>
