<svg width="128" height="40" viewBox="0 0 128 40" fill="none" xmlns="http://www.w3.org/2000/svg">
<path d="M32.4412 10.0873C32.6292 10.0163 32.8102 9.92831 33.0032 9.87231C33.0112 13.6173 33.0032 17.3613 33.0032 21.1063C33.0032 22.3923 33.0032 23.6782 33.0032 24.9642C32.7522 25.0882 32.4852 25.1733 32.2282 25.2843C31.7282 25.4843 31.2231 25.6903 30.7181 25.8903C30.5643 25.9596 30.406 26.0184 30.2441 26.0663C30.2271 25.2663 30.2442 24.4663 30.2372 23.6663C30.2372 19.7329 30.2372 15.8023 30.2372 11.8743C30.2462 11.5743 30.2182 11.2693 30.2502 10.9683C30.9792 10.6683 31.7132 10.3863 32.4412 10.0873Z" fill="#242932"/>
<path d="M55.0502 10.2094C55.3402 10.1014 55.6182 9.96331 55.9132 9.87231C55.9272 11.5573 55.9132 13.2433 55.9192 14.9283C55.9192 18.1783 55.9192 21.428 55.9192 24.6774C57.0192 24.1564 58.1042 23.6254 59.1992 23.1044C59.6322 22.8854 60.0791 22.6964 60.5061 22.4674C60.5231 21.6514 60.5062 20.8333 60.5132 20.0173C60.5202 19.7533 60.4992 19.4883 60.5232 19.2253C61.0542 18.9653 61.5902 18.7174 62.1232 18.4624C62.2665 18.3871 62.4141 18.3203 62.5652 18.2623C62.5832 19.5483 62.5652 20.8364 62.5742 22.1234C62.5834 22.6323 62.4655 23.1355 62.2312 23.5874C61.9877 24.0381 61.6561 24.4353 61.2561 24.7554C61.4261 24.6844 61.5901 24.6004 61.7561 24.5214C64.8514 23.0434 67.9472 21.566 71.0432 20.0894C72.5292 19.3894 74.0082 18.6674 75.4972 17.9694V18.9434C75.4812 19.0434 75.4632 19.1434 75.4492 19.2434C75.3273 20.0305 74.9041 20.7394 74.2692 21.2203C73.9395 21.4459 73.5876 21.6372 73.2191 21.7914L61.5452 27.3663C61.3923 27.4491 61.2332 27.5197 61.0692 27.5774C61.0492 26.6854 61.0692 25.7924 61.0602 24.9004C60.8174 25.0604 60.5622 25.2007 60.2971 25.3203C58.8125 26.0343 57.3275 26.7477 55.8422 27.4603C55.5058 27.6125 55.1327 27.6641 54.7677 27.6089C54.4027 27.5537 54.0615 27.3942 53.7852 27.1494C53.5847 26.9733 53.4241 26.7563 53.3141 26.5132C53.2041 26.27 53.1472 26.0063 53.1472 25.7394C53.1472 21.1767 53.1472 16.6141 53.1472 12.0514C53.1552 11.6914 53.1302 11.3314 53.1582 10.9724C53.7922 10.7114 54.4202 10.4644 55.0502 10.2094Z" fill="#242932"/>
<path d="M16.633 10.1113C16.81 10.0443 16.982 9.96338 17.163 9.91138C17.172 14.1694 17.163 18.4273 17.163 22.6853C17.163 23.0023 17.177 23.3194 17.163 23.6354C17.1423 23.9462 17.0404 24.2461 16.8675 24.5052C16.6947 24.7644 16.457 24.9737 16.178 25.1123C14.816 25.7783 13.444 26.4224 12.078 27.0724L6.47805 29.7273C5.91562 29.9835 5.30601 30.1197 4.68804 30.1273C4.0667 30.1358 3.45118 30.0068 2.88552 29.7495C2.31987 29.4923 1.81806 29.1132 1.41604 28.6394C0.96839 28.0974 0.671717 27.4467 0.556023 26.7533C0.461576 26.1558 0.495781 25.545 0.656334 24.9618C0.816887 24.3786 1.10009 23.8363 1.48702 23.3713C1.88665 22.8904 2.38354 22.4995 2.94503 22.2244C5.7997 20.8737 8.65337 19.5214 11.506 18.1674C11.518 18.9134 11.506 19.6603 11.511 20.4073C11.5184 20.5778 11.5134 20.7486 11.496 20.9183C8.94136 22.1237 6.38836 23.3337 3.83703 24.5483C3.56103 24.6707 3.31487 24.8514 3.11547 25.0781C2.91607 25.3048 2.76818 25.572 2.68203 25.8613C2.60114 26.1419 2.60293 26.4398 2.68719 26.7194C2.77144 26.9989 2.93459 27.2483 3.15704 27.4374C3.43095 27.6405 3.75404 27.767 4.09307 27.804C4.4321 27.8409 4.77481 27.7868 5.08602 27.6473C5.63402 27.4013 6.16703 27.1254 6.71203 26.8754C9.27203 25.6614 11.8324 24.4477 14.393 23.2344C14.405 21.4504 14.393 19.6653 14.393 17.8813V11.9503C14.398 11.6363 14.382 11.3213 14.401 11.0073C15.147 10.7023 15.891 10.4113 16.633 10.1113Z" fill="#242932"/>
<path d="M58.0517 14.5622C58.3747 14.5295 58.7001 14.5948 58.9854 14.7497C59.2708 14.9045 59.503 15.1416 59.6517 15.4302C59.789 15.6972 59.8473 15.9979 59.8197 16.2969C59.792 16.5959 59.6797 16.8808 59.4958 17.1182C59.3077 17.362 59.0535 17.5468 58.7635 17.6507C58.4736 17.7545 58.1599 17.7732 57.8597 17.7042C57.5654 17.6391 57.2957 17.4918 57.0819 17.2793C56.868 17.0669 56.7188 16.798 56.6517 16.5042C56.5917 16.2508 56.5956 15.9865 56.6629 15.735C56.7303 15.4835 56.8592 15.2527 57.0378 15.0633C57.3045 14.7797 57.6645 14.6017 58.0517 14.5622Z" fill="#242932"/>
<path d="M61.3756 14.5626C61.6517 14.534 61.9305 14.5767 62.1854 14.6866C62.4403 14.7966 62.6628 14.9701 62.8315 15.1905C63.0256 15.4471 63.1373 15.7567 63.1516 16.0781C63.1659 16.3995 63.0822 16.7178 62.9116 16.9906C62.7437 17.2571 62.5013 17.4687 62.2144 17.5988C61.9276 17.729 61.6088 17.7722 61.2977 17.723C60.9866 17.6738 60.6967 17.5344 60.464 17.3221C60.2312 17.1098 60.0659 16.8339 59.9885 16.5285C59.9215 16.2597 59.9261 15.9781 60.0017 15.7116C60.0773 15.4452 60.2214 15.2032 60.4195 15.0096C60.6793 14.758 61.0159 14.6006 61.3756 14.5626Z" fill="#242932"/>
<path d="M39.1977 15.7766C40.4101 16.458 41.5739 17.2225 42.6808 18.0646C43.5244 18.6915 44.2796 19.4295 44.9258 20.2585C45.2954 20.7148 45.5348 21.2625 45.6188 21.8436C45.6328 22.2436 45.6188 22.6436 45.6258 23.0366C45.6338 23.2244 45.5902 23.4108 45.4997 23.5756C45.2599 23.9493 44.9107 24.2402 44.4997 24.4086C42.4877 25.3232 40.4754 26.2379 38.4628 27.1526C37.836 27.4346 37.1589 27.5873 36.4718 27.6016C36.0205 27.6213 35.5782 27.4715 35.2318 27.1816C34.8918 26.8445 34.6892 26.3927 34.6637 25.9146C34.6241 25.2035 34.7422 24.4926 35.0097 23.8326C35.4953 22.672 36.1713 21.6006 37.0097 20.6626C37.6795 19.8892 38.4041 19.165 39.1778 18.4956C39.2088 18.2206 39.1777 17.9425 39.1897 17.6655C39.1967 17.0365 39.1887 16.4066 39.1977 15.7766ZM41.1297 20.1166C40.0656 20.806 39.0551 21.5749 38.1068 22.4166C37.679 22.7909 37.305 23.2226 36.9958 23.6996C36.8562 23.9087 36.7862 24.1564 36.7958 24.4076C36.8025 24.4861 36.8299 24.5614 36.875 24.626C36.9201 24.6906 36.9814 24.7422 37.0528 24.7756C37.2385 24.8504 37.4395 24.8795 37.6388 24.8606C37.9849 24.8429 38.3231 24.7501 38.6297 24.5886C40.2657 23.8126 41.9018 23.0359 43.5378 22.2585C43.2583 21.8568 42.9383 21.4849 42.5827 21.1486C42.1738 20.7475 41.7396 20.3731 41.2828 20.0276C41.2288 20.0536 41.1777 20.0826 41.1297 20.1166Z" fill="#242932"/>
<path d="M20.6883 17.5094C21.182 17.1955 21.7458 17.009 22.3293 16.9664C23.1722 16.8947 24.0181 17.0653 24.7673 17.4584C25.6755 17.956 26.4661 18.6433 27.0853 19.4734C27.5297 20.0275 27.9033 20.6348 28.1973 21.2814C28.438 21.8117 28.5738 22.3836 28.5973 22.9655C28.6082 23.6225 28.4119 24.2663 28.0363 24.8054C27.6646 25.3281 27.1733 25.7544 26.6033 26.0485C24.028 27.2725 21.4517 28.4948 18.8743 29.7155C18.5743 29.8485 18.2903 30.0034 17.9883 30.1254C17.9883 29.2154 17.9883 28.3054 17.9883 27.3954C19.2483 26.7814 20.5213 26.1954 21.7883 25.5874L25.4273 23.8615C25.7273 23.7105 26.0463 23.5785 26.3463 23.4185C26.2919 23.0622 26.1911 22.7145 26.0463 22.3844C25.4523 22.6484 24.8693 22.9425 24.2783 23.2155C23.5333 23.6089 22.7481 23.921 21.9363 24.1464C21.3343 24.3151 20.6986 24.3237 20.0923 24.1714C19.8128 24.0906 19.5588 23.9393 19.3544 23.7322C19.1501 23.5251 19.0023 23.269 18.9253 22.9884C18.7699 22.1714 18.7523 21.3343 18.8733 20.5115C18.9621 19.9138 19.16 19.3375 19.4573 18.8114C19.7589 18.2862 20.1808 17.84 20.6883 17.5094ZM21.3633 20.0094C21.0644 20.2641 20.8704 20.6203 20.8183 21.0094C20.7658 21.3676 20.7801 21.7325 20.8603 22.0855C21.1193 21.9855 21.3603 21.8454 21.6163 21.7334L23.9353 20.6334C24.1563 20.5214 24.3913 20.4335 24.6003 20.3035C24.395 20.052 24.1339 19.8516 23.8378 19.7185C23.5417 19.5854 23.2187 19.523 22.8943 19.5364C22.3464 19.5197 21.8084 19.6851 21.3643 20.0065L21.3633 20.0094Z" fill="#242932"/>
<path d="M50.7903 19.1302C50.889 19.0784 50.9916 19.0346 51.0973 18.9993C51.1153 20.2893 51.0974 21.5793 51.1054 22.8693C51.1145 23.472 50.9439 24.0638 50.6154 24.5692C50.2447 25.1348 49.7342 25.595 49.1333 25.9053C46.344 27.2326 43.5526 28.5573 40.7593 29.8793C40.6753 29.9229 40.588 29.9599 40.4983 29.9902C40.4983 29.0832 40.4933 28.1762 40.4983 27.2692C40.5769 27.2138 40.6623 27.1689 40.7523 27.1353C43.5103 25.8239 46.269 24.5146 49.0283 23.2073C49.0513 22.1263 49.0224 21.0422 49.0424 19.9602C49.6244 19.6772 50.2113 19.4102 50.7903 19.1302Z" fill="#242932"/>
<path d="M108.63 1.84741H108.947C109.207 1.87032 109.462 1.93606 109.701 2.04196C110.373 2.38125 110.954 2.87877 111.392 3.49182C112.127 4.48773 112.746 5.56464 113.236 6.70148C113.852 8.06498 114.36 9.47757 114.872 10.8829C114.958 11.141 115.068 11.391 115.137 11.6546C114.356 11.7628 113.58 11.9119 112.802 12.0464C112.736 11.9158 112.679 11.7813 112.629 11.6437C112.329 10.8997 111.932 10.1988 111.448 9.55939C111.097 9.07748 110.621 8.70034 110.072 8.46858C109.666 8.31816 109.22 8.31175 108.809 8.45041C108.344 8.61665 107.92 8.88147 107.567 9.2267C106.875 9.90876 106.283 10.6855 105.808 11.5337C105.263 12.4427 104.822 13.4126 104.354 14.3616C102.828 17.4632 101.303 20.5647 99.7787 23.6662C99.6142 23.9853 99.4724 24.3152 99.2951 24.627C99.2352 24.6024 99.1742 24.5779 99.1133 24.5488C98.3134 24.1407 97.4771 23.7925 96.7227 23.3071C96.752 23.1885 96.7947 23.0735 96.8499 22.9644C97.6853 20.9928 98.537 19.0275 99.3951 17.065C100.427 14.708 101.468 12.3537 102.548 10.0175C103.106 8.81855 103.667 7.61958 104.283 6.44879C104.617 5.77592 104.99 5.12278 105.399 4.49261C105.868 3.736 106.456 3.06059 107.142 2.4928C107.567 2.14208 108.083 1.91841 108.63 1.84741Z" fill="#242932"/>
<path d="M115.135 15.2455C115.613 15.2133 116.092 15.2057 116.571 15.2227C117.558 17.7497 118.491 20.2968 119.349 22.8692C120.221 25.4133 120.945 28.0055 121.517 30.633C121.771 31.7929 121.897 32.9771 121.893 34.1645C121.883 34.4864 121.834 34.8058 121.748 35.1162C121.66 35.3966 121.512 35.654 121.313 35.8701C121.114 36.0862 120.869 36.2556 120.597 36.3661C120.034 36.579 119.428 36.6538 118.829 36.5843C118.098 36.5141 117.377 36.3663 116.677 36.1434C115.445 35.7499 114.243 35.2693 113.079 34.7053C111.982 34.1927 110.923 33.6055 109.834 33.0774C109.406 32.8619 108.967 32.6647 108.543 32.441C108.61 32.3772 108.684 32.3214 108.764 32.2747C109.335 31.8772 109.902 31.4733 110.465 31.063C110.716 30.8812 110.956 30.6875 111.213 30.5176C111.421 30.6085 111.611 30.7303 111.812 30.8321C112.422 31.1711 113.053 31.4705 113.701 31.7284C114.267 31.967 114.874 32.0959 115.488 32.1083C116.115 32.1131 116.719 31.8708 117.168 31.4338C117.509 31.0017 117.709 30.4752 117.74 29.9258C117.803 29.1418 117.778 28.3532 117.663 27.5751C117.463 26.1592 117.167 24.7586 116.778 23.3828C116.039 20.6758 115.109 18.0197 114.118 15.3973L114.103 15.3227C114.446 15.28 114.791 15.2745 115.135 15.2455Z" fill="#242932"/>
<path d="M96.5737 15.8706C97.5845 15.6715 98.5999 15.4925 99.6134 15.3088C99.5709 15.433 99.5208 15.5544 99.4634 15.6724C99.1743 16.3323 98.8844 16.9905 98.5989 17.6513C98.5826 17.6948 98.5579 17.7346 98.5262 17.7686C97.5156 18.0922 96.5577 18.5616 95.6829 19.1621C95.1974 19.4846 94.7987 19.9216 94.5221 20.4347C94.4259 20.6345 94.3718 20.8519 94.3632 21.0735C94.3546 21.2951 94.3917 21.5161 94.4721 21.7227C94.6831 22.2026 95.0053 22.6254 95.412 22.9562C96.1126 23.5347 96.8827 24.0233 97.7045 24.4107C98.1244 24.6261 98.5653 24.7997 98.9771 25.0251C101.534 26.3268 104.187 27.4267 106.821 28.562C107.01 28.6529 107.208 28.7139 107.395 28.8048C107.231 28.9245 107.06 29.0337 106.882 29.132C106.245 29.5129 105.609 29.8892 104.962 30.2555C104.78 30.3464 104.617 30.4673 104.429 30.5446C104.23 30.4792 104.043 30.3837 103.85 30.301C99.804 28.463 95.7904 26.5562 91.8096 24.5806C90.8497 24.1586 89.9446 23.6214 89.1144 22.9808C88.6703 22.6381 88.2784 22.2327 87.9509 21.7773C87.6475 21.363 87.4879 20.8608 87.4964 20.3474C87.5364 19.9108 87.721 19.5 88.0209 19.1803C88.3797 18.7915 88.7982 18.4625 89.2608 18.2058C90.1915 17.6919 91.1738 17.2775 92.1914 16.9696C93.6321 16.5274 95.0949 16.1606 96.5737 15.8706Z" fill="#242932"/>
<path d="M114.574 12.2397C116.872 11.8387 119.196 11.6054 121.527 11.5415C122.224 11.5304 122.92 11.5608 123.613 11.6325C124.229 11.685 124.839 11.8023 125.431 11.9824C125.942 12.1324 126.417 12.3851 126.827 12.7251C127.119 12.9775 127.331 13.3099 127.437 13.6813C127.56 14.2884 127.485 14.9193 127.222 15.4802C126.802 16.4059 126.246 17.2638 125.572 18.0254C124.762 18.9725 123.893 19.8689 122.973 20.7097C122.122 21.4942 121.246 22.2551 120.359 22.995C120.247 23.0931 120.125 23.1801 119.996 23.2549C119.75 22.5332 119.503 21.8124 119.268 21.0879C119.353 20.9779 119.478 20.9061 119.568 20.8034C119.921 20.3992 120.233 19.9607 120.498 19.4944C120.834 18.9352 121.016 18.2969 121.025 17.6446C121.016 17.1671 120.863 16.7035 120.586 16.3147C120.236 15.8335 119.765 15.4524 119.222 15.2094C118.645 14.9449 118.023 14.793 117.39 14.7622C116.218 14.6985 115.044 14.7288 113.877 14.853C110.494 15.2415 107.135 15.8181 103.816 16.5802C104.18 15.8093 104.566 15.053 104.935 14.2858C104.959 14.2058 105.045 14.1949 105.117 14.1804C106.844 13.8341 108.557 13.4041 110.287 13.0541C111.71 12.7499 113.139 12.4784 114.574 12.2397Z" fill="#242932"/>
<path d="M115.718 23.9949C115.917 23.8613 116.099 23.7058 116.297 23.5713C116.324 23.6033 116.341 23.6415 116.348 23.6822C116.467 24.1367 116.572 24.5848 116.684 25.0366C116.718 25.152 116.742 25.2704 116.755 25.3902C116.265 25.7893 115.795 26.2083 115.311 26.6174C113.447 28.193 111.522 29.6955 109.536 31.1251C107.454 32.6324 105.285 34.0168 103.041 35.2711C101.43 36.1741 99.7495 36.9477 98.0156 37.5845C97.3147 37.8257 96.5905 37.9933 95.8549 38.0844C95.6108 38.1234 95.364 38.1435 95.1168 38.1444C94.3971 38.192 93.6788 38.0344 93.0452 37.6899C92.6446 37.4414 92.3297 37.0763 92.1425 36.6437C91.9562 36.2046 91.866 35.7306 91.878 35.2538C91.878 35.042 91.878 34.8302 91.8871 34.6175C91.938 34.1793 92.0108 33.744 92.1053 33.3131C92.2816 32.6213 92.5161 31.9496 92.7461 31.2706C93.0691 30.3616 93.4327 29.4674 93.8369 28.5881C94.1369 27.9228 94.4706 27.2732 94.8368 26.6419C94.8772 26.646 94.9165 26.6571 94.9532 26.6746C95.744 27.0619 96.5403 27.4364 97.333 27.8191C97.4391 27.8589 97.5398 27.9117 97.6329 27.9763C97.5538 28.1581 97.4511 28.3245 97.3866 28.5099C97.2021 28.9967 97.0476 29.4942 96.9239 29.9998C96.8016 30.4646 96.7405 30.9435 96.7421 31.4242C96.7129 31.8724 96.8149 32.3193 97.0357 32.7104C97.2045 32.9735 97.4543 33.1745 97.7475 33.2831C98.1862 33.424 98.6528 33.4552 99.1064 33.374C99.7744 33.2622 100.427 33.0743 101.053 32.814C102.256 32.2843 103.432 31.6945 104.577 31.0469C106.738 29.8434 108.842 28.5399 110.919 27.1991C112.531 26.1562 114.131 25.0881 115.718 23.9949Z" fill="#242932"/>
</svg>
