<svg width="64" height="64" viewBox="0 0 64 64" fill="none" xmlns="http://www.w3.org/2000/svg">
<path fill-rule="evenodd" clip-rule="evenodd" d="M30.7163 61.5037C31.2372 62.0285 32.0226 62.1868 32.706 61.9036C33.3894 61.6176 33.8359 60.9456 33.8359 60.2015C33.8359 59.4573 33.3895 58.7854 32.706 58.4994C32.0226 58.2162 31.2372 58.3745 30.7163 58.902C30.0026 59.6184 30.0026 60.7845 30.7163 61.5037ZM6.46805 47.4008C6.98889 47.9256 7.77708 48.0839 8.45773 47.8006C9.14117 47.5146 9.58764 46.8426 9.58764 46.0985C9.58764 45.3544 9.1412 44.6824 8.45773 44.3964C7.77705 44.1132 6.98891 44.2715 6.46805 44.7991C5.75981 45.5182 5.75981 46.6788 6.46805 47.4008ZM6.46805 19.2005C6.98889 19.7281 7.77708 19.8864 8.45773 19.6004C9.14117 19.3172 9.58764 18.6452 9.58764 17.9011C9.58764 17.1541 9.1412 16.4822 8.45773 16.199C7.77705 15.913 6.98891 16.0712 6.46805 16.5988C5.75981 17.318 5.75981 18.4813 6.46805 19.2005ZM30.7163 5.08905C31.2372 5.61663 32.0226 5.77489 32.706 5.49168C33.3894 5.20568 33.8359 4.53368 33.8359 3.78958C33.8359 3.04541 33.3895 2.37346 32.706 2.08749C32.0226 1.80426 31.2372 1.96254 30.7163 2.48733C30.0026 3.20648 30.0026 4.3726 30.7163 5.08905ZM54.9561 19.2005C55.477 19.7281 56.2624 19.8864 56.9458 19.6004C57.6292 19.3172 58.0757 18.6452 58.0757 17.9011C58.0757 17.1541 57.6293 16.4822 56.9458 16.199C56.2624 15.913 55.477 16.0712 54.9561 16.5988C54.2479 17.318 54.2479 18.4813 54.9561 19.2005ZM54.9561 47.4065C55.477 47.934 56.2624 48.0923 56.9458 47.8063C57.6292 47.5231 58.0757 46.8511 58.0757 46.107C58.0757 45.3601 57.6293 44.6881 56.9458 44.4049C56.2624 44.1189 55.477 44.2772 54.9561 44.8047C54.2479 45.5267 54.2479 46.6873 54.9561 47.4065ZM39.7663 31.0295C39.7002 28.8554 39.3364 26.7035 38.6861 24.632C36.881 25.4539 34.9382 25.9371 32.9595 26.0537V31.0295H39.7663ZM38.6667 39.3676C39.3143 37.2934 39.6781 35.1415 39.7442 32.9701H32.9374V37.946C34.9161 38.0626 36.8589 38.543 38.6667 39.3676ZM32.9374 46.3982C35.1531 45.879 36.8893 43.6327 37.9805 41.1725C36.3904 40.4422 34.6818 40.0118 32.9374 39.9007V46.3982ZM26.0313 41.1725C27.1116 43.6104 28.8533 45.8345 31.0111 46.3815V39.9062C29.2887 40.0229 27.6022 40.4505 26.0313 41.1725ZM24.2456 32.9616C24.3117 35.1358 24.6755 37.2877 25.3258 39.3591C27.1061 38.5456 29.0186 38.0652 30.9697 37.9374V32.9616H24.2456ZM25.3258 24.6235C24.6755 26.6977 24.3117 28.8496 24.2456 31.021H30.9891V26.0452C29.038 25.9174 27.1281 25.4371 25.3452 24.6235H25.3258ZM30.9697 17.6068C28.7816 18.1538 27.0675 20.3779 25.99 22.8159L25.9872 22.8186C27.5581 23.5406 29.2474 23.9682 30.9697 24.0848L30.9697 17.6068ZM37.3191 21.5247C36.1258 19.3922 34.5964 17.9705 32.9181 17.5929V24.0904H32.9153C34.6598 23.9765 36.3683 23.5462 37.9612 22.8186C37.7572 22.3633 37.5451 21.9301 37.3191 21.5247ZM24.317 21.894C23.7989 21.5636 23.3029 21.197 22.8343 20.7999C23.8788 19.9308 25.0362 19.2144 26.2763 18.6674C25.4964 19.6532 24.8434 20.7361 24.3308 21.8884L24.317 21.894ZM22.3411 31.0296C22.4127 28.5445 22.8454 26.0816 23.617 23.7215C22.8454 23.2578 22.1123 22.7303 21.4234 22.1443C19.1801 24.5768 17.8381 27.7144 17.6204 31.0298L22.3411 31.0296ZM23.617 40.2705C22.8454 37.9103 22.4127 35.4473 22.3411 32.9624H17.6341C17.8463 36.275 19.1856 39.4127 21.4234 41.8478C22.1068 41.2647 22.8343 40.7372 23.6032 40.2706L23.617 40.2705ZM26.2846 45.3186V45.3158C25.0445 44.7716 23.8843 44.0524 22.8426 43.1833C23.3166 42.7862 23.8154 42.4225 24.3363 42.0892C24.8488 43.2416 25.5047 44.3217 26.2846 45.3102V45.3186ZM32.0057 48.4451C26.9295 48.4479 22.143 46.071 19.0508 42.017C15.9561 37.9603 14.9143 32.6873 16.2234 27.7477C17.5352 22.8052 21.0543 18.7621 25.7418 16.8023C30.4294 14.8419 35.7562 15.1918 40.1521 17.7491C44.5503 20.3037 47.5159 24.7742 48.1798 29.8447C48.8439 34.9149 47.1298 40.0103 43.5418 43.6256C40.4884 46.7189 36.3352 48.4543 32.0057 48.4459V48.4451ZM39.6665 42.0976C40.1929 42.428 40.6972 42.7945 41.1767 43.1916C40.1322 44.0607 38.9748 44.7771 37.7347 45.3241C38.5146 44.3384 39.1677 43.2554 39.6803 42.1032L39.6665 42.0976ZM41.67 32.9619C41.5983 35.4471 41.1657 37.91 40.394 40.27C41.1657 40.7365 41.8987 41.264 42.5877 41.8472C44.8309 39.4148 46.173 36.2772 46.3907 32.9618L41.67 32.9619ZM40.394 23.7211C41.1657 26.0812 41.5983 28.5442 41.67 31.0291H46.3769C46.1647 27.7165 44.8254 24.5789 42.5877 22.1437C41.9042 22.7268 41.174 23.2544 40.4079 23.7209L40.394 23.7211ZM37.7265 18.673V18.6758C38.9666 19.22 40.1267 19.9391 41.1685 20.8083C40.6945 21.2053 40.1957 21.5691 39.6748 21.9023C39.1622 20.75 38.5064 19.6699 37.7265 18.6814V18.673ZM25.3169 3.74545V3.74823C21.5525 7.93547 16.5866 10.8399 11.1077 12.0508C10.5897 12.1702 10.2645 12.695 10.3858 13.2197C10.507 13.7445 11.0251 14.0694 11.5459 13.9472C17.3965 12.6477 22.7039 9.54893 26.7358 5.08382C26.9314 4.90056 27.0416 4.64233 27.0416 4.37021C27.0416 4.10087 26.9287 3.84264 26.7302 3.66216C26.5318 3.47889 26.2673 3.38726 25.9999 3.41225C25.7326 3.43447 25.4873 3.56775 25.3247 3.78155L25.3169 3.74545ZM38.7212 60.1708V60.1736C38.5586 60.3874 38.3106 60.5207 38.046 60.5457C37.7787 60.5679 37.5141 60.4763 37.3157 60.293C37.1173 60.1125 37.0043 59.8543 37.0043 59.5849C37.0015 59.3156 37.1145 59.0574 37.3102 58.8713C41.3364 54.4258 46.6304 51.3407 52.464 50.0442C52.9656 49.972 53.4341 50.3024 53.5415 50.8022C53.649 51.2992 53.3569 51.7962 52.8719 51.9407C47.4098 53.1485 42.4546 56.0363 38.693 60.2098L38.7212 60.1708ZM4.41409 23.7213C4.28457 23.2243 4.56291 22.7106 5.05068 22.5551C5.53846 22.3996 6.06207 22.6551 6.24119 23.1382C8.0545 28.9027 8.0545 35.0888 6.24119 40.8537C6.06206 41.3368 5.53846 41.5923 5.05068 41.4368C4.5629 41.2813 4.2846 40.7676 4.41409 40.2706C6.10063 34.8838 6.10063 29.108 4.41409 23.7213ZM59.5965 40.2703C59.7261 40.7673 59.4477 41.281 58.9599 41.4365C58.4722 41.592 57.9486 41.3365 57.7694 40.8534C55.9561 35.0889 55.9561 28.9028 57.7694 23.1379C57.9486 22.6548 58.4722 22.3993 58.9599 22.5548C59.4477 22.7103 59.726 23.224 59.5965 23.721C57.91 29.1078 57.91 34.8836 59.5965 40.2703ZM11.1085 51.9408C10.8604 51.8825 10.6427 51.727 10.5077 51.5076C10.3727 51.2882 10.3286 51.0245 10.3864 50.7717C10.5077 50.247 11.0258 49.9221 11.5466 50.0443C17.3972 51.3438 22.7046 54.4426 26.7364 58.9077C27.0423 59.3047 26.9927 59.874 26.6234 60.2127C26.2569 60.5542 25.692 60.5514 25.3255 60.2099C21.5528 56.031 16.5837 53.1404 11.1085 51.9408ZM52.9029 12.0508C47.4271 10.8485 42.461 7.958 38.6937 3.78171C38.3272 3.44017 37.7622 3.43739 37.3929 3.77893C37.0236 4.11768 36.9768 4.68688 37.2827 5.08395C41.3116 9.54885 46.6163 12.6451 52.4647 13.9473C52.9663 14.0195 53.4348 13.6891 53.5422 13.1893C53.6497 12.6923 53.3576 12.1953 52.8726 12.0508L52.9029 12.0508ZM44.7954 19.1092C48.1878 22.5273 50.0948 27.1616 50.0948 31.996C50.0948 36.8303 48.1878 41.4643 44.7954 44.8827C41.403 48.3011 36.8037 50.2223 32.0057 50.2223C27.2077 50.2223 22.6086 48.3008 19.2159 44.8827C15.8232 41.4646 13.9165 36.8303 13.9165 31.996C13.9165 27.1616 15.8235 22.5276 19.2159 19.1092C22.6056 15.6883 27.2077 13.7669 32.0057 13.7669C36.8037 13.7669 41.4056 15.6883 44.7954 19.1092ZM32.9644 11.8509C39.4268 12.1647 45.3408 15.6078 48.8379 21.0917L52.6271 18.8954C52.1311 17.0628 53.0598 15.1413 54.8014 14.4083C56.5403 13.678 58.5521 14.3611 59.4945 16.0049C60.4397 17.6487 60.0264 19.7451 58.53 20.9002C57.0336 22.0581 54.9171 21.9137 53.5861 20.567L49.7968 22.755C52.7593 28.5555 52.7593 35.4363 49.7968 41.2367L53.5778 43.4414C54.9061 42.092 57.0226 41.9448 58.5217 43.0999C60.0181 44.2522 60.437 46.3458 59.4945 47.9924C58.5521 49.639 56.5458 50.3248 54.8042 49.5973C53.0625 48.8699 52.1283 46.9511 52.6188 45.1185L48.8295 42.9138H48.8323C45.3325 48.3977 39.4211 51.8412 32.9589 52.1546V56.5612C34.7804 57.0472 35.9627 58.8215 35.7202 60.7068C35.4777 62.5894 33.8848 64 31.9971 64C30.1121 64 28.5193 62.5894 28.2768 60.7068C28.0343 58.8215 29.2165 57.0472 31.0382 56.5612V52.1546C24.5758 51.8409 18.6646 48.3977 15.1647 42.9138L11.3755 45.1185H11.3782C11.8688 46.9511 10.9346 48.8698 9.19286 49.5973C7.45115 50.3248 5.44221 49.639 4.5025 47.9924C3.56004 46.3458 3.97615 44.2522 5.4753 43.0999C6.97446 41.9448 9.08816 42.0919 10.4165 43.4414L14.2057 41.2367C11.2432 35.4361 11.2432 28.5554 14.2057 22.755L10.4165 20.5587C9.08816 21.9053 6.9717 22.0498 5.4753 20.8946C3.97614 19.7395 3.56279 17.6431 4.508 15.9966C5.45321 14.3527 7.46223 13.6697 9.20386 14.4027C10.9427 15.1357 11.8743 17.0545 11.3782 18.8871L15.1674 21.0834H15.1647C18.6645 15.5995 24.5758 12.1589 31.0381 11.8426V7.43597C29.2165 6.95005 28.0343 5.1785 28.2768 3.29316C28.5192 1.40781 30.1121 0 31.9971 0C33.8848 0 35.4777 1.40781 35.7201 3.29316C35.9626 5.1785 34.7804 6.95005 32.9588 7.43597L32.9644 11.8509Z" fill="white"/>
</svg>
