<svg width="64" height="64" viewBox="0 0 64 64" fill="none" xmlns="http://www.w3.org/2000/svg">
<path d="M32 60C16.56 60 4 47.44 4 32C4 16.56 16.56 4 32 4C47.44 4 60 16.56 60 32C60 47.44 47.44 60 32 60ZM32 8C18.76 8 8 18.76 8 32C8 45.24 18.76 56 32 56C45.24 56 56 45.24 56 32C56 18.76 45.24 8 32 8Z" fill="white"/>
<path d="M40 42C39.64 42 39.28 41.92 38.96 41.72L28.96 35.72C28.6652 35.5405 28.4218 35.2878 28.2536 34.9864C28.0853 34.685 27.998 34.3452 28 34V18C28 16.88 28.88 16 30 16C31.12 16 32 16.88 32 18V32.88L41.04 38.28C41.4123 38.5082 41.7001 38.8516 41.8598 39.2581C42.0194 39.6646 42.0421 40.1121 41.9245 40.5327C41.807 40.9533 41.5555 41.3241 41.2082 41.5888C40.8609 41.8536 40.4367 41.998 40 42Z" fill="white"/>
</svg>
