<svg width="64" height="64" viewBox="0 0 64 64" fill="none" xmlns="http://www.w3.org/2000/svg">
<g clip-path="url(#clip0_1557_5604)">
<path d="M41.9973 42C41.4019 39.7742 40.1102 37.7973 38.311 36.3579C36.5118 34.9186 34.2995 34.0924 31.9973 34C29.6952 34.0924 27.4828 34.9186 25.6837 36.3579C23.8845 37.7973 22.5928 39.7742 21.9973 42M44 11.2C47.653 13.3126 50.6875 16.347 52.8 20M52.8 44C50.6875 47.653 47.653 50.6874 44 52.8M20 52.8C16.347 50.6874 13.3126 47.653 11.2 44M11.2 20C13.3126 16.347 16.347 13.3126 20 11.2M25.9973 26C25.9805 26.7984 26.1232 27.5921 26.4171 28.3347C26.711 29.0772 27.1502 29.7536 27.7089 30.3242C28.2676 30.8948 28.9346 31.3481 29.6707 31.6576C30.4069 31.9671 31.1974 32.1265 31.996 32.1265C32.7946 32.1265 33.5851 31.9671 34.3213 31.6576C35.0575 31.3481 35.7244 30.8948 36.2831 30.3242C36.8418 29.7536 37.281 29.0772 37.5749 28.3347C37.8688 27.5921 38.0115 26.7984 37.9947 26C37.9616 24.431 37.3151 22.9373 36.1937 21.8394C35.0723 20.7414 33.5654 20.1265 31.996 20.1265C30.4266 20.1265 28.9197 20.7414 27.7983 21.8394C26.677 22.9373 26.0304 24.431 25.9973 26ZM26.9973 7C26.9973 8.32608 27.5241 9.59785 28.4618 10.5355C29.3995 11.4732 30.6713 12 31.9973 12C33.3234 12 34.5952 11.4732 35.5329 10.5355C36.4706 9.59785 36.9973 8.32608 36.9973 7C36.9973 5.67392 36.4706 4.40215 35.5329 3.46447C34.5952 2.52678 33.3234 2 31.9973 2C30.6713 2 29.3995 2.52678 28.4618 3.46447C27.5241 4.40215 26.9973 5.67392 26.9973 7ZM51.9973 32C51.9973 33.3261 52.5241 34.5979 53.4618 35.5355C54.3995 36.4732 55.6713 37 56.9973 37C58.3234 37 59.5952 36.4732 60.5329 35.5355C61.4706 34.5979 61.9973 33.3261 61.9973 32C61.9973 30.6739 61.4706 29.4021 60.5329 28.4645C59.5952 27.5268 58.3234 27 56.9973 27C55.6713 27 54.3995 27.5268 53.4618 28.4645C52.5241 29.4021 51.9973 30.6739 51.9973 32ZM26.9973 57C26.9973 58.3261 27.5241 59.5979 28.4618 60.5355C29.3995 61.4732 30.6713 62 31.9973 62C33.3234 62 34.5952 61.4732 35.5329 60.5355C36.4706 59.5979 36.9973 58.3261 36.9973 57C36.9973 55.6739 36.4706 54.4022 35.5329 53.4645C34.5952 52.5268 33.3234 52 31.9973 52C30.6713 52 29.3995 52.5268 28.4618 53.4645C27.5241 54.4022 26.9973 55.6739 26.9973 57ZM1.99734 32C1.99734 33.3261 2.52413 34.5979 3.46181 35.5355C4.39949 36.4732 5.67126 37 6.99735 37C8.32343 37 9.5952 36.4732 10.5329 35.5355C11.4706 34.5979 11.9973 33.3261 11.9973 32C11.9973 30.6739 11.4706 29.4021 10.5329 28.4645C9.5952 27.5268 8.32343 27 6.99735 27C5.67126 27 4.39949 27.5268 3.46181 28.4645C2.52413 29.4021 1.99734 30.6739 1.99734 32Z" stroke="white" stroke-width="3" stroke-linecap="round" stroke-linejoin="round"/>
</g>
<defs>
<clipPath id="clip0_1557_5604">
<rect width="64" height="64" fill="white"/>
</clipPath>
</defs>
</svg>
