<svg width="64" height="58" viewBox="0 0 64 58" fill="none" xmlns="http://www.w3.org/2000/svg">
<path fill-rule="evenodd" clip-rule="evenodd" d="M53.336 54.9863C54.0026 54.9863 54.5413 55.5322 54.5413 56.2018C54.5413 56.874 54.0026 57.4172 53.336 57.4172C52.672 57.4172 52.1307 56.874 52.1307 56.2018C52.1307 55.5322 52.672 54.9863 53.336 54.9863ZM56.4052 54.9863C57.0692 54.9863 57.6079 55.5322 57.6079 56.2018C57.6079 56.874 57.0692 57.4172 56.4052 57.4172C55.7386 57.4172 55.2 56.874 55.2 56.2018C55.2 55.5322 55.7386 54.9863 56.4052 54.9863ZM50.2694 54.9863C50.9334 54.9863 51.4747 55.5322 51.4747 56.2018C51.4747 56.874 50.9334 57.4172 50.2694 57.4172C49.6028 57.4172 49.0641 56.874 49.0641 56.2018C49.0641 55.5322 49.6028 54.9863 50.2694 54.9863ZM44.1923 55.0078C44.8536 55.0078 45.3896 55.5483 45.3896 56.2125C45.3896 56.8767 44.8536 57.4172 44.1923 57.4172C43.5337 57.4172 42.9977 56.8767 42.9977 56.2125C42.9977 55.5483 43.5337 55.0078 44.1923 55.0078ZM47.2482 55.0078C47.9069 55.0078 48.4429 55.5483 48.4429 56.2125C48.4429 56.8767 47.9069 57.4172 47.2482 57.4172C46.5869 57.4172 46.0509 56.8767 46.0509 56.2125C46.0509 55.5483 46.5869 55.0078 47.2482 55.0078ZM53.3361 51.754C54.0027 51.754 54.5413 52.2972 54.5413 52.9695C54.5413 53.639 54.0027 54.1822 53.3361 54.1822C52.6721 54.1822 52.1308 53.639 52.1308 52.9695C52.1308 52.2972 52.6721 51.754 53.3361 51.754ZM44.134 51.754C44.8007 51.754 45.3393 52.2972 45.3393 52.9695C45.3393 53.639 44.8006 54.1822 44.134 54.1822C43.47 54.1822 42.9287 53.639 42.9287 52.9695C42.9287 52.2972 43.4701 51.754 44.134 51.754ZM50.2698 51.754C50.9338 51.754 51.4751 52.2972 51.4751 52.9695C51.4751 53.639 50.9338 54.1822 50.2698 54.1822C49.6032 54.1822 49.0646 53.639 49.0646 52.9695C49.0646 52.2972 49.6032 51.754 50.2698 51.754ZM47.2033 51.754C47.8672 51.754 48.4059 52.2972 48.4059 52.9695C48.4059 53.639 47.8672 54.1822 47.2033 54.1822C46.5366 54.1822 45.998 53.639 45.998 52.9695C45.998 52.2972 46.5366 51.754 47.2033 51.754ZM56.4053 51.754C57.0693 51.754 57.6079 52.2972 57.6079 52.9695C57.6079 53.639 57.0693 54.1822 56.4053 54.1822C55.7387 54.1822 55.2 53.639 55.2 52.9695C55.2 52.2972 55.7387 51.754 56.4053 51.754ZM34.8993 51.7702C35.5579 51.7702 36.0939 52.3107 36.0939 52.9749C36.0939 53.6417 35.5579 54.1796 34.8993 54.1796C34.2406 54.1796 33.7046 53.6417 33.7046 52.9749C33.7046 52.3107 34.2406 51.7702 34.8993 51.7702ZM41.0057 51.7702C41.667 51.7702 42.203 52.3107 42.203 52.9749C42.203 53.6417 41.667 54.1796 41.0057 54.1796C40.3471 54.1796 39.8111 53.6417 39.8111 52.9749C39.8111 52.3107 40.3471 51.7702 41.0057 51.7702ZM31.8569 51.7702C32.5182 51.7702 33.0516 52.3107 33.0516 52.9749C33.0516 53.6417 32.5182 54.1796 31.8569 54.1796C31.1983 54.1796 30.6623 53.6417 30.6623 52.9749C30.6623 52.3107 31.1983 51.7702 31.8569 51.7702ZM59.7279 51.7702C60.3866 51.7702 60.9226 52.3107 60.9226 52.9749C60.9226 53.6417 60.3866 54.1796 59.7279 54.1796C59.0693 54.1796 58.5333 53.6417 58.5333 52.9749C58.5333 52.3107 59.0693 51.7702 59.7279 51.7702ZM28.8035 51.5039C29.4621 51.5039 29.9981 52.0417 29.9981 52.7086C29.9981 53.3728 29.4621 53.9133 28.8035 53.9133C28.1448 53.9133 27.6088 53.3728 27.6088 52.7086C27.6088 52.0417 28.1448 51.5039 28.8035 51.5039ZM38.0861 48.5567C38.7447 48.5567 39.2807 49.0972 39.2807 49.7614C39.2807 50.4283 38.7447 50.9662 38.0861 50.9662C37.4274 50.9662 36.8914 50.4283 36.8914 49.7614C36.8914 49.0972 37.4274 48.5567 38.0861 48.5567ZM25.6169 48.5567C26.2755 48.5567 26.8115 49.0972 26.8115 49.7614C26.8115 50.4283 26.2755 50.9662 25.6169 50.9662C24.9582 50.9662 24.4222 50.4283 24.4222 49.7614C24.4222 49.0972 24.9582 48.5567 25.6169 48.5567ZM62.7807 48.5567C63.442 48.5567 63.9754 49.0972 63.9754 49.7614C63.9754 50.4283 63.442 50.9662 62.7807 50.9662C62.1221 50.9662 61.5861 50.4283 61.5861 49.7614C61.5861 49.0972 62.1221 48.5567 62.7807 48.5567ZM41.0665 48.5191C41.7305 48.5191 42.2718 49.065 42.2718 49.7345C42.2718 50.4041 41.7304 50.95 41.0665 50.95C40.3998 50.95 39.8612 50.4041 39.8612 49.7345C39.8612 49.065 40.3999 48.5191 41.0665 48.5191ZM47.2023 48.5191C47.8663 48.5191 48.4049 49.065 48.4049 49.7345C48.4049 50.4041 47.8663 50.95 47.2023 50.95C46.5357 50.95 45.997 50.4041 45.997 49.7345C45.997 49.065 46.5357 48.5191 47.2023 48.5191ZM44.1331 48.5191C44.7997 48.5191 45.3383 49.065 45.3383 49.7345C45.3383 50.4041 44.7997 50.95 44.1331 50.95C43.4691 50.95 42.9278 50.4041 42.9278 49.7345C42.9278 49.065 43.4691 48.5191 44.1331 48.5191ZM59.61 48.5191C60.2766 48.5191 60.8153 49.065 60.8153 49.7345C60.8153 50.4041 60.2766 50.95 59.61 50.95C58.946 50.95 58.4047 50.4041 58.4047 49.7345C58.4047 49.065 58.946 48.5191 59.61 48.5191ZM50.2687 48.5191C50.9327 48.5191 51.4739 49.065 51.4739 49.7345C51.4739 50.4041 50.9326 50.95 50.2687 50.95C49.602 50.95 49.0634 50.4041 49.0634 49.7345C49.0634 49.065 49.602 48.5191 50.2687 48.5191ZM56.4045 48.5191C57.0685 48.5191 57.6071 49.065 57.6071 49.7345C57.6071 50.4041 57.0685 50.95 56.4045 50.95C55.7378 50.95 55.1992 50.4041 55.1992 49.7345C55.1992 49.065 55.7379 48.5191 56.4045 48.5191ZM34.9305 48.5191C35.5972 48.5191 36.1358 49.065 36.1358 49.7345C36.1358 50.4041 35.5972 50.95 34.9305 50.95C34.2666 50.95 33.7253 50.4041 33.7253 49.7345C33.7253 49.065 34.2666 48.5191 34.9305 48.5191ZM28.7974 48.5191C29.4614 48.5191 30 49.065 30 49.7345C30 50.4041 29.4613 50.95 28.7974 50.95C28.1307 50.95 27.5921 50.4041 27.5921 49.7345C27.5921 49.065 28.1308 48.5191 28.7974 48.5191ZM31.864 48.5191C32.5279 48.5191 33.0692 49.065 33.0692 49.7345C33.0692 50.4041 32.5279 50.95 31.864 50.95C31.1973 50.95 30.6587 50.4041 30.6587 49.7345C30.6587 49.065 31.1973 48.5191 31.864 48.5191ZM53.3352 48.5191C54.0018 48.5191 54.5405 49.065 54.5405 49.7345C54.5405 50.4041 54.0018 50.95 53.3352 50.95C52.6712 50.95 52.1299 50.4041 52.1299 49.7345C52.1299 49.065 52.6712 48.5191 53.3352 48.5191ZM22.5629 45.4777C23.2216 45.4777 23.7576 46.0182 23.7576 46.6824C23.7576 47.3466 23.2216 47.8871 22.5629 47.8871C21.9016 47.8871 21.3683 47.3466 21.3683 46.6824C21.3683 46.0182 21.9016 45.4777 22.5629 45.4777ZM62.7803 45.3433C63.4416 45.3433 63.9749 45.8838 63.9749 46.548C63.9749 47.2149 63.4416 47.7527 62.7803 47.7527C62.1216 47.7527 61.5856 47.2149 61.5856 46.548C61.5856 45.8838 62.1216 45.3433 62.7803 45.3433ZM34.9304 45.2734C35.597 45.2734 36.1357 45.8192 36.1357 46.4888C36.1357 47.1584 35.597 47.7043 34.9304 47.7043C34.2664 47.7043 33.7251 47.1584 33.7251 46.4888C33.7251 45.8192 34.2664 45.2734 34.9304 45.2734ZM47.2023 45.2734C47.8663 45.2734 48.4049 45.8192 48.4049 46.4888C48.4049 47.1584 47.8663 47.7043 47.2023 47.7043C46.5357 47.7043 45.997 47.1584 45.997 46.4888C45.997 45.8192 46.5357 45.2734 47.2023 45.2734ZM44.1331 45.2734C44.7997 45.2734 45.3383 45.8192 45.3383 46.4888C45.3383 47.1584 44.7997 47.7043 44.1331 47.7043C43.4691 47.7043 42.9278 47.1584 42.9278 46.4888C42.9278 45.8192 43.4691 45.2734 44.1331 45.2734ZM56.405 45.2734C57.0689 45.2734 57.6076 45.8192 57.6076 46.4888C57.6076 47.1584 57.0689 47.7043 56.405 47.7043C55.7383 47.7043 55.1997 47.1584 55.1997 46.4888C55.1997 45.8192 55.7383 45.2734 56.405 45.2734ZM38.0002 45.2734C38.6642 45.2734 39.2028 45.8192 39.2028 46.4888C39.2028 47.1584 38.6642 47.7043 38.0002 47.7043C37.3335 47.7043 36.7949 47.1584 36.7949 46.4888C36.7949 45.8192 37.3336 45.2734 38.0002 45.2734ZM59.61 45.2734C60.2766 45.2734 60.8153 45.8192 60.8153 46.4888C60.8153 47.1584 60.2766 47.7043 59.61 47.7043C58.946 47.7043 58.4047 47.1584 58.4047 46.4888C58.4047 45.8192 58.946 45.2734 59.61 45.2734ZM31.8639 45.2734C32.5279 45.2734 33.0692 45.8192 33.0692 46.4888C33.0692 47.1584 32.5279 47.7043 31.8639 47.7043C31.1972 47.7043 30.6586 47.1584 30.6586 46.4888C30.6586 45.8192 31.1973 45.2734 31.8639 45.2734ZM41.0659 45.2734C41.7299 45.2734 42.2712 45.8192 42.2712 46.4888C42.2712 47.1584 41.7299 47.7043 41.0659 47.7043C40.3993 47.7043 39.8607 47.1584 39.8607 46.4888C39.8607 45.8192 40.3993 45.2734 41.0659 45.2734ZM28.7968 45.2734C29.4607 45.2734 29.9994 45.8192 29.9994 46.4888C29.9994 47.1584 29.4607 47.7043 28.7968 47.7043C28.1301 47.7043 27.5915 47.1584 27.5915 46.4888C27.5915 45.8192 28.1301 45.2734 28.7968 45.2734ZM53.3344 45.2734C54.0011 45.2734 54.5397 45.8192 54.5397 46.4888C54.5397 47.1584 54.0011 47.7043 53.3344 47.7043C52.6704 47.7043 52.1292 47.1584 52.1292 46.4888C52.1292 45.8192 52.6705 45.2734 53.3344 45.2734ZM25.7276 45.2734C26.3942 45.2734 26.9329 45.8192 26.9329 46.4888C26.9329 47.1584 26.3942 47.7043 25.7276 47.7043C25.0636 47.7043 24.5223 47.1584 24.5223 46.4888C24.5223 45.8192 25.0636 45.2734 25.7276 45.2734ZM50.268 45.2734C50.932 45.2734 51.4733 45.8192 51.4733 46.4888C51.4733 47.1584 50.9319 47.7043 50.268 47.7043C49.6013 47.7043 49.0627 47.1584 49.0627 46.4888C49.0627 45.8192 49.6014 45.2734 50.268 45.2734ZM56.2758 42.1298C56.9344 42.1298 57.4704 42.6703 57.4704 43.3345C57.4704 44.0014 56.9344 44.5392 56.2758 44.5392C55.6145 44.5392 55.0785 44.0014 55.0785 43.3345C55.0785 42.6703 55.6145 42.1298 56.2758 42.1298ZM41.0658 42.0411C41.7298 42.0411 42.2711 42.5843 42.2711 43.2538C42.2711 43.9261 41.7298 44.4693 41.0658 44.4693C40.3992 44.4693 39.8605 43.9261 39.8605 43.2538C39.8605 42.5843 40.3992 42.0411 41.0658 42.0411ZM47.2016 42.0411C47.8656 42.0411 48.4042 42.5843 48.4042 43.2538C48.4042 43.9261 47.8656 44.4693 47.2016 44.4693C46.535 44.4693 45.9963 43.9261 45.9963 43.2538C45.9963 42.5843 46.535 42.0411 47.2016 42.0411ZM22.6612 42.0411C23.3252 42.0411 23.8665 42.5843 23.8665 43.2538C23.8665 43.9261 23.3252 44.4693 22.6612 44.4693C21.9946 44.4693 21.4559 43.9261 21.4559 43.2538C21.4559 42.5843 21.9946 42.0411 22.6612 42.0411ZM50.2681 42.0411C50.932 42.0411 51.4733 42.5843 51.4733 43.2538C51.4733 43.9261 50.932 44.4693 50.2681 44.4693C49.6014 44.4693 49.0628 43.9261 49.0628 43.2538C49.0628 42.5843 49.6014 42.0411 50.2681 42.0411ZM34.9297 42.0411C35.5964 42.0411 36.135 42.5843 36.135 43.2538C36.135 43.9261 35.5963 44.4693 34.9297 44.4693C34.2657 44.4693 33.7244 43.9261 33.7244 43.2538C33.7244 42.5843 34.2658 42.0411 34.9297 42.0411ZM28.7966 42.0411C29.4605 42.0411 29.9992 42.5843 29.9992 43.2538C29.9992 43.9261 29.4605 44.4693 28.7966 44.4693C28.1299 44.4693 27.5913 43.9261 27.5913 43.2538C27.5913 42.5843 28.1299 42.0411 28.7966 42.0411ZM25.7273 42.0411C26.394 42.0411 26.9326 42.5843 26.9326 43.2538C26.9326 43.9261 26.394 44.4693 25.7273 44.4693C25.0633 44.4693 24.522 43.9261 24.522 43.2538C24.522 42.5843 25.0634 42.0411 25.7273 42.0411ZM37.9992 42.0411C38.6632 42.0411 39.2018 42.5843 39.2018 43.2538C39.2018 43.9261 38.6632 44.4693 37.9992 44.4693C37.3326 44.4693 36.7939 43.9261 36.7939 43.2538C36.7939 42.5843 37.3326 42.0411 37.9992 42.0411ZM31.8634 42.0411C32.5274 42.0411 33.0687 42.5843 33.0687 43.2538C33.0687 43.9261 32.5274 44.4693 31.8634 44.4693C31.1968 44.4693 30.6581 43.9261 30.6581 43.2538C30.6581 42.5843 31.1968 42.0411 31.8634 42.0411ZM44.1326 42.0411C44.7992 42.0411 45.3379 42.5843 45.3379 43.2538C45.3379 43.9261 44.7992 44.4693 44.1326 44.4693C43.4686 44.4693 42.9273 43.9261 42.9273 43.2538C42.9273 42.5843 43.4686 42.0411 44.1326 42.0411ZM53.3346 42.0411C54.0013 42.0411 54.5399 42.5843 54.5399 43.2538C54.5399 43.9261 54.0013 44.4693 53.3346 44.4693C52.6707 44.4693 52.1294 43.9261 52.1294 43.2538C52.1294 42.5843 52.6707 42.0411 53.3346 42.0411ZM19.5089 41.9954C20.1676 41.9954 20.7035 42.5359 20.7035 43.2001C20.7035 43.867 20.1676 44.4075 19.5089 44.4075C18.8476 44.4075 18.3116 43.867 18.3116 43.2001C18.3116 42.5359 18.8476 41.9954 19.5089 41.9954ZM41.0655 38.8061C41.7294 38.8061 42.2707 39.3493 42.2707 40.0216C42.2707 40.6912 41.7294 41.237 41.0655 41.237C40.3988 41.237 39.8602 40.6912 39.8602 40.0216C39.8602 39.3493 40.3988 38.8061 41.0655 38.8061ZM53.3346 38.8061C54.0013 38.8061 54.5399 39.3493 54.5399 40.0216C54.5399 40.6912 54.0013 41.237 53.3346 41.237C52.6707 41.237 52.1294 40.6912 52.1294 40.0216C52.1294 39.3493 52.6707 38.8061 53.3346 38.8061ZM50.2681 38.8061C50.932 38.8061 51.4733 39.3493 51.4733 40.0216C51.4733 40.6912 50.932 41.237 50.2681 41.237C49.6014 41.237 49.0628 40.6912 49.0628 40.0216C49.0628 39.3493 49.6014 38.8061 50.2681 38.8061ZM44.1322 38.8061C44.7989 38.8061 45.3375 39.3493 45.3375 40.0216C45.3375 40.6912 44.7989 41.237 44.1322 41.237C43.4683 41.237 42.927 40.6912 42.927 40.0216C42.927 39.3493 43.4683 38.8061 44.1322 38.8061ZM34.9302 38.8061C35.5968 38.8061 36.1355 39.3493 36.1355 40.0216C36.1355 40.6912 35.5968 41.237 34.9302 41.237C34.2662 41.237 33.7249 40.6912 33.7249 40.0216C33.7249 39.3493 34.2662 38.8061 34.9302 38.8061ZM31.8636 38.8061C32.5276 38.8061 33.0689 39.3493 33.0689 40.0216C33.0689 40.6912 32.5276 41.237 31.8636 41.237C31.197 41.237 30.6583 40.6912 30.6583 40.0216C30.6583 39.3493 31.197 38.8061 31.8636 38.8061ZM47.202 38.8061C47.8659 38.8061 48.4046 39.3493 48.4046 40.0216C48.4046 40.6912 47.8659 41.237 47.202 41.237C46.5353 41.237 45.9967 40.6912 45.9967 40.0216C45.9967 39.3493 46.5353 38.8061 47.202 38.8061ZM22.6616 38.8061C23.3255 38.8061 23.8668 39.3493 23.8668 40.0216C23.8668 40.6912 23.3255 41.237 22.6616 41.237C21.9949 41.237 21.4563 40.6912 21.4563 40.0216C21.4563 39.3493 21.9949 38.8061 22.6616 38.8061ZM25.7281 38.8061C26.3948 38.8061 26.9334 39.3493 26.9334 40.0216C26.9334 40.6912 26.3948 41.237 25.7281 41.237C25.0642 41.237 24.5229 40.6912 24.5229 40.0216C24.5229 39.3493 25.0642 38.8061 25.7281 38.8061ZM19.5923 38.8061C20.259 38.8061 20.7976 39.3493 20.7976 40.0216C20.7976 40.6912 20.259 41.237 19.5923 41.237C18.9284 41.237 18.3897 40.6912 18.3897 40.0216C18.3897 39.3493 18.9284 38.8061 19.5923 38.8061ZM37.9998 38.8061C38.6638 38.8061 39.2025 39.3493 39.2025 40.0216C39.2025 40.6912 38.6638 41.237 37.9998 41.237C37.3332 41.237 36.7946 40.6912 36.7946 40.0216C36.7946 39.3493 37.3332 38.8061 37.9998 38.8061ZM28.7978 38.8061C29.4618 38.8061 30.0004 39.3493 30.0004 40.0216C30.0004 40.6912 29.4618 41.237 28.7978 41.237C28.1311 41.237 27.5925 40.6912 27.5925 40.0216C27.5925 39.3493 28.1312 38.8061 28.7978 38.8061ZM16.4542 38.7819C17.1155 38.7819 17.6488 39.3224 17.6488 39.9866C17.6488 40.6535 17.1155 41.194 16.4542 41.194C15.7956 41.194 15.2596 40.6535 15.2596 39.9866C15.2596 39.3224 15.7956 38.7819 16.4542 38.7819ZM16.5262 35.5712C17.1929 35.5712 17.7315 36.117 17.7315 36.7866C17.7315 37.4589 17.1928 38.002 16.5262 38.002C15.8622 38.002 15.3209 37.4589 15.3209 36.7866C15.3209 36.117 15.8623 35.5712 16.5262 35.5712ZM41.0666 35.5712C41.7306 35.5712 42.2719 36.117 42.2719 36.7866C42.2719 37.4589 41.7306 38.002 41.0666 38.002C40.4 38.002 39.8613 37.4589 39.8613 36.7866C39.8613 36.117 40.4 35.5712 41.0666 35.5712ZM44.1332 35.5712C44.7998 35.5712 45.3385 36.117 45.3385 36.7866C45.3385 37.4589 44.7998 38.002 44.1332 38.002C43.4692 38.002 42.9279 37.4589 42.9279 36.7866C42.9279 36.117 43.4692 35.5712 44.1332 35.5712ZM25.7284 35.5712C26.395 35.5712 26.9337 36.117 26.9337 36.7866C26.9337 37.4589 26.395 38.002 25.7284 38.002C25.0644 38.002 24.5231 37.4589 24.5231 36.7866C24.5231 36.117 25.0644 35.5712 25.7284 35.5712ZM47.2024 35.5712C47.8663 35.5712 48.405 36.117 48.405 36.7866C48.405 37.4589 47.8663 38.002 47.2024 38.002C46.5357 38.002 45.9971 37.4589 45.9971 36.7866C45.9971 36.117 46.5357 35.5712 47.2024 35.5712ZM53.3355 35.5712C54.0021 35.5712 54.5408 36.117 54.5408 36.7866C54.5408 37.4589 54.0021 38.002 53.3355 38.002C52.6715 38.002 52.1302 37.4589 52.1302 36.7866C52.1302 36.117 52.6715 35.5712 53.3355 35.5712ZM31.8643 35.5712C32.5283 35.5712 33.0696 36.117 33.0696 36.7866C33.0696 37.4589 32.5282 38.002 31.8643 38.002C31.1976 38.002 30.659 37.4589 30.659 36.7866C30.659 36.117 31.1977 35.5712 31.8643 35.5712ZM28.7977 35.5712C29.4617 35.5712 30.0003 36.117 30.0003 36.7866C30.0003 37.4589 29.4617 38.002 28.7977 38.002C28.1311 38.002 27.5924 37.4589 27.5924 36.7866C27.5924 36.117 28.1311 35.5712 28.7977 35.5712ZM50.2689 35.5712C50.9329 35.5712 51.4742 36.117 51.4742 36.7866C51.4742 37.4589 50.9329 38.002 50.2689 38.002C49.6023 38.002 49.0636 37.4589 49.0636 36.7866C49.0636 36.117 49.6023 35.5712 50.2689 35.5712ZM34.9306 35.5712C35.5972 35.5712 36.1359 36.117 36.1359 36.7866C36.1359 37.4589 35.5972 38.002 34.9306 38.002C34.2666 38.002 33.7253 37.4589 33.7253 36.7866C33.7253 36.117 34.2666 35.5712 34.9306 35.5712ZM37.9998 35.5712C38.6638 35.5712 39.2024 36.117 39.2024 36.7866C39.2024 37.4589 38.6638 38.002 37.9998 38.002C37.3332 38.002 36.7945 37.4589 36.7945 36.7866C36.7945 36.117 37.3332 35.5712 37.9998 35.5712ZM19.5923 35.5712C20.259 35.5712 20.7976 36.117 20.7976 36.7866C20.7976 37.4589 20.2589 38.002 19.5923 38.002C18.9283 38.002 18.3897 37.4589 18.3897 36.7866C18.3897 36.117 18.9283 35.5712 19.5923 35.5712ZM22.6615 35.5712C23.3255 35.5712 23.8668 36.117 23.8668 36.7866C23.8668 37.4589 23.3255 38.002 22.6615 38.002C21.9949 38.002 21.4563 37.4589 21.4563 36.7866C21.4563 36.117 21.9949 35.5712 22.6615 35.5712ZM13.4008 35.5685C14.0594 35.5685 14.5954 36.109 14.5954 36.7732C14.5954 37.4401 14.0594 37.9806 13.4008 37.9806C12.7421 37.9806 12.2062 37.4401 12.2062 36.7732C12.2062 36.109 12.7421 35.5685 13.4008 35.5685ZM10.3475 35.5685C11.0062 35.5685 11.5422 36.109 11.5422 36.7732C11.5422 37.4401 11.0062 37.9806 10.3475 37.9806C9.68888 37.9806 9.1529 37.4401 9.1529 36.7732C9.1529 36.109 9.68888 35.5685 10.3475 35.5685ZM53.3357 32.3389C54.0023 32.3389 54.541 32.8821 54.541 33.5543C54.541 34.2239 54.0023 34.7698 53.3357 34.7698C52.6717 34.7698 52.1304 34.2239 52.1304 33.5543C52.1304 32.8821 52.6717 32.3389 53.3357 32.3389ZM44.1337 32.3389C44.8003 32.3389 45.3389 32.8821 45.3389 33.5543C45.3389 34.2239 44.8003 34.7698 44.1337 34.7698C43.4697 34.7698 42.9284 34.2239 42.9284 33.5543C42.9284 32.8821 43.4697 32.3389 44.1337 32.3389ZM25.7289 32.3389C26.3955 32.3389 26.9342 32.8821 26.9342 33.5543C26.9342 34.2239 26.3955 34.7698 25.7289 34.7698C25.0649 34.7698 24.5236 34.2239 24.5236 33.5543C24.5236 32.8821 25.0649 32.3389 25.7289 32.3389ZM31.8647 32.3389C32.5287 32.3389 33.07 32.8821 33.07 33.5543C33.07 34.2239 32.5286 34.7698 31.8647 34.7698C31.198 34.7698 30.6594 34.2239 30.6594 33.5543C30.6594 32.8821 31.1981 32.3389 31.8647 32.3389ZM13.4599 32.3389C14.1239 32.3389 14.6652 32.8821 14.6652 33.5543C14.6652 34.2239 14.1239 34.7698 13.4599 34.7698C12.7933 34.7698 12.2546 34.2239 12.2546 33.5543C12.2546 32.8821 12.7933 32.3389 13.4599 32.3389ZM16.5265 32.3389C17.1931 32.3389 17.7318 32.8821 17.7318 33.5543C17.7318 34.2239 17.1931 34.7698 16.5265 34.7698C15.8625 34.7698 15.3212 34.2239 15.3212 33.5543C15.3212 32.8821 15.8625 32.3389 16.5265 32.3389ZM47.2032 32.3389C47.8671 32.3389 48.4058 32.8821 48.4058 33.5543C48.4058 34.2239 47.8671 34.7698 47.2032 34.7698C46.5365 34.7698 45.9979 34.2239 45.9979 33.5543C45.9979 32.8821 46.5365 32.3389 47.2032 32.3389ZM38.0011 32.3389C38.6651 32.3389 39.2037 32.8821 39.2037 33.5543C39.2037 34.2239 38.6651 34.7698 38.0011 34.7698C37.3345 34.7698 36.7958 34.2239 36.7958 33.5543C36.7958 32.8821 37.3345 32.3389 38.0011 32.3389ZM28.7991 32.3389C29.463 32.3389 30.0017 32.8821 30.0017 33.5543C30.0017 34.2239 29.463 34.7698 28.7991 34.7698C28.1324 34.7698 27.5938 34.2239 27.5938 33.5543C27.5938 32.8821 28.1324 32.3389 28.7991 32.3389ZM41.0682 32.3389C41.7322 32.3389 42.2735 32.8821 42.2735 33.5543C42.2735 34.2239 41.7322 34.7698 41.0682 34.7698C40.4016 34.7698 39.863 34.2239 39.863 33.5543C39.863 32.8821 40.4016 32.3389 41.0682 32.3389ZM50.2703 32.3389C50.9343 32.3389 51.4756 32.8821 51.4756 33.5543C51.4756 34.2239 50.9342 34.7698 50.2703 34.7698C49.6036 34.7698 49.065 34.2239 49.065 33.5543C49.065 32.8821 49.6037 32.3389 50.2703 32.3389ZM22.6635 32.3389C23.3274 32.3389 23.8687 32.8821 23.8687 33.5543C23.8687 34.2239 23.3274 34.7698 22.6635 34.7698C21.9968 34.7698 21.4582 34.2239 21.4582 33.5543C21.4582 32.8821 21.9968 32.3389 22.6635 32.3389ZM34.9326 32.3389C35.5993 32.3389 36.1379 32.8821 36.1379 33.5543C36.1379 34.2239 35.5993 34.7698 34.9326 34.7698C34.2687 34.7698 33.7274 34.2239 33.7274 33.5543C33.7274 32.8821 34.2687 32.3389 34.9326 32.3389ZM10.3922 32.3389C11.0589 32.3389 11.5975 32.8821 11.5975 33.5543C11.5975 34.2239 11.0589 34.7698 10.3922 34.7698C9.72826 34.7698 9.18963 34.2239 9.18963 33.5543C9.18963 32.8821 9.72827 32.3389 10.3922 32.3389ZM19.5943 32.3389C20.2609 32.3389 20.7996 32.8821 20.7996 33.5543C20.7996 34.2239 20.2609 34.7698 19.5943 34.7698C18.9303 34.7698 18.3917 34.2239 18.3917 33.5543C18.3917 32.8821 18.9303 32.3389 19.5943 32.3389ZM56.2782 32.355C56.9369 32.355 57.4729 32.8955 57.4729 33.5597C57.4729 34.2266 56.9369 34.7671 56.2782 34.7671C55.6169 34.7671 55.081 34.2266 55.081 33.5597C55.081 32.8955 55.6169 32.355 56.2782 32.355ZM53.3557 29.1416C54.0144 29.1416 54.5503 29.6821 54.5503 30.3463C54.5503 31.0132 54.0144 31.5537 53.3557 31.5537C52.6971 31.5537 52.1611 31.0131 52.1611 30.3463C52.1611 29.6821 52.6971 29.1416 53.3557 29.1416ZM16.5277 29.1039C17.1944 29.1039 17.733 29.6498 17.733 30.3194C17.733 30.9916 17.1943 31.5348 16.5277 31.5348C15.8637 31.5348 15.3224 30.9916 15.3224 30.3194C15.3224 29.6498 15.8638 29.1039 16.5277 29.1039ZM22.6635 29.1039C23.3275 29.1039 23.8688 29.6498 23.8688 30.3194C23.8688 30.9916 23.3275 31.5348 22.6635 31.5348C21.9969 31.5348 21.4583 30.9916 21.4583 30.3194C21.4583 29.6498 21.9969 29.1039 22.6635 29.1039ZM19.5943 29.1039C20.2609 29.1039 20.7996 29.6498 20.7996 30.3194C20.7996 30.9916 20.2609 31.5348 19.5943 31.5348C18.9303 31.5348 18.3917 30.9916 18.3917 30.3194C18.3917 29.6498 18.9303 29.1039 19.5943 29.1039ZM50.271 29.1039C50.935 29.1039 51.4762 29.6498 51.4762 30.3194C51.4762 30.9916 50.9349 31.5348 50.271 31.5348C49.6043 31.5348 49.0657 30.9916 49.0657 30.3194C49.0657 29.6498 49.6043 29.1039 50.271 29.1039ZM10.3922 29.1039C11.0589 29.1039 11.5975 29.6498 11.5975 30.3194C11.5975 30.9916 11.0589 31.5348 10.3922 31.5348C9.72826 31.5348 9.18963 30.9916 9.18963 30.3194C9.18963 29.6498 9.72827 29.1039 10.3922 29.1039ZM25.7306 29.1039C26.3972 29.1039 26.9359 29.6498 26.9359 30.3194C26.9359 30.9916 26.3972 31.5348 25.7306 31.5348C25.0666 31.5348 24.5253 30.9916 24.5253 30.3194C24.5253 29.6498 25.0666 29.1039 25.7306 29.1039ZM38.0025 29.1039C38.6665 29.1039 39.2051 29.6498 39.2051 30.3194C39.2051 30.9916 38.6665 31.5348 38.0025 31.5348C37.3358 31.5348 36.7972 30.9916 36.7972 30.3194C36.7972 29.6498 37.3359 29.1039 38.0025 29.1039ZM31.8667 29.1039C32.5307 29.1039 33.0719 29.6498 33.0719 30.3194C33.0719 30.9916 32.5306 31.5348 31.8667 31.5348C31.2 31.5348 30.6614 30.9916 30.6614 30.3194C30.6614 29.6498 31.2 29.1039 31.8667 29.1039ZM41.0687 29.1039C41.7327 29.1039 42.274 29.6498 42.274 30.3194C42.274 30.9916 41.7327 31.5348 41.0687 31.5348C40.4021 31.5348 39.8634 30.9916 39.8634 30.3194C39.8634 29.6498 40.4021 29.1039 41.0687 29.1039ZM44.1353 29.1039C44.8019 29.1039 45.3406 29.6498 45.3406 30.3194C45.3406 30.9916 44.8019 31.5348 44.1353 31.5348C43.4713 31.5348 42.93 30.9916 42.93 30.3194C42.93 29.6498 43.4713 29.1039 44.1353 29.1039ZM13.4613 29.1039C14.1253 29.1039 14.6666 29.6498 14.6666 30.3194C14.6666 30.9916 14.1253 31.5348 13.4613 31.5348C12.7947 31.5348 12.2561 30.9916 12.2561 30.3194C12.2561 29.6498 12.7947 29.1039 13.4613 29.1039ZM34.9326 29.1039C35.5992 29.1039 36.1378 29.6498 36.1378 30.3194C36.1378 30.9916 35.5992 31.5348 34.9326 31.5348C34.2686 31.5348 33.7273 30.9916 33.7273 30.3194C33.7273 29.6498 34.2686 29.1039 34.9326 29.1039ZM47.2045 29.1039C47.8684 29.1039 48.4071 29.6498 48.4071 30.3194C48.4071 30.9916 47.8684 31.5348 47.2045 31.5348C46.5378 31.5348 45.9992 30.9916 45.9992 30.3194C45.9992 29.6498 46.5378 29.1039 47.2045 29.1039ZM28.7997 29.1039C29.4637 29.1039 30.0023 29.6498 30.0023 30.3194C30.0023 30.9916 29.4637 31.5348 28.7997 31.5348C28.133 31.5348 27.5944 30.9916 27.5944 30.3194C27.5944 29.6498 28.1331 29.1039 28.7997 29.1039ZM53.3565 25.9281C54.0151 25.9281 54.5511 26.4686 54.5511 27.1328C54.5511 27.7997 54.0151 28.3402 53.3565 28.3402C52.6978 28.3402 52.1618 27.7997 52.1618 27.1328C52.1618 26.4686 52.6978 25.9281 53.3565 25.9281ZM7.29638 25.9281C7.95502 25.9281 8.49101 26.4686 8.49101 27.1328C8.49101 27.7997 7.95502 28.3402 7.29638 28.3402C6.63507 28.3402 6.09909 27.7997 6.09909 27.1328C6.09909 26.4686 6.63507 25.9281 7.29638 25.9281ZM22.6641 25.8716C23.3281 25.8716 23.8694 26.4148 23.8694 27.0844C23.8694 27.7567 23.328 28.2998 22.6641 28.2998C21.9974 28.2998 21.4588 27.7566 21.4588 27.0844C21.4588 26.4148 21.9974 25.8716 22.6641 25.8716ZM28.7999 25.8716C29.4639 25.8716 30.0025 26.4148 30.0025 27.0844C30.0025 27.7567 29.4639 28.2998 28.7999 28.2998C28.1332 28.2998 27.5946 27.7566 27.5946 27.0844C27.5946 26.4148 28.1333 25.8716 28.7999 25.8716ZM47.2047 25.8716C47.8686 25.8716 48.4073 26.4148 48.4073 27.0844C48.4073 27.7567 47.8686 28.2998 47.2047 28.2998C46.538 28.2998 45.9994 27.7566 45.9994 27.0844C45.9994 26.4148 46.538 25.8716 47.2047 25.8716ZM13.4615 25.8716C14.1255 25.8716 14.6668 26.4148 14.6668 27.0844C14.6668 27.7567 14.1255 28.2998 13.4615 28.2998C12.7949 28.2998 12.2563 27.7566 12.2563 27.0844C12.2563 26.4148 12.7949 25.8716 13.4615 25.8716ZM34.9328 25.8716C35.5994 25.8716 36.138 26.4148 36.138 27.0844C36.138 27.7567 35.5994 28.2998 34.9328 28.2998C34.2688 28.2998 33.7275 27.7566 33.7275 27.0844C33.7275 26.4148 34.2688 25.8716 34.9328 25.8716ZM44.1348 25.8716C44.8015 25.8716 45.3401 26.4148 45.3401 27.0844C45.3401 27.7567 44.8014 28.2998 44.1348 28.2998C43.4708 28.2998 42.9295 27.7566 42.9295 27.0844C42.9295 26.4148 43.4709 25.8716 44.1348 25.8716ZM41.0682 25.8716C41.7322 25.8716 42.2735 26.4148 42.2735 27.0844C42.2735 27.7567 41.7322 28.2998 41.0682 28.2998C40.4016 28.2998 39.863 27.7566 39.863 27.0844C39.863 26.4148 40.4016 25.8716 41.0682 25.8716ZM19.5943 25.8716C20.2609 25.8716 20.7996 26.4148 20.7996 27.0844C20.7996 27.7567 20.2609 28.2998 19.5943 28.2998C18.9303 28.2998 18.3917 27.7566 18.3917 27.0844C18.3917 26.4148 18.9303 25.8716 19.5943 25.8716ZM10.3922 25.8716C11.0589 25.8716 11.5975 26.4148 11.5975 27.0844C11.5975 27.7567 11.0589 28.2998 10.3922 28.2998C9.72826 28.2998 9.18963 27.7566 9.18963 27.0844C9.18963 26.4148 9.72827 25.8716 10.3922 25.8716ZM25.7306 25.8716C26.3972 25.8716 26.9359 26.4148 26.9359 27.0844C26.9359 27.7567 26.3972 28.2998 25.7306 28.2998C25.0666 28.2998 24.5253 27.7566 24.5253 27.0844C24.5253 26.4148 25.0666 25.8716 25.7306 25.8716ZM31.8664 25.8716C32.5304 25.8716 33.0717 26.4148 33.0717 27.0844C33.0717 27.7567 32.5304 28.2998 31.8664 28.2998C31.1998 28.2998 30.6611 27.7566 30.6611 27.0844C30.6611 26.4148 31.1998 25.8716 31.8664 25.8716ZM38.0022 25.8716C38.6662 25.8716 39.2048 26.4148 39.2048 27.0844C39.2048 27.7567 38.6662 28.2998 38.0022 28.2998C37.3356 28.2998 36.7969 27.7566 36.7969 27.0844C36.7969 26.4148 37.3356 25.8716 38.0022 25.8716ZM16.5283 25.8716C17.1949 25.8716 17.7335 26.4148 17.7335 27.0844C17.7335 27.7567 17.1949 28.2998 16.5283 28.2998C15.8643 28.2998 15.323 27.7566 15.323 27.0844C15.323 26.4148 15.8643 25.8716 16.5283 25.8716ZM50.2714 25.8716C50.9354 25.8716 51.4767 26.4148 51.4767 27.0844C51.4767 27.7567 50.9353 28.2998 50.2714 28.2998C49.6047 28.2998 49.0661 27.7566 49.0661 27.0844C49.0661 26.4148 49.6048 25.8716 50.2714 25.8716ZM16.5283 22.6367C17.1949 22.6367 17.7335 23.1826 17.7335 23.8521C17.7335 24.5217 17.1949 25.0676 16.5283 25.0676C15.8643 25.0676 15.323 24.5217 15.323 23.8521C15.323 23.1826 15.8643 22.6367 16.5283 22.6367ZM31.8666 22.6367C32.5306 22.6367 33.0719 23.1826 33.0719 23.8521C33.0719 24.5217 32.5306 25.0676 31.8666 25.0676C31.2 25.0676 30.6613 24.5217 30.6613 23.8521C30.6613 23.1826 31.2 22.6367 31.8666 22.6367ZM28.8 22.6367C29.464 22.6367 30.0026 23.1826 30.0026 23.8521C30.0026 24.5217 29.464 25.0676 28.8 25.0676C28.1334 25.0676 27.5947 24.5217 27.5947 23.8521C27.5947 23.1826 28.1334 22.6367 28.8 22.6367ZM19.5952 22.6367C20.2619 22.6367 20.8005 23.1826 20.8005 23.8521C20.8005 24.5217 20.2619 25.0676 19.5952 25.0676C18.9313 25.0676 18.3926 24.5217 18.3926 23.8521C18.3926 23.1826 18.9313 22.6367 19.5952 22.6367ZM13.4621 22.6367C14.1261 22.6367 14.6674 23.1826 14.6674 23.8521C14.6674 24.5217 14.1261 25.0676 13.4621 25.0676C12.7955 25.0676 12.2568 24.5217 12.2568 23.8521C12.2568 23.1826 12.7955 22.6367 13.4621 22.6367ZM34.9333 22.6367C35.6 22.6367 36.1386 23.1826 36.1386 23.8521C36.1386 24.5217 35.5999 25.0676 34.9333 25.0676C34.2693 25.0676 33.728 24.5217 33.728 23.8521C33.728 23.1826 34.2694 22.6367 34.9333 22.6367ZM25.7313 22.6367C26.3979 22.6367 26.9365 23.1826 26.9365 23.8521C26.9365 24.5217 26.3979 25.0676 25.7313 25.0676C25.0673 25.0676 24.526 24.5217 24.526 23.8521C24.526 23.1826 25.0673 22.6367 25.7313 22.6367ZM4.26004 22.6367C4.92402 22.6367 5.46532 23.1826 5.46532 23.8521C5.46532 24.5217 4.924 25.0676 4.26004 25.0676C3.5934 25.0676 3.05477 24.5217 3.05477 23.8521C3.05477 23.1826 3.59341 22.6367 4.26004 22.6367ZM7.32662 22.6367C7.99326 22.6367 8.5319 23.1826 8.5319 23.8521C8.5319 24.5217 7.99325 25.0676 7.32662 25.0676C6.66264 25.0676 6.12134 24.5217 6.12134 23.8521C6.12134 23.1826 6.66266 22.6367 7.32662 22.6367ZM38.0033 22.6367C38.6673 22.6367 39.2059 23.1826 39.2059 23.8521C39.2059 24.5217 38.6673 25.0676 38.0033 25.0676C37.3367 25.0676 36.798 24.5217 36.798 23.8521C36.798 23.1826 37.3367 22.6367 38.0033 22.6367ZM41.0699 22.6367C41.7339 22.6367 42.2752 23.1826 42.2752 23.8521C42.2752 24.5217 41.7338 25.0676 41.0699 25.0676C40.4032 25.0676 39.8646 24.5217 39.8646 23.8521C39.8646 23.1826 40.4032 22.6367 41.0699 22.6367ZM10.3932 22.6367C11.0598 22.6367 11.5985 23.1826 11.5985 23.8521C11.5985 24.5217 11.0598 25.0676 10.3932 25.0676C9.72921 25.0676 9.19058 24.5217 9.19058 23.8521C9.19058 23.1826 9.72923 22.6367 10.3932 22.6367ZM50.2719 22.6367C50.9359 22.6367 51.4772 23.1826 51.4772 23.8521C51.4772 24.5217 50.9359 25.0676 50.2719 25.0676C49.6053 25.0676 49.0667 24.5217 49.0667 23.8521C49.0667 23.1826 49.6053 22.6367 50.2719 22.6367ZM22.6651 22.6367C23.3291 22.6367 23.8704 23.1826 23.8704 23.8521C23.8704 24.5217 23.3291 25.0676 22.6651 25.0676C21.9985 25.0676 21.4598 24.5217 21.4598 23.8521C21.4598 23.1826 21.9985 22.6367 22.6651 22.6367ZM47.2055 22.6367C47.8695 22.6367 48.4081 23.1826 48.4081 23.8521C48.4081 24.5217 47.8695 25.0676 47.2055 25.0676C46.5388 25.0676 46.0002 24.5217 46.0002 23.8521C46.0002 23.1826 46.5389 22.6367 47.2055 22.6367ZM44.1362 22.6367C44.8029 22.6367 45.3415 23.1826 45.3415 23.8521C45.3415 24.5217 44.8029 25.0676 44.1362 25.0676C43.4723 25.0676 42.931 24.5217 42.931 23.8521C42.931 23.1826 43.4723 22.6367 44.1362 22.6367ZM47.2055 19.4017C47.8695 19.4017 48.4081 19.9476 48.4081 20.6172C48.4081 21.2895 47.8695 21.8326 47.2055 21.8326C46.5388 21.8326 46.0002 21.2894 46.0002 20.6172C46.0002 19.9476 46.5389 19.4017 47.2055 19.4017ZM19.5959 19.4017C20.2626 19.4017 20.8012 19.9476 20.8012 20.6172C20.8012 21.2895 20.2626 21.8326 19.5959 21.8326C18.9319 21.8326 18.3933 21.2894 18.3933 20.6172C18.3933 19.9476 18.932 19.4017 19.5959 19.4017ZM41.0699 19.4017C41.7339 19.4017 42.2752 19.9476 42.2752 20.6172C42.2752 21.2895 41.7338 21.8326 41.0699 21.8326C40.4032 21.8326 39.8646 21.2894 39.8646 20.6172C39.8646 19.9476 40.4032 19.4017 41.0699 19.4017ZM22.6651 19.4017C23.3291 19.4017 23.8704 19.9476 23.8704 20.6172C23.8704 21.2895 23.3291 21.8326 22.6651 21.8326C21.9985 21.8326 21.4598 21.2894 21.4598 20.6172C21.4598 19.9476 21.9985 19.4017 22.6651 19.4017ZM25.7317 19.4017C26.3983 19.4017 26.937 19.9476 26.937 20.6172C26.937 21.2895 26.3983 21.8326 25.7317 21.8326C25.0677 21.8326 24.5264 21.2894 24.5264 20.6172C24.5264 19.9476 25.0677 19.4017 25.7317 19.4017ZM44.1365 19.4017C44.8031 19.4017 45.3417 19.9476 45.3417 20.6172C45.3417 21.2895 44.8031 21.8326 44.1365 21.8326C43.4725 21.8326 42.9312 21.2894 42.9312 20.6172C42.9312 19.9476 43.4725 19.4017 44.1365 19.4017ZM38.0033 19.4017C38.6673 19.4017 39.2059 19.9476 39.2059 20.6172C39.2059 21.2895 38.6673 21.8326 38.0033 21.8326C37.3367 21.8326 36.798 21.2894 36.798 20.6172C36.798 19.9476 37.3367 19.4017 38.0033 19.4017ZM50.2725 19.4017C50.9365 19.4017 51.4778 19.9476 51.4778 20.6172C51.4778 21.2895 50.9364 21.8326 50.2725 21.8326C49.6058 21.8326 49.0672 21.2894 49.0672 20.6172C49.0672 19.9476 49.6058 19.4017 50.2725 19.4017ZM13.4629 19.4017C14.1269 19.4017 14.6682 19.9476 14.6682 20.6172C14.6682 21.2895 14.1269 21.8326 13.4629 21.8326C12.7963 21.8326 12.2576 21.2894 12.2576 20.6172C12.2576 19.9476 12.7963 19.4017 13.4629 19.4017ZM16.5295 19.4017C17.1961 19.4017 17.7348 19.9476 17.7348 20.6172C17.7348 21.2895 17.1961 21.8326 16.5295 21.8326C15.8655 21.8326 15.3242 21.2894 15.3242 20.6172C15.3242 19.9476 15.8655 19.4017 16.5295 19.4017ZM28.8014 19.4017C29.4654 19.4017 30.004 19.9476 30.004 20.6172C30.004 21.2895 29.4654 21.8326 28.8014 21.8326C28.1347 21.8326 27.5961 21.2894 27.5961 20.6172C27.5961 19.9476 28.1348 19.4017 28.8014 19.4017ZM10.3939 19.4017C11.0605 19.4017 11.5992 19.9476 11.5992 20.6172C11.5992 21.2895 11.0605 21.8326 10.3939 21.8326C9.7299 21.8326 9.19126 21.2894 9.19126 20.6172C9.19126 19.9476 9.72991 19.4017 10.3939 19.4017ZM34.9343 19.4017C35.6009 19.4017 36.1395 19.9476 36.1395 20.6172C36.1395 21.2895 35.6009 21.8326 34.9343 21.8326C34.2703 21.8326 33.729 21.2894 33.729 20.6172C33.729 19.9476 34.2703 19.4017 34.9343 19.4017ZM4.26032 19.4017C4.9243 19.4017 5.46559 19.9476 5.46559 20.6172C5.46559 21.2895 4.92428 21.8326 4.26032 21.8326C3.59367 21.8326 3.05504 21.2894 3.05504 20.6172C3.05504 19.9476 3.59369 19.4017 4.26032 19.4017ZM31.8671 19.4017C32.5311 19.4017 33.0724 19.9476 33.0724 20.6172C33.0724 21.2895 32.5311 21.8326 31.8671 21.8326C31.2005 21.8326 30.6619 21.2894 30.6619 20.6172C30.6619 19.9476 31.2005 19.4017 31.8671 19.4017ZM7.32676 19.4017C7.9934 19.4017 8.53203 19.9476 8.53203 20.6172C8.53203 21.2895 7.99339 21.8326 7.32676 21.8326C6.66278 21.8326 6.12148 21.2894 6.12148 20.6172C6.12148 19.9476 6.6628 19.4017 7.32676 19.4017ZM22.6651 16.1695C23.3291 16.1695 23.8704 16.7127 23.8704 17.3849C23.8704 18.0545 23.3291 18.6004 22.6651 18.6004C21.9985 18.6004 21.4598 18.0545 21.4598 17.3849C21.4598 16.7127 21.9985 16.1695 22.6651 16.1695ZM31.8671 16.1695C32.5311 16.1695 33.0724 16.7127 33.0724 17.3849C33.0724 18.0545 32.5311 18.6004 31.8671 18.6004C31.2005 18.6004 30.6619 18.0545 30.6619 17.3849C30.6619 16.7127 31.2005 16.1695 31.8671 16.1695ZM44.1363 16.1695C44.803 16.1695 45.3416 16.7127 45.3416 17.3849C45.3416 18.0545 44.8029 18.6004 44.1363 18.6004C43.4723 18.6004 42.931 18.0545 42.931 17.3849C42.931 16.7127 43.4724 16.1695 44.1363 16.1695ZM41.0697 16.1695C41.7337 16.1695 42.275 16.7127 42.275 17.3849C42.275 18.0545 41.7337 18.6004 41.0697 18.6004C40.4031 18.6004 39.8645 18.0545 39.8645 17.3849C39.8645 16.7127 40.4031 16.1695 41.0697 16.1695ZM34.9339 16.1695C35.6006 16.1695 36.1392 16.7127 36.1392 17.3849C36.1392 18.0545 35.6006 18.6004 34.9339 18.6004C34.2699 18.6004 33.7286 18.0545 33.7286 17.3849C33.7286 16.7127 34.27 16.1695 34.9339 16.1695ZM25.7319 16.1695C26.3985 16.1695 26.9372 16.7127 26.9372 17.3849C26.9372 18.0545 26.3985 18.6004 25.7319 18.6004C25.0679 18.6004 24.5266 18.0545 24.5266 17.3849C24.5266 16.7127 25.0679 16.1695 25.7319 16.1695ZM7.3271 16.1695C7.99374 16.1695 8.53237 16.7127 8.53237 17.3849C8.53237 18.0545 7.99373 18.6004 7.3271 18.6004C6.66312 18.6004 6.12182 18.0545 6.12182 17.3849C6.12182 16.7127 6.66314 16.1695 7.3271 16.1695ZM16.5291 16.1695C17.1958 16.1695 17.7344 16.7127 17.7344 17.3849C17.7344 18.0545 17.1958 18.6004 16.5291 18.6004C15.8652 18.6004 15.3239 18.0545 15.3239 17.3849C15.3239 16.7127 15.8652 16.1695 16.5291 16.1695ZM19.5957 16.1695C20.2624 16.1695 20.801 16.7127 20.801 17.3849C20.801 18.0545 20.2624 18.6004 19.5957 18.6004C18.9317 18.6004 18.3931 18.0545 18.3931 17.3849C18.3931 16.7127 18.9318 16.1695 19.5957 16.1695ZM10.3937 16.1695C11.0603 16.1695 11.599 16.7127 11.599 17.3849C11.599 18.0545 11.0603 18.6004 10.3937 18.6004C9.72969 18.6004 9.19106 18.0545 9.19106 17.3849C9.19106 16.7127 9.72971 16.1695 10.3937 16.1695ZM13.4629 16.1695C14.1269 16.1695 14.6682 16.7127 14.6682 17.3849C14.6682 18.0545 14.1269 18.6004 13.4629 18.6004C12.7963 18.6004 12.2576 18.0545 12.2576 17.3849C12.2576 16.7127 12.7963 16.1695 13.4629 16.1695ZM50.2725 16.1695C50.9365 16.1695 51.4778 16.7127 51.4778 17.3849C51.4778 18.0545 50.9364 18.6004 50.2725 18.6004C49.6058 18.6004 49.0672 18.0545 49.0672 17.3849C49.0672 16.7127 49.6058 16.1695 50.2725 16.1695ZM38.0033 16.1695C38.6673 16.1695 39.2059 16.7127 39.2059 17.3849C39.2059 18.0545 38.6673 18.6004 38.0033 18.6004C37.3367 18.6004 36.798 18.0545 36.798 17.3849C36.798 16.7127 37.3367 16.1695 38.0033 16.1695ZM28.8013 16.1695C29.4652 16.1695 30.0039 16.7127 30.0039 17.3849C30.0039 18.0545 29.4652 18.6004 28.8013 18.6004C28.1346 18.6004 27.596 18.0545 27.596 17.3849C27.596 16.7127 28.1346 16.1695 28.8013 16.1695ZM47.206 16.1695C47.87 16.1695 48.4086 16.7127 48.4086 17.3849C48.4086 18.0545 47.87 18.6004 47.206 18.6004C46.5394 18.6004 46.0008 18.0545 46.0008 17.3849C46.0008 16.7127 46.5394 16.1695 47.206 16.1695ZM53.3578 16.1533C54.0165 16.1533 54.5525 16.6939 54.5525 17.3607C54.5525 18.0249 54.0165 18.5654 53.3578 18.5654C52.6992 18.5654 52.1632 18.0249 52.1632 17.3607C52.1632 16.6938 52.6992 16.1533 53.3578 16.1533ZM4.24223 16.1533C4.90354 16.1533 5.43952 16.6939 5.43952 17.3607C5.43952 18.0249 4.90353 18.5654 4.24223 18.5654C3.58358 18.5654 3.0476 18.0249 3.0476 17.3607C3.0476 16.6938 3.58358 16.1533 4.24223 16.1533ZM38.0038 12.9345C38.6678 12.9345 39.2064 13.4804 39.2064 14.15C39.2064 14.8222 38.6677 15.3654 38.0038 15.3654C37.3371 15.3654 36.7985 14.8222 36.7985 14.15C36.7985 13.4804 37.3372 12.9345 38.0038 12.9345ZM31.868 12.9345C32.5319 12.9345 33.0732 13.4804 33.0732 14.15C33.0732 14.8222 32.5319 15.3654 31.868 15.3654C31.2013 15.3654 30.6627 14.8222 30.6627 14.15C30.6627 13.4804 31.2013 12.9345 31.868 12.9345ZM7.32758 12.9345C7.99422 12.9345 8.53285 13.4804 8.53285 14.15C8.53285 14.8222 7.99421 15.3654 7.32758 15.3654C6.66359 15.3654 6.1223 14.8222 6.1223 14.15C6.1223 13.4804 6.66362 12.9345 7.32758 12.9345ZM28.8015 12.9345C29.4655 12.9345 30.0041 13.4804 30.0041 14.15C30.0041 14.8222 29.4655 15.3654 28.8015 15.3654C28.1349 15.3654 27.5962 14.8222 27.5962 14.15C27.5962 13.4804 28.1349 12.9345 28.8015 12.9345ZM16.5296 12.9345C17.1963 12.9345 17.7349 13.4804 17.7349 14.15C17.7349 14.8222 17.1963 15.3654 16.5296 15.3654C15.8656 15.3654 15.3243 14.8222 15.3243 14.15C15.3243 13.4804 15.8657 12.9345 16.5296 12.9345ZM41.07 12.9345C41.734 12.9345 42.2753 13.4804 42.2753 14.15C42.2753 14.8222 41.734 15.3654 41.07 15.3654C40.4034 15.3654 39.8647 14.8222 39.8647 14.15C39.8647 13.4804 40.4034 12.9345 41.07 12.9345ZM50.2721 12.9345C50.936 12.9345 51.4773 13.4804 51.4773 14.15C51.4773 14.8222 50.936 15.3654 50.2721 15.3654C49.6054 15.3654 49.0668 14.8222 49.0668 14.15C49.0668 13.4804 49.6054 12.9345 50.2721 12.9345ZM44.1362 12.9345C44.8029 12.9345 45.3415 13.4804 45.3415 14.15C45.3415 14.8222 44.8029 15.3654 44.1362 15.3654C43.4723 15.3654 42.931 14.8222 42.931 14.15C42.931 13.4804 43.4723 12.9345 44.1362 12.9345ZM25.7315 12.9345C26.3981 12.9345 26.9367 13.4804 26.9367 14.15C26.9367 14.8222 26.3981 15.3654 25.7315 15.3654C25.0675 15.3654 24.5262 14.8222 24.5262 14.15C24.5262 13.4804 25.0675 12.9345 25.7315 12.9345ZM22.6649 12.9345C23.3289 12.9345 23.8702 13.4804 23.8702 14.15C23.8702 14.8222 23.3289 15.3654 22.6649 15.3654C21.9982 15.3654 21.4596 14.8222 21.4596 14.15C21.4596 13.4804 21.9983 12.9345 22.6649 12.9345ZM13.4628 12.9345C14.1268 12.9345 14.6681 13.4804 14.6681 14.15C14.6681 14.8222 14.1268 15.3654 13.4628 15.3654C12.7962 15.3654 12.2576 14.8222 12.2576 14.15C12.2576 13.4804 12.7962 12.9345 13.4628 12.9345ZM10.3936 12.9345C11.0602 12.9345 11.5989 13.4804 11.5989 14.15C11.5989 14.8222 11.0602 15.3654 10.3936 15.3654C9.72962 15.3654 9.19099 14.8222 9.19099 14.15C9.19099 13.4804 9.72964 12.9345 10.3936 12.9345ZM47.2059 12.9345C47.8699 12.9345 48.4085 13.4804 48.4085 14.15C48.4085 14.8222 47.8699 15.3654 47.2059 15.3654C46.5392 15.3654 46.0006 14.8222 46.0006 14.15C46.0006 13.4804 46.5393 12.9345 47.2059 12.9345ZM34.934 12.9345C35.6006 12.9345 36.1393 13.4804 36.1393 14.15C36.1393 14.8222 35.6006 15.3654 34.934 15.3654C34.27 15.3654 33.7287 14.8222 33.7287 14.15C33.7287 13.4804 34.27 12.9345 34.934 12.9345ZM19.5957 12.9345C20.2623 12.9345 20.8009 13.4804 20.8009 14.15C20.8009 14.8222 20.2623 15.3654 19.5957 15.3654C18.9317 15.3654 18.393 14.8222 18.393 14.15C18.393 13.4804 18.9317 12.9345 19.5957 12.9345ZM53.3572 12.9399C54.0159 12.9399 54.5518 13.4804 54.5518 14.1473C54.5518 14.8115 54.0159 15.352 53.3572 15.352C52.6986 15.352 52.1626 14.8115 52.1626 14.1473C52.1626 13.4804 52.6986 12.9399 53.3572 12.9399ZM4.24161 12.9399C4.90292 12.9399 5.4389 13.4804 5.4389 14.1473C5.4389 14.8115 4.90292 15.352 4.24161 15.352C3.58297 15.352 3.04698 14.8115 3.04698 14.1473C3.04698 13.4804 3.58297 12.9399 4.24161 12.9399ZM47.251 9.72642C47.9096 9.72642 48.4456 10.2669 48.4456 10.9311C48.4456 11.598 47.9096 12.1385 47.251 12.1385C46.5896 12.1385 46.0537 11.598 46.0537 10.9311C46.0537 10.2669 46.5896 9.72642 47.251 9.72642ZM4.26004 9.70222C4.92402 9.70222 5.46532 10.2454 5.46532 10.9177C5.46532 11.5872 4.924 12.1304 4.26004 12.1304C3.5934 12.1304 3.05477 11.5872 3.05477 10.9177C3.05477 10.2454 3.59341 9.70222 4.26004 9.70222ZM7.32662 9.70222C7.99326 9.70222 8.5319 10.2454 8.5319 10.9177C8.5319 11.5872 7.99325 12.1304 7.32662 12.1304C6.66264 12.1304 6.12134 11.5872 6.12134 10.9177C6.12134 10.2454 6.66266 9.70222 7.32662 9.70222ZM44.1362 9.70222C44.8028 9.70222 45.3415 10.2454 45.3415 10.9177C45.3415 11.5872 44.8028 12.1304 44.1362 12.1304C43.4722 12.1304 42.9309 11.5872 42.9309 10.9177C42.9309 10.2454 43.4722 9.70222 44.1362 9.70222ZM38.003 9.70222C38.667 9.70222 39.2056 10.2454 39.2056 10.9177C39.2056 11.5872 38.667 12.1304 38.003 12.1304C37.3364 12.1304 36.7978 11.5872 36.7978 10.9177C36.7978 10.2454 37.3364 9.70222 38.003 9.70222ZM13.4626 9.70222C14.1266 9.70222 14.6679 10.2454 14.6679 10.9177C14.6679 11.5872 14.1266 12.1304 13.4626 12.1304C12.796 12.1304 12.2574 11.5872 12.2574 10.9177C12.2574 10.2454 12.796 9.70222 13.4626 9.70222ZM41.0695 9.70222C41.7335 9.70222 42.2747 10.2454 42.2747 10.9177C42.2747 11.5872 41.7334 12.1304 41.0695 12.1304C40.4028 12.1304 39.8642 11.5872 39.8642 10.9177C39.8642 10.2454 40.4028 9.70222 41.0695 9.70222ZM10.3928 9.70222C11.0594 9.70222 11.5981 10.2454 11.5981 10.9177C11.5981 11.5872 11.0594 12.1304 10.3928 12.1304C9.7288 12.1304 9.19017 11.5872 9.19017 10.9177C9.19017 10.2454 9.72882 9.70222 10.3928 9.70222ZM34.9332 9.70222C35.5998 9.70222 36.1385 10.2454 36.1385 10.9177C36.1385 11.5872 35.5998 12.1304 34.9332 12.1304C34.2692 12.1304 33.7279 11.5872 33.7279 10.9177C33.7279 10.2454 34.2692 9.70222 34.9332 9.70222ZM16.4642 9.59466C17.1229 9.59466 17.6589 10.1325 17.6589 10.7994C17.6589 11.4636 17.1229 12.0041 16.4642 12.0041C15.8029 12.0041 15.2696 11.4636 15.2696 10.7994C15.2696 10.1325 15.8029 9.59466 16.4642 9.59466ZM31.8585 9.59466C32.5199 9.59466 33.0532 10.1325 33.0532 10.7994C33.0532 11.4636 32.5199 12.0041 31.8585 12.0041C31.1999 12.0041 30.6639 11.4636 30.6639 10.7994C30.6639 10.1325 31.1999 9.59466 31.8585 9.59466ZM7.32566 6.46724C7.99231 6.46724 8.53094 7.01312 8.53094 7.68268C8.53094 8.35227 7.99229 8.89813 7.32566 8.89813C6.66168 8.89813 6.12039 8.35225 6.12039 7.68268C6.12039 7.0131 6.6617 6.46724 7.32566 6.46724ZM4.25909 6.46724C4.92307 6.46724 5.46437 7.01312 5.46437 7.68268C5.46437 8.35227 4.92305 8.89813 4.25909 8.89813C3.59244 8.89813 3.05381 8.35225 3.05381 7.68268C3.05381 7.0131 3.59246 6.46724 4.25909 6.46724ZM10.3922 6.46724C11.0589 6.46724 11.5975 7.01312 11.5975 7.68268C11.5975 8.35227 11.0589 8.89813 10.3922 8.89813C9.72826 8.89813 9.18963 8.35225 9.18963 7.68268C9.18963 7.0131 9.72827 6.46724 10.3922 6.46724ZM1.19497 6.38119C1.85361 6.38119 2.3896 6.919 2.3896 7.5859C2.3896 8.25009 1.85361 8.7906 1.19497 8.7906C0.533657 8.7906 0.000341298 8.25009 0.000341298 7.5859C0.000341298 6.919 0.533657 6.38119 1.19497 6.38119ZM13.4109 6.38119C14.0695 6.38119 14.6055 6.919 14.6055 7.5859C14.6055 8.25009 14.0695 8.7906 13.4109 8.7906C12.7496 8.7906 12.2136 8.25009 12.2136 7.5859C12.2136 6.919 12.7496 6.38119 13.4109 6.38119ZM34.9115 6.38119C35.5728 6.38119 36.1088 6.919 36.1088 7.5859C36.1088 8.25009 35.5728 8.7906 34.9115 8.7906C34.2528 8.7906 33.7168 8.25009 33.7168 7.5859C33.7168 6.919 34.2528 6.38119 34.9115 6.38119ZM37.9674 6.38119C38.626 6.38119 39.162 6.919 39.162 7.5859C39.162 8.25009 38.626 8.7906 37.9674 8.7906C37.3061 8.7906 36.7728 8.25009 36.7728 7.5859C36.7728 6.919 37.3061 6.38119 37.9674 6.38119ZM41.154 6.38119C41.8126 6.38119 42.3486 6.919 42.3486 7.5859C42.3486 8.25009 41.8126 8.7906 41.154 8.7906C40.4927 8.7906 39.9594 8.25009 39.9594 7.5859C39.9594 6.919 40.4927 6.38119 41.154 6.38119ZM4.25909 3.23229C4.92307 3.23229 5.46437 3.77818 5.46437 4.44774C5.46437 5.12001 4.92305 5.66318 4.25909 5.66318C3.59244 5.66318 3.05381 5.11999 3.05381 4.44774C3.05381 3.77816 3.59246 3.23229 4.25909 3.23229ZM10.3922 3.23229C11.0589 3.23229 11.5975 3.77818 11.5975 4.44774C11.5975 5.12001 11.0589 5.66318 10.3922 5.66318C9.72826 5.66318 9.18963 5.11999 9.18963 4.44774C9.18963 3.77816 9.72827 3.23229 10.3922 3.23229ZM1.19497 3.16776C1.85361 3.16776 2.3896 3.70557 2.3896 4.37246C2.3896 5.03666 1.85361 5.57717 1.19497 5.57717C0.533657 5.57717 0.000341298 5.03666 0.000341298 4.37246C0.000341298 3.70557 0.533657 3.16776 1.19497 3.16776ZM7.30143 3.16776C7.96007 3.16776 8.49606 3.70557 8.49606 4.37246C8.49606 5.03666 7.96007 5.57717 7.30143 5.57717C6.64279 5.57717 6.1068 5.03666 6.1068 4.37246C6.1068 3.70557 6.64279 3.16776 7.30143 3.16776ZM13.4106 3.16776C14.0692 3.16776 14.6052 3.70557 14.6052 4.37246C14.6052 5.03666 14.0692 5.57717 13.4106 5.57717C12.7492 5.57717 12.2133 5.03666 12.2133 4.37246C12.2133 3.70557 12.7492 3.16776 13.4106 3.16776ZM1.19463 0C1.85327 0 2.38926 0.540507 2.38926 1.20471C2.38926 1.86891 1.85327 2.40941 1.19463 2.40941C0.533316 2.40941 0 1.86891 0 1.20471C0 0.540507 0.533316 0 1.19463 0ZM10.224 0C10.8826 0 11.4186 0.540507 11.4186 1.20471C11.4186 1.86891 10.8826 2.40941 10.224 2.40941C9.56266 2.40941 9.02668 1.86891 9.02668 1.20471C9.02668 0.540507 9.56266 0 10.224 0Z" fill="white"/>
</svg>
