<svg width="24" height="24" viewBox="0 0 24 24" fill="none" xmlns="http://www.w3.org/2000/svg">
<path d="M9.56988 5.17988C9.75988 5.17988 9.94988 5.24988 10.0999 5.39988C10.3899 5.68988 10.3899 6.16988 10.0999 6.45988L4.55988 11.9999L10.0999 17.5399C10.3899 17.8299 10.3899 18.3099 10.0999 18.5999C9.80988 18.8899 9.32988 18.8899 9.03988 18.5999L2.96988 12.5299C2.67988 12.2399 2.67988 11.7599 2.96988 11.4699L9.03988 5.39988C9.18988 5.24988 9.37988 5.17988 9.56988 5.17988Z" fill="white"/>
<path d="M3.67 11.25L20.5 11.25C20.91 11.25 21.25 11.59 21.25 12C21.25 12.41 20.91 12.75 20.5 12.75L3.67 12.75C3.26 12.75 2.92 12.41 2.92 12C2.92 11.59 3.26 11.25 3.67 11.25Z" fill="white"/>
</svg>
