<svg width="32" height="32" viewBox="0 0 32 32" fill="none" xmlns="http://www.w3.org/2000/svg">
<path d="M23.4934 14.3335C22.9201 14.3335 22.4667 13.8668 22.4667 13.3068C22.4667 12.8135 21.9734 11.7868 21.1467 10.8935C20.3334 10.0268 19.4401 9.52013 18.6934 9.52013C18.1201 9.52013 17.6667 9.05346 17.6667 8.49346C17.6667 7.93346 18.1334 7.4668 18.6934 7.4668C20.0267 7.4668 21.4267 8.1868 22.6534 9.48013C23.8001 10.6935 24.5334 12.2001 24.5334 13.2935C24.5334 13.8668 24.0668 14.3335 23.4934 14.3335Z" fill="white"/>
<path d="M28.3066 14.3332C27.7333 14.3332 27.2799 13.8665 27.2799 13.3065C27.2799 8.57317 23.4266 4.73317 18.7066 4.73317C18.1333 4.73317 17.6799 4.2665 17.6799 3.7065C17.6799 3.1465 18.1333 2.6665 18.6933 2.6665C24.5599 2.6665 29.3333 7.43984 29.3333 13.3065C29.3333 13.8665 28.8666 14.3332 28.3066 14.3332Z" fill="white"/>
<path d="M14.7334 19.9332L12.2667 22.3998C11.7467 22.9198 10.9201 22.9198 10.3867 22.4132C10.2401 22.2665 10.0934 22.1332 9.94675 21.9865C8.57341 20.5998 7.33341 19.1465 6.22675 17.6265C5.13341 16.1065 4.25341 14.5865 3.61341 13.0798C2.98675 11.5598 2.66675 10.1065 2.66675 8.71984C2.66675 7.81317 2.82675 6.9465 3.14675 6.1465C3.46675 5.33317 3.97341 4.5865 4.68008 3.91984C5.53341 3.07984 6.46675 2.6665 7.45341 2.6665C7.82675 2.6665 8.20008 2.7465 8.53341 2.9065C8.88008 3.0665 9.18675 3.3065 9.42675 3.65317L12.5201 8.01317C12.7601 8.3465 12.9334 8.65317 13.0534 8.9465C13.1734 9.2265 13.2401 9.5065 13.2401 9.75984C13.2401 10.0798 13.1467 10.3998 12.9601 10.7065C12.7867 11.0132 12.5334 11.3332 12.2134 11.6532L11.2001 12.7065C11.0534 12.8532 10.9867 13.0265 10.9867 13.2398C10.9867 13.3465 11.0001 13.4398 11.0267 13.5465C11.0667 13.6532 11.1067 13.7332 11.1334 13.8132C11.3734 14.2532 11.7867 14.8265 12.3734 15.5198C12.9734 16.2132 13.6134 16.9198 14.3067 17.6265C14.4401 17.7598 14.5867 17.8932 14.7201 18.0265C15.2534 18.5465 15.2667 19.3998 14.7334 19.9332Z" fill="white"/>
<path d="M29.2934 24.4402C29.2934 24.8135 29.2267 25.2002 29.0934 25.5735C29.0534 25.6802 29.0134 25.7869 28.96 25.8935C28.7334 26.3735 28.4401 26.8269 28.0534 27.2535C27.4001 27.9735 26.68 28.4936 25.8667 28.8269C25.8534 28.8269 25.84 28.8402 25.8267 28.8402C25.04 29.1602 24.1867 29.3335 23.2667 29.3335C21.9067 29.3335 20.4534 29.0135 18.92 28.3602C17.3867 27.7069 15.8534 26.8269 14.3334 25.7202C13.8134 25.3336 13.2934 24.9469 12.8 24.5335L17.16 20.1735C17.5334 20.4535 17.8667 20.6669 18.1467 20.8135C18.2134 20.8402 18.2934 20.8802 18.3867 20.9202C18.4934 20.9602 18.6 20.9735 18.72 20.9735C18.9467 20.9735 19.12 20.8935 19.2667 20.7469L20.28 19.7469C20.6134 19.4135 20.9334 19.1602 21.24 19.0002C21.5467 18.8135 21.8534 18.7202 22.1867 18.7202C22.44 18.7202 22.7067 18.7735 23 18.8935C23.2934 19.0135 23.6 19.1869 23.9334 19.4135L28.3467 22.5469C28.6934 22.7869 28.9334 23.0669 29.08 23.4002C29.2134 23.7335 29.2934 24.0669 29.2934 24.4402Z" fill="white"/>
</svg>
