<svg width="27" height="27" viewBox="0 0 27 27" fill="none" xmlns="http://www.w3.org/2000/svg">
<path d="M14.7048 0C16.2048 0.004 16.9661 0.012 17.6234 0.0306667L17.8821 0.04C18.1808 0.0506666 18.4754 0.0639999 18.8314 0.0799999C20.2501 0.146667 21.2181 0.370667 22.0674 0.7C22.9474 1.03867 23.6888 1.49733 24.4301 2.23733C25.1084 2.90364 25.633 3.70996 25.9674 4.6C26.2968 5.44933 26.5208 6.41733 26.5874 7.83733C26.6034 8.192 26.6168 8.48667 26.6274 8.78667L26.6354 9.04533C26.6554 9.70133 26.6634 10.4627 26.6661 11.9627L26.6674 12.9573V14.704C26.6707 15.6765 26.6604 16.6491 26.6368 17.6213L26.6288 17.88C26.6181 18.18 26.6048 18.4747 26.5888 18.8293C26.5221 20.2493 26.2954 21.216 25.9674 22.0667C25.633 22.9567 25.1084 23.763 24.4301 24.4293C23.7638 25.1076 22.9575 25.6322 22.0674 25.9667C21.2181 26.296 20.2501 26.52 18.8314 26.5867L17.8821 26.6267L17.6234 26.6347C16.9661 26.6533 16.2048 26.6627 14.7048 26.6653L13.7101 26.6667H11.9648C10.9918 26.6701 10.0188 26.6599 9.04609 26.636L8.78743 26.628C8.47091 26.616 8.15446 26.6022 7.83809 26.5867C6.41943 26.52 5.45143 26.296 4.60076 25.9667C3.7112 25.6321 2.90535 25.1074 2.23942 24.4293C1.56069 23.7632 1.03557 22.9568 0.700759 22.0667C0.371425 21.2173 0.147425 20.2493 0.0807583 18.8293L0.0407584 17.88L0.0340919 17.6213C0.00951325 16.6491 -0.00159906 15.6766 0.000758396 14.704V11.9627C-0.00293213 10.9901 0.00684669 10.0176 0.0300918 9.04533L0.0394251 8.78667C0.0500918 8.48667 0.0634251 8.192 0.0794251 7.83733C0.146092 6.41733 0.370092 5.45067 0.699425 4.6C1.03502 3.7096 1.56106 2.90325 2.24076 2.23733C2.9063 1.5594 3.71168 1.03476 4.60076 0.7C5.45143 0.370667 6.41809 0.146667 7.83809 0.0799999C8.19276 0.0639999 8.48876 0.0506666 8.78743 0.04L9.04609 0.0319999C10.0183 0.00831028 10.9909 -0.00191293 11.9634 0.00133324L14.7048 0ZM13.3341 6.66667C11.566 6.66667 9.87029 7.36905 8.62005 8.61929C7.3698 9.86953 6.66743 11.5652 6.66743 13.3333C6.66743 15.1014 7.3698 16.7971 8.62005 18.0474C9.87029 19.2976 11.566 20 13.3341 20C15.1022 20 16.7979 19.2976 18.0481 18.0474C19.2984 16.7971 20.0008 15.1014 20.0008 13.3333C20.0008 11.5652 19.2984 9.86953 18.0481 8.61929C16.7979 7.36905 15.1022 6.66667 13.3341 6.66667ZM13.3341 9.33333C13.8594 9.33325 14.3795 9.43662 14.8649 9.63756C15.3502 9.8385 15.7912 10.1331 16.1627 10.5044C16.5342 10.8758 16.8289 11.3167 17.03 11.802C17.2311 12.2873 17.3347 12.8074 17.3348 13.3327C17.3348 13.858 17.2315 14.3781 17.0305 14.8635C16.8296 15.3488 16.535 15.7898 16.1637 16.1613C15.7923 16.5328 15.3514 16.8275 14.8661 17.0286C14.3808 17.2297 13.8607 17.3332 13.3354 17.3333C12.2746 17.3333 11.2571 16.9119 10.507 16.1618C9.75685 15.4116 9.33543 14.3942 9.33543 13.3333C9.33543 12.2725 9.75685 11.2551 10.507 10.5049C11.2571 9.75476 12.2746 9.33333 13.3354 9.33333M20.3354 4.66667C19.8934 4.66667 19.4695 4.84226 19.1569 5.15482C18.8444 5.46738 18.6688 5.89131 18.6688 6.33333C18.6688 6.77536 18.8444 7.19928 19.1569 7.51184C19.4695 7.82441 19.8934 8 20.3354 8C20.7775 8 21.2014 7.82441 21.5139 7.51184C21.8265 7.19928 22.0021 6.77536 22.0021 6.33333C22.0021 5.89131 21.8265 5.46738 21.5139 5.15482C21.2014 4.84226 20.7775 4.66667 20.3354 4.66667Z" fill="white"/>
</svg>
