<svg width="27" height="26" viewBox="0 0 27 26" fill="none" xmlns="http://www.w3.org/2000/svg">
<path d="M26.612 15.5907V25.4293H20.908V16.2493C20.908 13.9427 20.0827 12.3693 18.0187 12.3693C16.4427 12.3693 15.504 13.4307 15.092 14.456C14.9413 14.8227 14.9027 15.3333 14.9027 15.8467V25.4293H9.196C9.196 25.4293 9.27333 9.88267 9.196 8.27067H14.9027V10.7027L14.8653 10.7587H14.9027V10.7027C15.66 9.536 17.0133 7.868 20.044 7.868C23.7973 7.868 26.612 10.3213 26.612 15.5907ZM3.228 0C1.27733 0 0 1.28 0 2.964C0 4.61067 1.24 5.92933 3.15333 5.92933H3.19067C5.18133 5.92933 6.41733 4.61067 6.41733 2.964C6.38267 1.28 5.18133 0 3.228 0ZM0.338667 25.4293H6.04267V8.27067H0.338667V25.4293Z" fill="white"/>
</svg>
