<svg width="32" height="32" viewBox="0 0 32 32" fill="none" xmlns="http://www.w3.org/2000/svg">
<path d="M22.6667 4.6665H9.33342C5.33341 4.6665 2.66675 6.6665 2.66675 11.3332V20.6665C2.66675 25.3332 5.33341 27.3332 9.33342 27.3332H22.6667C26.6667 27.3332 29.3334 25.3332 29.3334 20.6665V11.3332C29.3334 6.6665 26.6667 4.6665 22.6667 4.6665ZM23.2934 12.7865L19.1201 16.1198C18.2401 16.8265 17.1201 17.1732 16.0001 17.1732C14.8801 17.1732 13.7467 16.8265 12.8801 16.1198L8.70675 12.7865C8.28008 12.4398 8.21341 11.7998 8.54675 11.3732C8.89341 10.9465 9.52008 10.8665 9.94675 11.2132L14.1201 14.5465C15.1334 15.3598 16.8534 15.3598 17.8667 14.5465L22.0401 11.2132C22.4667 10.8665 23.1067 10.9332 23.4401 11.3732C23.7867 11.7998 23.7201 12.4398 23.2934 12.7865Z" fill="white"/>
</svg>
