<svg width="32" height="32" viewBox="0 0 32 32" fill="none" xmlns="http://www.w3.org/2000/svg">
<path d="M15.9998 30.3334C8.09317 30.3334 1.6665 23.9067 1.6665 16.0001C1.6665 8.09342 8.09317 1.66675 15.9998 1.66675C23.9065 1.66675 30.3332 8.09342 30.3332 16.0001C30.3332 23.9067 23.9065 30.3334 15.9998 30.3334ZM15.9998 3.66675C9.19984 3.66675 3.6665 9.20008 3.6665 16.0001C3.6665 22.8001 9.19984 28.3334 15.9998 28.3334C22.7998 28.3334 28.3332 22.8001 28.3332 16.0001C28.3332 9.20008 22.7998 3.66675 15.9998 3.66675Z" fill="white"/>
<path d="M14.1064 20.7732C13.8398 20.7732 13.5864 20.6666 13.3998 20.4799L9.62643 16.7066C9.23976 16.3199 9.23976 15.6799 9.62643 15.2932C10.0131 14.9066 10.6531 14.9066 11.0398 15.2932L14.1064 18.3599L20.9598 11.5066C21.3464 11.1199 21.9864 11.1199 22.3731 11.5066C22.7598 11.8932 22.7598 12.5332 22.3731 12.9199L14.8131 20.4799C14.6264 20.6666 14.3731 20.7732 14.1064 20.7732Z" fill="white"/>
</svg>
