<svg width="26" height="23" viewBox="0 0 26 23" fill="none" xmlns="http://www.w3.org/2000/svg">
<path d="M2.12344 1.31252C2.36484 1.28447 2.60932 1.32293 2.83046 1.42374C3.05159 1.52455 3.24096 1.68389 3.3781 1.88452C5.34611 4.76319 7.70877 5.96052 10.3314 6.23252C10.4594 5.11119 10.7621 4.00319 11.3314 3.02719C12.1661 1.59519 13.5234 0.541857 15.4621 0.152523C18.1421 -0.386143 20.1821 0.584523 21.3648 1.77252L23.7541 1.32586C24.0041 1.27901 24.2623 1.30466 24.4983 1.39979C24.7342 1.49491 24.938 1.65554 25.0856 1.86272C25.2332 2.0699 25.3184 2.31497 25.3313 2.56903C25.3441 2.82308 25.2841 3.07551 25.1581 3.29652L22.8648 7.32586C23.0741 13.1405 21.4581 17.1992 18.0128 19.9952C16.1861 21.4779 13.5701 22.3192 10.6994 22.5792C7.80611 22.8405 4.53544 22.5245 1.28477 21.5752C1.00703 21.4942 0.763172 21.325 0.590006 21.0932C0.41684 20.8615 0.32376 20.5797 0.324813 20.2903C0.325867 20.001 0.420997 19.7199 0.595847 19.4894C0.770697 19.2589 1.01578 19.0915 1.29411 19.0125C2.92877 18.5472 4.17411 18.1459 5.29811 17.4432C3.69944 16.5952 2.52211 15.4859 1.68877 14.2219C0.531439 12.4645 0.102105 10.5045 0.0167717 8.73786C-0.0685617 6.97119 0.186105 5.33386 0.455438 4.15386C0.608772 3.48052 0.787438 2.80586 1.03411 2.16052C1.12111 1.93304 1.26877 1.73374 1.46104 1.58425C1.65332 1.43475 1.88153 1.34078 2.12344 1.31252Z" fill="white"/>
</svg>
