<svg width="78" height="72" viewBox="0 0 78 72" fill="none" xmlns="http://www.w3.org/2000/svg">
<path d="M72.4718 29.3752C72.1494 13.1258 58.7574 0 42.3271 0H35.0263C18.5977 0 5.20309 13.1266 4.88155 29.3803C2.09258 30.0023 0 32.4783 0 35.4378V49.2838C0 52.7193 2.80358 55.5148 6.2511 55.5148H10.2084C11.474 55.5148 12.5022 54.493 12.5022 53.2345V31.5043C12.5022 30.5867 11.9502 29.7972 11.1584 29.4358C11.4482 16.5988 22.04 6.24122 35.0263 6.24122H42.3271C55.3133 6.24122 65.9061 16.5988 66.1941 29.4358C65.4048 29.7972 64.852 30.5867 64.852 31.5043V53.2345C64.852 54.493 65.8811 55.5148 67.1466 55.5148H68.3176C67.6126 61.5006 62.3855 66.2219 56.2229 66.2219H44.6595V66.1936C53.2156 62.7864 62.1765 55.2406 62.1765 46.3115V19.4311C62.1765 19.1474 62.0467 18.8792 61.8223 18.7014C61.5979 18.5246 61.3074 18.4605 61.0271 18.5229C53.489 20.2598 45.3456 18.6664 39.2372 14.2647C38.9079 14.028 38.4643 14.028 38.1359 14.2638C32.0155 18.663 23.8678 20.2547 16.3452 18.5229C16.0658 18.4605 15.7735 18.5246 15.5499 18.7014C15.3255 18.8792 15.1949 19.1474 15.1949 19.4311V46.3115C15.1949 55.2508 24.1619 62.8009 32.7136 66.2013V69.8137C32.7136 71.0183 33.7014 72 34.9154 72H42.4569C43.67 72 44.6595 71.0192 44.6595 69.8137V68.0861H56.2229C63.4068 68.0861 69.4851 62.5224 70.1978 55.5148H71.122C74.5687 55.5148 77.3731 52.7201 77.3731 49.2838V35.4378C77.3731 32.4723 75.2702 29.9903 72.4718 29.3752ZM17.0734 46.3115V20.5802C24.6553 22.0139 32.4342 20.4273 38.6861 16.1605C44.8461 20.3649 52.7977 21.9857 60.3015 20.5794V46.3115C60.3015 53.953 52.3197 61.0631 44.179 64.3781C43.7749 63.8749 43.1576 63.5451 42.4578 63.5451H34.9162C34.2147 63.5451 33.594 63.8766 33.1907 64.3832C25.0534 61.0759 17.0734 53.9607 17.0734 46.3115ZM42.7827 69.8137C42.7827 69.9811 42.628 70.1349 42.4578 70.1349H34.9162C34.7374 70.1349 34.5921 69.9905 34.5921 69.8137V65.7143C34.5921 65.5401 34.7314 65.4102 34.9162 65.4102H42.4578C42.616 65.4102 42.7509 65.5307 42.7742 65.675C42.7759 65.6956 42.7793 65.7178 42.7827 65.7391V69.8137ZM10.6254 53.2345C10.6254 53.46 10.4345 53.6497 10.2084 53.6497H6.2511C3.83784 53.6497 1.87593 51.6898 1.87593 49.2838V35.4378C1.87593 33.0404 3.83784 31.0908 6.2511 31.0908H10.2084C10.4354 31.0908 10.6254 31.2804 10.6254 31.5043V53.2345ZM42.3271 4.37612H35.0263C21.0754 4.37612 9.68916 15.4557 9.28938 29.2265H6.7635C7.16413 14.0733 19.6827 1.86596 35.0263 1.86596H42.3271C57.6707 1.86596 70.1901 14.0733 70.5907 29.2265H68.0648C67.6642 15.4557 56.2779 4.37612 42.3271 4.37612ZM75.4972 49.2838C75.4972 51.6898 73.5336 53.6497 71.122 53.6497H67.1466C66.9197 53.6497 66.7288 53.4592 66.7288 53.2345V31.5043C66.7288 31.2796 66.9205 31.0908 67.1466 31.0908H71.122C73.5336 31.0908 75.4972 33.0404 75.4972 35.4378V49.2838ZM33.9894 54.323C34.9265 54.323 35.8078 53.9607 36.4706 53.3028C36.6159 53.1593 36.7414 53.0098 36.836 52.8756L54.3925 31.1292C54.9806 30.3979 55.2488 29.4905 55.15 28.5729C55.0511 27.6502 54.5911 26.8206 53.8552 26.2353C53.2371 25.7466 52.4616 25.4758 51.6698 25.4758C50.6003 25.4758 49.6099 25.9491 48.9539 26.7693L33.7057 45.6536L28.1673 40.1506C27.5045 39.4927 26.6258 39.1304 25.693 39.1304C24.7585 39.1304 23.8799 39.4935 23.217 40.1506C22.555 40.8101 22.1905 41.6833 22.1905 42.6103C22.1905 43.5382 22.5559 44.4113 23.2187 45.0701L31.516 53.296C32.1694 53.959 33.0472 54.323 33.9894 54.323ZM24.0656 42.6095C24.0656 42.1814 24.2367 41.7739 24.5444 41.4689C24.8522 41.163 25.2606 40.9947 25.693 40.9947C26.1246 40.9947 26.5321 41.1621 26.8391 41.4689L33.1194 47.7084C33.3077 47.8963 33.5682 47.9929 33.8338 47.9809C34.1003 47.9655 34.3497 47.8391 34.5139 47.6323L50.4189 27.933C50.9476 27.2743 52.0128 27.1589 52.6843 27.6912C53.0256 27.9629 53.2396 28.3456 53.2844 28.7711C53.3316 29.1975 53.2035 29.6187 52.9284 29.9621L35.3401 51.7513C35.2782 51.8359 35.2171 51.911 35.1432 51.9837C34.5311 52.5946 33.4607 52.6048 32.8477 51.9828L24.5444 43.7483C24.2367 43.445 24.0656 43.0392 24.0656 42.6095Z" fill="white"/>
</svg>
