<svg width="76" height="76" viewBox="0 0 76 76" fill="none" xmlns="http://www.w3.org/2000/svg">
<path fill-rule="evenodd" clip-rule="evenodd" d="M25.1667 59.273C25.6978 58.3823 25.4075 57.2278 24.5169 56.6934C23.6262 56.1623 22.4717 56.4526 21.9374 57.3433L18.3221 63.3929C17.9329 64.0494 17.9791 64.8773 18.4376 65.4876C18.8961 66.0978 19.6779 66.3717 20.4168 66.1803C20.8852 66.0682 21.2909 65.7746 21.5449 65.3688C21.5614 65.3392 21.5779 65.3095 21.5944 65.2831L25.1635 59.273L25.1667 59.273ZM55.6656 36.4298C58.2385 41.7571 60.653 47.3122 63.127 52.7023L63.1336 52.7089H63.1303C63.1798 52.7716 63.2161 52.8409 63.2458 52.9167C63.6416 53.4973 64.397 53.7051 65.0369 53.4148L69.5 51.3895C70.1894 51.0365 70.4797 50.1954 70.1498 49.4928L62.7444 33.3563C62.408 32.6438 61.5603 32.3337 60.8444 32.6636L56.3913 34.6823C55.7481 35.0056 55.4413 35.747 55.6656 36.4298ZM54.4154 37.8054L61.3722 52.959C59.3831 54.4466 58.5947 55.6473 56.1174 56.0893L50.3844 52.5631C50.2558 52.4839 50.1106 52.441 49.9622 52.4377C44.3974 52.2563 39.2352 49.4953 35.9993 44.9663C35.7585 44.5639 35.2406 44.4319 34.8349 44.6727C33.621 45.2599 32.5522 46.1076 31.7012 47.1566L29.0821 50.4321C28.2541 51.4514 26.7533 51.613 25.724 50.7917C25.2325 50.4057 24.9159 49.8384 24.8433 49.2149C24.774 48.5915 24.9521 47.968 25.3447 47.4765L28.6796 43.2807C29.1117 42.7265 29.6329 42.2514 30.2266 41.8754L37.4044 37.5641C41.2539 35.9477 43.9455 36.746 47.65 38.1381V38.1348C49.1443 38.6922 50.7771 38.7648 52.3176 38.3492L54.4155 37.8016L54.4154 37.8054ZM57.5853 57.4717C58.2615 58.613 58.255 60.0347 57.5622 61.1661C57.0114 62.0666 56.0943 62.6835 55.052 62.8517C55.362 63.7984 55.2664 64.8342 54.7848 65.7116C54.2999 66.5858 53.4785 67.2191 52.5087 67.4632C52.1525 67.5522 51.783 67.5852 51.4169 67.5621C51.5653 68.5682 51.2783 69.594 50.6252 70.3758C49.9754 71.1609 49.0188 71.6293 47.9995 71.6622C48.303 73.0642 47.7422 74.5089 46.5778 75.3402C45.4101 76.1682 43.8597 76.221 42.6359 75.4755L38.196 72.7739L37.9914 73.1104C37.2559 74.3374 35.8606 75.0071 34.4422 74.819C33.027 74.631 31.856 73.615 31.4701 72.2395C30.5498 72.6848 29.4876 72.7145 28.5443 72.3286C27.6042 71.9426 26.8686 71.174 26.5288 70.2141C26.2188 70.3956 25.8856 70.5341 25.5359 70.6199C23.6195 71.1015 21.6733 69.9437 21.1818 68.0305C21.1554 67.9348 21.1356 67.8359 21.1191 67.7369C21.0202 67.7699 20.9212 67.7996 20.8223 67.8227C19.4203 68.1789 17.936 67.6577 17.0685 66.4966C16.1977 65.3355 16.1152 63.7654 16.854 62.5185C16.9794 62.3932 17.4808 61.5817 18.0745 60.5822C17.517 58.867 17.0816 56.2214 15.5973 55.0867L14.6934 54.3841H14.6967C13.7698 55.2649 12.4009 55.4925 11.2397 54.9614L6.82616 52.9426V52.9459C6.07078 52.5963 5.48366 51.9629 5.19334 51.1812C4.90637 50.4027 4.93935 49.5385 5.289 48.7832L12.6977 32.6433C13.044 31.8879 13.6774 31.3008 14.4591 31.0104C15.2409 30.7235 16.1051 30.7564 16.8605 31.1061L21.2609 33.1117C22.445 33.6592 23.1707 34.8764 23.0916 36.1761C25.3709 36.7896 26.0571 37.1195 28.5179 36.6379C31.3876 36.0705 32.2321 36.4565 34.6566 37.2217C35.3097 36.783 35.9859 36.3773 36.6819 36.0078C40.9932 34.1705 44.0576 34.9655 48.2373 36.5323V36.5356C49.405 36.9677 50.6782 37.0238 51.8789 36.6973L53.8911 36.1761H53.8878C53.802 34.8995 54.5013 33.6988 55.6525 33.1413L55.7152 33.1083L60.1354 31.1028C60.8907 30.7531 61.7517 30.7201 62.5301 31.0071C63.3086 31.2974 63.9387 31.8846 64.285 32.6366L71.6936 48.7765H71.6969C72.0466 49.5319 72.0829 50.3995 71.7959 51.1813C71.5089 51.963 70.9217 52.5997 70.1631 52.9494L65.7396 54.9648C64.5818 55.4959 63.2194 55.2716 62.2893 54.4007C60.5047 55.7334 59.6899 56.7987 57.5853 57.4717ZM48.722 66.3882C48.7649 66.4277 48.8111 66.4607 48.8573 66.4904C49.7413 67.0314 50.0184 68.1859 49.4774 69.07C48.9364 69.954 47.7819 70.2311 46.8979 69.6901L42.7383 67.1337C42.3359 66.8896 41.8114 67.015 41.5673 67.4174C41.3232 67.8198 41.4486 68.341 41.851 68.5884L45.3871 70.7622V70.7589C45.4168 70.7819 45.4498 70.805 45.4828 70.8248C46.3635 71.3658 46.6406 72.5203 46.0996 73.4044C45.5586 74.2884 44.4041 74.5655 43.5201 74.0212C43.5201 74.0212 40.5085 72.1937 39.0736 71.3197L39.9081 69.9375V69.9408C40.3798 69.1261 40.5085 68.1596 40.2677 67.2492C39.7861 65.3623 37.8861 64.2045 35.9861 64.64C35.9267 63.6241 35.4451 62.6806 34.6535 62.0374C33.8651 61.3942 32.8425 61.1138 31.8365 61.2622C31.8827 59.9395 31.2064 58.6992 30.0684 58.0197C29.2536 57.5349 28.2805 57.393 27.3602 57.6305C27.2679 57.6536 27.1722 57.6833 27.0832 57.7163C27.0667 57.6206 27.0469 57.5249 27.0238 57.4293L27.0205 57.426C26.6675 56.0207 25.4998 54.9685 24.0649 54.7607C22.63 54.553 21.2116 55.2292 20.4727 56.4794C20.3144 56.7663 19.813 57.6372 19.2324 58.6367C18.6123 56.7334 18.3088 55.028 16.6364 53.7481L15.6139 52.9465L22.5806 37.8056C25.1634 38.4983 25.866 38.9041 28.8479 38.3136C30.1179 37.9573 31.4605 37.987 32.7139 38.3994L29.346 40.4247C28.5774 40.903 27.9012 41.51 27.347 42.2224L24.0121 46.4183C23.3392 47.2594 23.0291 48.3381 23.1545 49.4102C23.2766 50.4789 23.8208 51.4586 24.6686 52.1283C26.4333 53.5335 29.003 53.2498 30.4181 51.4916L33.0372 48.2161H33.0339C33.5782 47.5168 34.2643 46.9429 35.0428 46.5272C38.5625 51.0959 43.9162 53.8765 49.6754 54.1272L55.5271 57.7227C56.3847 58.2736 56.642 59.4116 56.1077 60.2791C55.5931 61.117 54.5243 61.4271 53.6436 60.9916C53.6139 60.9652 53.5776 60.9388 53.5446 60.919L47.5345 57.2444C47.3432 57.1223 47.109 57.0827 46.8847 57.1322C46.6604 57.185 46.4691 57.3235 46.3503 57.5181C46.2316 57.7161 46.1953 57.9503 46.2514 58.1713C46.3074 58.3956 46.4526 58.5836 46.6505 58.699L52.5121 62.2814C52.5517 62.3176 52.5913 62.3473 52.6375 62.377C53.0597 62.6343 53.3632 63.0499 53.4819 63.5348C53.7194 64.5442 53.1026 65.5602 52.0965 65.8142C51.6182 65.9362 51.1102 65.857 50.6913 65.5997L44.6779 61.9251C44.4866 61.7997 44.2524 61.7568 44.0281 61.8063C43.8038 61.8591 43.6092 61.9976 43.4871 62.1956C43.3684 62.3902 43.3321 62.6277 43.3915 62.8487C43.4475 63.073 43.5927 63.261 43.7939 63.3765L48.7287 66.3947L48.722 66.3882ZM21.297 36.5227C21.3035 36.5062 21.3101 36.4897 21.3167 36.4732L21.3134 36.4699C21.5641 35.764 21.2343 34.9822 20.5548 34.6655L16.1544 32.66C15.4353 32.3301 14.581 32.6402 14.2446 33.3593L6.8326 49.4958C6.50274 50.2182 6.8128 51.0693 7.5319 51.4057L11.9455 53.4244C12.6679 53.751 13.5189 53.4343 13.8455 52.7119C16.4712 47.4605 18.6912 41.8397 21.2773 36.5518L21.2905 36.5221L21.297 36.5227ZM30.0775 1.70867L24.5128 8.66218C23.8465 19.1316 29.0583 27.4511 38.4985 31.8709C47.9394 27.4508 53.1513 19.1282 52.4876 8.6588L46.9228 1.70529L30.0775 1.70867ZM23.0184 7.81444C22.9096 7.94638 22.8469 8.11131 22.8337 8.28285C22.0058 19.7057 27.7883 28.8856 38.1562 33.5867C38.3772 33.6889 38.6345 33.6889 38.8555 33.5867C49.2168 28.8894 54.9954 19.709 54.1712 8.28285C54.1547 8.08492 54.0756 7.90021 53.937 7.75837L47.9896 0.326566C47.8312 0.12205 47.5871 0.00659683 47.3266 0.00659683V0H29.6726C29.3823 0 29.1118 0.145144 28.9535 0.389239L23.016 7.81116L23.0184 7.81444ZM31.951 18.6005C31.6244 18.2641 31.631 17.7231 31.9675 17.3965C32.3072 17.07 32.8449 17.0766 33.1715 17.413L36.104 20.4115L43.7931 11.4359L43.7964 11.4392C44.1032 11.0895 44.6343 11.0532 44.9872 11.3567C45.3402 11.6569 45.3864 12.188 45.0895 12.5442L36.7902 22.2257L36.7374 22.2818C36.5758 22.4402 36.3581 22.5259 36.1305 22.5226C35.9062 22.5193 35.6918 22.427 35.5334 22.2653L31.9478 18.6006L31.951 18.6005ZM33.3035 70.3263C32.7856 71.2136 33.0824 72.3516 33.9665 72.8793C34.8472 73.4038 35.9918 73.1201 36.5262 72.2427C37.176 71.197 37.8126 70.125 38.4459 69.0662C38.6834 68.6439 38.7461 68.1459 38.6208 67.6775C38.3635 66.6681 37.3376 66.0578 36.3283 66.3118C35.8631 66.4306 35.4575 66.7143 35.1869 67.1101C34.5206 68.1689 33.9368 69.2542 33.3035 70.3263ZM28.2203 68.1954C27.7618 69.0992 28.1049 70.2075 28.9955 70.6924C29.8894 71.1806 31.0043 70.8672 31.5157 69.9865L34.0358 65.7873C34.557 64.8868 34.2568 63.7323 33.3596 63.2012C32.9473 62.9406 32.4426 62.8548 31.9643 62.9703C31.4893 63.0857 31.077 63.3859 30.8263 63.8081L28.2204 68.192L28.2203 68.1954ZM23.0315 66.1997L26.6303 60.1401H26.6336C27.1647 59.2495 28.3126 58.9592 29.2033 59.487C30.1005 60.0181 30.4007 61.1726 29.8762 62.0731L26.307 68.0799H26.3103C26.2905 68.1063 26.274 68.1327 26.2608 68.1591C26.0036 68.5681 25.5978 68.8617 25.1295 68.9738C24.1201 69.2278 23.0942 68.6209 22.827 67.6148C22.7049 67.1332 22.7775 66.6252 23.0315 66.1997Z" fill="white"/>
</svg>
