<svg width="71" height="72" viewBox="0 0 71 72" fill="none" xmlns="http://www.w3.org/2000/svg">
<path d="M49.9571 42.5643C49.5281 42.2763 48.9461 42.3903 48.6581 42.8193C47.1551 45.0513 45.271 46.9624 43.057 48.4954C42.934 48.5794 42.835 48.6904 42.766 48.8224L40.018 53.9525C39.649 53.8145 39.253 53.7395 38.8359 53.7395L22.912 53.7365C22.4979 53.7365 22.0989 53.8115 21.7299 53.9495L18.9819 48.8194C18.9129 48.6904 18.8109 48.5764 18.6909 48.4924C12.9068 44.4843 9.45399 37.8961 9.45399 30.8734C9.45399 19.0591 19.0634 9.44972 30.8777 9.44972C38.1228 9.44972 44.8248 13.0707 48.8031 19.1367C49.0851 19.5687 49.6671 19.6887 50.0961 19.4067C50.5281 19.1247 50.6481 18.5427 50.3661 18.1136C46.0401 11.5196 38.753 7.58342 30.8778 7.58342C18.0343 7.58342 7.58554 18.0322 7.58554 30.8757C7.58554 38.4389 11.2666 45.534 17.4407 49.9017L20.2187 55.0828C19.7897 55.6498 19.5347 56.3547 19.5347 57.1168V58.0828C19.5347 59.4298 20.3298 60.5968 21.4727 61.1398C21.1307 61.6679 20.9297 62.2979 20.9297 62.9729V63.9389C20.9297 65.8019 22.4448 67.3199 24.3107 67.3199H25.3428C25.7838 69.9719 28.0968 72 30.8749 72C33.6529 72 35.9659 69.972 36.4129 67.3199H37.445C39.308 67.3199 40.826 65.8048 40.826 63.9389V62.9729C40.826 62.2978 40.625 61.6679 40.283 61.1398C41.429 60.5968 42.221 59.4328 42.221 58.0828V57.1168C42.221 56.3548 41.966 55.6497 41.537 55.0828L44.315 49.9017C46.64 48.2577 48.6231 46.2266 50.2161 43.8626C50.5011 43.4336 50.3871 42.8516 49.9581 42.5635L49.9571 42.5643ZM30.8736 70.1321C29.1306 70.1321 27.6635 68.9351 27.2465 67.3211H34.5006C34.0836 68.9351 32.6166 70.1321 30.8736 70.1321ZM38.95 63.94C38.95 64.774 38.272 65.449 37.441 65.449H24.3064C23.4725 65.449 22.7975 64.771 22.7975 63.94V62.974C22.7975 62.143 23.4755 61.465 24.3064 61.465L37.441 61.462C38.272 61.462 38.95 62.14 38.95 62.971V63.94ZM40.348 58.0839C40.348 58.9149 39.67 59.5929 38.839 59.5929H22.912C22.078 59.5929 21.403 58.9149 21.403 58.0839V57.1179C21.403 56.2869 22.081 55.6089 22.912 55.6089H38.839C39.673 55.6089 40.348 56.2869 40.348 57.1179V58.0839ZM29.9376 5.25313V0.936053C29.9376 0.417046 30.3576 0 30.8736 0C31.3897 0 31.8097 0.417008 31.8097 0.936053V5.25313C31.8097 5.76914 31.3927 6.18918 30.8736 6.18918C30.3576 6.18618 29.9376 5.76917 29.9376 5.25313ZM48.3276 13.4194C47.9616 13.0534 47.9616 12.4624 48.3276 12.0963L51.3817 9.04227C51.7477 8.67627 52.3387 8.67627 52.7048 9.04227C53.0708 9.40828 53.0708 9.99929 52.7048 10.3653L49.6507 13.4194C49.4677 13.6024 49.2277 13.6924 48.9907 13.6924C48.7507 13.6924 48.5106 13.5994 48.3276 13.4194ZM52.7047 51.3823C53.0707 51.7483 53.0707 52.3393 52.7047 52.7053C52.5217 52.8883 52.2817 52.9783 52.0447 52.9783C51.8047 52.9783 51.5677 52.8883 51.3847 52.7053L48.3306 49.6512C47.9646 49.2852 47.9646 48.6942 48.3306 48.3282C48.6966 47.9622 49.2876 47.9622 49.6536 48.3282L52.7047 51.3823ZM13.4193 48.3282C13.7853 48.6942 13.7853 49.2852 13.4193 49.6512L10.3652 52.7053C10.1822 52.8883 9.94224 52.9783 9.70524 52.9783C9.46523 52.9783 9.22823 52.8883 9.04522 52.7053C8.67922 52.3393 8.67922 51.7483 9.04522 51.3823L12.0993 48.3282C12.4623 47.9622 13.0533 47.9622 13.4193 48.3282ZM6.18619 30.8736C6.18619 31.3896 5.76918 31.8096 5.25013 31.8096H0.936053C0.420041 31.8096 0 31.3926 0 30.8736C0 30.3576 0.417008 29.9375 0.936053 29.9375H5.25313C5.76914 29.9375 6.18619 30.3575 6.18619 30.8736ZM9.04227 10.3653C8.67627 9.99932 8.67627 9.40831 9.04227 9.04227C9.40828 8.67627 9.99929 8.67627 10.3653 9.04227L13.4194 12.0963C13.7854 12.4624 13.7854 13.0534 13.4194 13.4194C13.2364 13.6024 12.9964 13.6924 12.7594 13.6924C12.5194 13.6924 12.2824 13.6024 12.0994 13.4194L9.04227 10.3653ZM65.8575 38.3978C63.4515 38.3978 61.4444 40.1258 61.0035 42.4059H54.9314L50.0203 37.4948C49.8463 37.3208 49.6063 37.2218 49.3603 37.2218H43.9302C44.2993 36.4598 44.6053 35.6708 44.8363 34.8548L47.4793 34.1858C47.8933 34.0808 48.1843 33.7088 48.1843 33.2798V31.8097H56.0472C56.4882 34.1767 58.5672 35.9738 61.0603 35.9738C63.8714 35.9738 66.1603 33.6848 66.1603 30.8738C66.1603 28.0627 63.8713 25.7737 61.0603 25.7737C58.5672 25.7737 56.4882 27.5707 56.0472 29.9378H48.1843V28.4677C48.1843 28.0387 47.8933 27.6667 47.4793 27.5617L44.8363 26.8927C44.6263 26.1547 44.3593 25.4377 44.0352 24.7446H49.2313C49.4803 24.7446 49.7173 24.6456 49.8913 24.4716L54.8024 19.5576H60.8744C61.3124 21.8377 63.3225 23.5657 65.7285 23.5657C68.4556 23.5657 70.6726 21.3487 70.6726 18.6216C70.6726 15.8945 68.4556 13.6775 65.7285 13.6775C63.3225 13.6775 61.3154 15.4055 60.8744 17.6856H54.4153C54.1663 17.6856 53.9293 17.7846 53.7553 17.9586L48.8442 22.8727H44.1222L44.9562 21.4717C45.1752 21.1027 45.1182 20.6347 44.8152 20.3316L41.4161 16.9326C41.1131 16.6296 40.6451 16.5726 40.2761 16.7916L37.933 18.1866C36.958 17.6436 35.926 17.2146 34.858 16.9115L34.189 14.2685C34.084 13.8545 33.7119 13.5635 33.2829 13.5635H28.4739C28.0449 13.5635 27.6728 13.8545 27.5678 14.2685L26.8988 16.9115C25.8278 17.2175 24.7958 17.6435 23.8208 18.1866L21.4777 16.7916C21.1087 16.5726 20.6408 16.6296 20.3377 16.9326L16.9386 20.3316C16.6356 20.6346 16.5786 21.1026 16.7976 21.4717L18.1927 23.8147C17.6496 24.7897 17.2207 25.8218 16.9176 26.8928L14.2746 27.5618C13.8606 27.6668 13.5696 28.0388 13.5696 28.4678V33.2769C13.5696 33.7059 13.8606 34.0779 14.2746 34.1829L16.9176 34.8519C17.2236 35.9229 17.6496 36.9549 18.1927 37.9299L16.7976 40.273C16.5786 40.642 16.6356 41.11 16.9386 41.413L20.3377 44.8121C20.6407 45.1151 21.1087 45.1721 21.4777 44.9531L23.8208 43.5581C24.7958 44.1011 25.8278 44.5301 26.8958 44.8331L27.5648 47.4762C27.6698 47.8902 28.0419 48.1812 28.4709 48.1812H33.2799C33.7089 48.1812 34.081 47.8902 34.186 47.4762L34.855 44.8331C35.926 44.5271 36.958 44.1011 37.933 43.5581L40.2761 44.9531C40.6451 45.1721 41.113 45.1151 41.4161 44.8121L44.8152 41.413C45.1182 41.11 45.1752 40.642 44.9562 40.273L44.2512 39.0879H48.9732L53.8843 43.999C54.0583 44.173 54.2983 44.272 54.5443 44.272H61.0034C61.4414 46.5521 63.4515 48.2801 65.8575 48.2801C68.5845 48.2801 70.8016 46.0631 70.8016 43.336C70.8016 40.612 68.5846 38.3978 65.8575 38.3978ZM61.0604 27.6425C62.8425 27.6425 64.2915 29.0915 64.2915 30.8736C64.2915 32.6556 62.8425 34.1046 61.0604 34.1046C59.2784 34.1046 57.8294 32.6556 57.8294 30.8736C57.8294 29.0915 59.2784 27.6425 61.0604 27.6425ZM65.7285 15.5525C67.4235 15.5525 68.8005 16.9295 68.8005 18.6245C68.8005 20.3195 67.4235 21.6966 65.7285 21.6966C64.0335 21.6966 62.6564 20.3195 62.6564 18.6245C62.6564 16.9295 64.0335 15.5525 65.7285 15.5525ZM40.606 42.9759L38.416 41.6709C38.119 41.4939 37.747 41.4969 37.45 41.6769C36.337 42.3579 35.128 42.856 33.8649 43.1649C33.5289 43.2459 33.2649 43.5069 33.1779 43.8429L32.5509 46.3119H29.1968L28.5698 43.8399C28.4828 43.5039 28.2188 43.2429 27.8828 43.1618C26.6168 42.8558 25.4107 42.3548 24.2977 41.6768C24.0007 41.4968 23.6287 41.4938 23.3317 41.6708L21.1416 42.9758L18.7716 40.6058L20.0766 38.4158C20.2536 38.1188 20.2506 37.7467 20.0706 37.4497C19.3896 36.3367 18.8916 35.1277 18.5826 33.8647C18.5016 33.5287 18.2406 33.2647 17.9046 33.1777L15.4356 32.5506V29.1966L17.9046 28.5696C18.2406 28.4856 18.5016 28.2186 18.5826 27.8826C18.8886 26.6166 19.3896 25.4105 20.0706 24.2975C20.2506 24.0005 20.2536 23.6315 20.0766 23.3315L18.7716 21.1414L21.1416 18.7714L23.3317 20.0764C23.6287 20.2534 24.0007 20.2534 24.2977 20.0704C25.4107 19.3894 26.6197 18.8913 27.8828 18.5854C28.2188 18.5044 28.4828 18.2434 28.5698 17.9074L29.1968 15.4353H32.5509L33.1779 17.9074C33.2619 18.2434 33.5289 18.5044 33.8649 18.5854C35.1309 18.8914 36.337 19.3924 37.45 20.0704C37.747 20.2504 38.119 20.2534 38.416 20.0764L40.609 18.7714L42.979 21.1414L41.674 23.3315C41.671 23.3345 41.671 23.3375 41.668 23.3405C41.629 23.4065 41.599 23.4785 41.578 23.5535C41.575 23.5625 41.572 23.5715 41.572 23.5805C41.566 23.6105 41.557 23.6405 41.554 23.6705C41.551 23.6795 41.551 23.6885 41.551 23.6975C41.548 23.7335 41.545 23.7725 41.545 23.8085V23.8115V23.8235C41.545 23.8565 41.548 23.8925 41.551 23.9255C41.554 23.9345 41.554 23.9465 41.557 23.9555C41.563 23.9855 41.569 24.0155 41.575 24.0455C41.578 24.0515 41.578 24.0605 41.581 24.0665C41.593 24.1055 41.605 24.1415 41.62 24.1775C41.62 24.1805 41.623 24.1835 41.623 24.1835C41.638 24.2165 41.656 24.2495 41.674 24.2795C41.677 24.2825 41.677 24.2885 41.68 24.2915C42.361 25.4045 42.8591 26.6135 43.1681 27.8766C43.2491 28.2126 43.5101 28.4766 43.8461 28.5636L46.3151 29.1906V30.8646V30.8676V30.8706V32.5447L43.843 33.1717C43.507 33.2557 43.246 33.5227 43.165 33.8587C42.859 35.1217 42.358 36.3277 41.68 37.4438C41.5 37.7408 41.497 38.1098 41.674 38.4098L42.979 40.6028L40.606 42.9759ZM65.8575 46.414C64.1625 46.414 62.7855 45.0369 62.7855 43.3419C62.7855 41.6469 64.1625 40.2699 65.8575 40.2699C67.5525 40.2699 68.9296 41.6469 68.9296 43.3419C68.9326 45.034 67.5525 46.414 65.8575 46.414ZM30.8738 21.8169C25.8787 21.8169 21.8166 25.8789 21.8166 30.874C21.8166 35.8691 25.8787 39.9312 30.8738 39.9312C35.8689 39.9312 39.931 35.8691 39.931 30.874C39.931 25.8789 35.8689 21.8169 30.8738 21.8169ZM30.8738 38.0619C26.9107 38.0619 23.6857 34.8368 23.6857 30.8737C23.6857 26.9106 26.9107 23.6856 30.8738 23.6856C34.8369 23.6856 38.0619 26.9106 38.0619 30.8737C38.0619 34.8368 34.8369 38.0619 30.8738 38.0619Z" fill="white"/>
</svg>
