<svg width="300" height="200" viewBox="0 0 300 200" fill="none" xmlns="http://www.w3.org/2000/svg">
<circle cx="150.001" cy="99.9999" r="96.6025" fill="#F0F0F0" stroke="#D8DADA"/>
<circle cx="150" cy="99.9998" r="87.2693" fill="#D8DADA"/>
<circle cx="57.1431" cy="36.1538" r="4.24463" fill="#7C7F84"/>
<circle cx="261.907" cy="122.666" r="3.11239" transform="rotate(180 261.907 122.666)" fill="#F1F3FF"/>
<path d="M197.392 176.515C197.075 176.447 197.075 175.995 197.392 175.928L202.181 174.909C202.297 174.885 202.387 174.795 202.412 174.679L203.444 169.923C203.512 169.608 203.962 169.608 204.03 169.923L205.061 174.679C205.086 174.795 205.177 174.885 205.292 174.909L210.082 175.928C210.399 175.995 210.399 176.447 210.082 176.515L205.292 177.533C205.177 177.558 205.086 177.648 205.061 177.763L204.03 182.519C203.962 182.834 203.512 182.834 203.444 182.519L202.412 177.763C202.387 177.648 202.297 177.558 202.181 177.533L197.392 176.515Z" fill="white"/>
<path d="M249.107 14.0822C249.229 13.5045 250.054 13.5045 250.176 14.0822L251.579 20.7086C251.623 20.919 251.787 21.0836 251.997 21.1294L258.563 22.5598C259.137 22.6847 259.137 23.5027 258.563 23.6276L251.997 25.058C251.787 25.1037 251.623 25.2684 251.579 25.4787L250.176 32.1052C250.054 32.6829 249.229 32.6829 249.107 32.1052L247.705 25.4787C247.66 25.2684 247.496 25.1037 247.286 25.058L240.72 23.6276C240.147 23.5027 240.147 22.6847 240.72 22.5598L247.286 21.1294C247.496 21.0836 247.66 20.919 247.705 20.7086L249.107 14.0822Z" fill="#7C7F84"/>
<path d="M236.878 33.4162C237.001 32.8385 237.825 32.8385 237.948 33.4162L238.527 36.1553C238.572 36.3656 238.736 36.5303 238.946 36.5761L241.68 37.1717C242.253 37.2966 242.253 38.1146 241.68 38.2395L238.946 38.8351C238.736 38.8809 238.572 39.0456 238.527 39.2559L237.948 41.995C237.825 42.5727 237.001 42.5727 236.878 41.995L236.299 39.2559C236.254 39.0456 236.09 38.8809 235.88 38.8351L233.146 38.2395C232.573 38.1146 232.573 37.2966 233.146 37.1717L235.88 36.5761C236.09 36.5303 236.254 36.3656 236.299 36.1553L236.878 33.4162Z" fill="#7C7F84"/>
<circle cx="9.28817" cy="9.28817" r="9.28817" transform="matrix(-1 7.00515e-09 7.00515e-09 1 48.7969 44.9932)" fill="#7C7F84"/>
<path d="M235.133 98.2225L148.871 158.423L62.6094 98.2225L141.575 35.0916C143.717 33.599 146.265 32.7988 148.875 32.7988C151.485 32.7988 154.033 33.599 156.174 35.0916L235.133 98.2225Z" fill="#FBFBFF"/>
<path d="M180.054 88.5658L204.354 161.937H134.551L117.812 87.8424L143.775 73.1836L180.054 88.5658Z" fill="#9DA0A3"/>
<path d="M126.572 87.2297L165.44 83.2812L168.878 90.5544C168.878 90.5544 170.682 108.834 178.019 112.03L169.342 165.276L125.338 164.7L116.633 93.0463L126.572 87.2297Z" fill="#7C7F84"/>
<path d="M132.161 107.485C139.133 108.45 146.255 108.106 153.099 106.45C155.034 105.981 156.941 105.405 158.815 104.733C159.248 104.579 159.062 103.881 158.623 104.039C152.115 106.376 145.195 107.482 138.284 107.283C136.3 107.225 134.317 107.061 132.35 106.791C131.898 106.73 131.702 107.424 132.157 107.485H132.161Z" fill="black"/>
<path d="M143.238 73.8524C141.787 71.5438 139.848 69.4988 137.833 67.6757C135.821 65.8558 133.603 64.2675 131.226 62.962C126.375 60.2997 120.829 59.0104 115.308 59.4766C112.553 59.7081 109.807 60.3833 107.286 61.5216C104.658 62.708 102.342 64.3896 100.285 66.4057C98.2534 68.396 96.5232 70.666 94.9083 73.0036C93.1365 75.5662 91.4704 78.2028 89.8684 80.878C86.9463 85.7589 84.1627 95.1428 82.5639 98.5318C82.5639 98.5318 82.5607 98.5415 82.5639 98.5383C82.5639 98.5318 95.8792 103.893 102.518 106.495C104.85 107.408 107.189 108.298 109.538 109.17C109.74 109.54 110.201 109.758 110.599 109.54C111.178 109.607 111.592 109.016 111.476 108.54C115.123 103.983 118.669 99.3502 122.373 94.8422C126.289 90.0739 130.303 85.3859 134.408 80.7815C141.148 73.2316 145.692 77.742 143.244 73.8492L143.238 73.8524Z" fill="#9DA0A3"/>
<path d="M202.509 80.9879C200.974 77.6954 199.334 74.4543 197.546 71.2936C195.935 68.4416 194.227 65.6314 192.253 63.0141C188.652 58.2329 183.98 53.8503 178.008 52.4517C174.528 51.6382 170.789 51.6703 167.463 52.86C158.777 55.9628 153.866 58.5126 146.644 60.7698C142.417 62.0913 137.374 62.7954 133.094 63.9337C133.094 63.9337 134.052 71.0814 134.231 71.5026C134.324 71.7213 139.015 72.4222 143.51 73.0492C144.324 74.3611 164.788 82.6888 165.599 84.0007C167.22 86.6244 167.966 89.1967 169.338 91.65L172.987 105.47C184.759 101.868 196.527 98.2608 208.257 94.5245C206.469 89.9587 204.579 85.4315 202.509 80.9879Z" fill="#9DA0A3"/>
<path d="M160.643 92.8435C163.555 92.5187 166.266 93.255 169.15 92.7309C169.137 91.5605 169.002 89.85 168.848 88.9432C168.336 85.9079 167.916 82.8598 167.608 79.7956C166.996 73.6639 166.807 67.484 167.08 61.3298C167.205 58.4874 167.419 55.6483 167.753 52.8252C165.045 53.6901 162.386 54.703 159.742 55.764C159.044 60.2269 158.637 64.7349 158.535 69.2524C158.397 75.1333 158.72 81.0238 159.576 86.8468C159.871 88.8564 160.22 90.8596 160.649 92.8467L160.643 92.8435Z" fill="#7C7F84"/>
<path d="M126.677 80.7359C126.61 83.6812 126.658 86.6297 126.767 89.5717C126.789 90.1151 126.809 90.6553 126.834 91.2019C126.296 91.2662 125.758 91.3337 125.223 91.4077C122.496 91.7646 119.789 92.2019 117.116 92.906C116.956 91.4945 116.841 90.0765 116.761 88.6586C116.203 78.8292 117.475 68.9259 120.41 59.5371C123.162 59.8297 125.863 60.5371 128.424 61.6046C128.196 62.9968 127.988 64.3923 127.808 65.791C127.164 70.7523 126.793 75.7393 126.677 80.7359Z" fill="#7C7F84"/>
<path d="M143.358 74.7276C146.575 74.8273 149.756 73.6891 152.23 71.6312C154.738 69.5445 156.308 66.5156 156.725 63.2842C156.965 61.4289 156.808 59.5383 156.264 57.7506C156.129 57.3068 155.434 57.4965 155.572 57.9435C156.488 60.9338 156.241 64.2391 154.889 67.0622C153.566 69.8242 151.201 71.9913 148.362 73.1232C146.77 73.7566 145.072 74.0652 143.358 74.0106C142.896 73.9977 142.896 74.718 143.358 74.7308V74.7276Z" fill="black"/>
<path d="M150.938 50.5862L153.268 61.0554C153.268 61.0554 154.005 69.7562 145.427 70.724C141.89 71.1227 139.702 69.47 139.683 69.2417C139.663 69.0134 139.25 59.8336 139.25 59.8336L150.938 50.583V50.5862Z" fill="#FED8B4"/>
<path d="M165.91 85.2735C165.423 84.3121 164.366 83.7141 162.872 84.3057C161.501 84.8491 160.883 86.4407 161.178 87.6914C161.668 89.7525 164.196 89.9036 165.532 88.4278C166.314 87.5628 166.397 86.2381 165.91 85.2767V85.2735Z" fill="black"/>
<path d="M158.743 84.2276C158.849 85.8321 159.064 87.4269 159.394 88.9992C159.56 89.7966 159.759 90.5876 159.97 91.3721C160.153 92.0409 160.294 92.7965 160.704 93.3721C161.489 94.4717 163.139 94.3174 164.331 94.2949C165.856 94.2659 167.378 94.118 168.894 93.9412C169.349 93.8865 169.352 93.1663 168.894 93.2209C167.532 93.3817 166.164 93.5135 164.792 93.5618C164.155 93.5843 163.514 93.5907 162.873 93.5553C162.2 93.52 161.528 93.4267 161.178 92.774C160.845 92.1502 160.714 91.3785 160.534 90.7001C160.358 90.0217 160.195 89.34 160.054 88.6551C159.752 87.1954 159.56 85.7195 159.461 84.2308C159.429 83.771 158.711 83.7678 158.743 84.2308V84.2276Z" fill="black"/>
<path d="M74.6133 200C67.9859 200 62.6133 194.627 62.6133 188V98.2217L134.855 148.638L141.486 143.924C143.645 142.387 146.229 141.561 148.879 141.561C151.529 141.561 154.113 142.387 156.271 143.924L162.902 148.638L235.144 98.2217V188C235.144 194.627 229.771 200 223.144 200H74.6133Z" fill="#EDEDED"/>
<mask id="mask0_7979_15241" style="mask-type:alpha" maskUnits="userSpaceOnUse" x="62" y="98" width="174" height="102">
<path d="M74.6133 200C67.9859 200 62.6133 194.627 62.6133 188V98.2217L134.855 148.638L141.486 143.924C143.645 142.387 146.229 141.561 148.879 141.561C151.529 141.561 154.113 142.387 156.271 143.924L162.902 148.638L235.144 98.2217V188C235.144 194.627 229.771 200 223.144 200H74.6133Z" fill="#FBFBFF"/>
</mask>
<g mask="url(#mask0_7979_15241)">
<path d="M62.625 200L141.498 143.924C143.657 142.387 146.241 141.561 148.891 141.561C151.54 141.561 154.125 142.387 156.283 143.924L235.149 200H62.625Z" fill="#D8D8D8"/>
</g>
<path fill-rule="evenodd" clip-rule="evenodd" d="M52.0115 187.84C50.4949 189.793 49.5909 191.921 48.5367 194.118C48.3308 194.547 48.5125 195.06 48.9412 195.266C49.3702 195.473 49.8855 195.291 50.0916 194.862C51.0913 192.78 51.9344 190.75 53.3746 188.895C53.6659 188.52 53.5971 187.978 53.2203 187.688C52.845 187.396 52.3026 187.465 52.0115 187.84Z" fill="#9DA0A3"/>
<path fill-rule="evenodd" clip-rule="evenodd" d="M49.3045 181.545C44.146 183.258 38.7736 186.023 34.4238 189.294C34.0442 189.579 33.9685 190.12 34.2555 190.498C34.5425 190.876 35.083 190.954 35.4626 190.668C39.6686 187.506 44.8644 184.831 49.8516 183.177C50.3028 183.027 50.5463 182.539 50.395 182.089C50.2438 181.64 49.7557 181.394 49.3045 181.545Z" fill="#9DA0A3"/>
<path fill-rule="evenodd" clip-rule="evenodd" d="M50.0017 177.477C46.8899 175.432 43.0103 174.835 39.365 174.81C38.8887 174.808 38.501 175.191 38.4993 175.663C38.4967 176.139 38.8813 176.526 39.3564 176.531C42.6768 176.552 46.2217 177.05 49.056 178.913C49.4536 179.174 49.9884 179.064 50.2488 178.669C50.5094 178.273 50.399 177.738 50.0017 177.477Z" fill="#9DA0A3"/>
<path d="M143.508 62.1922C142.591 63.8362 141.439 65.3439 140.096 66.6615C139.473 67.3338 138.619 67.7511 137.711 67.8346C137.27 67.8014 136.859 67.5991 136.56 67.2668C136.249 66.9187 135.993 66.5326 135.803 66.1069C135.774 66.0491 135.706 66.0258 135.646 66.0463C135.587 66.0668 135.565 66.1434 135.586 66.2029C135.586 66.2029 135.586 66.2029 135.587 66.2116C135.774 66.6653 136.029 67.0967 136.338 67.4815C136.686 67.877 137.161 68.1305 137.679 68.1852C138.696 68.1533 139.66 67.742 140.383 67.0234C141.121 66.3834 141.794 65.6836 142.399 64.9152C143.005 64.1554 143.57 63.3675 144.092 62.5425C144.167 62.365 144.083 62.1636 143.905 62.0889C143.766 62.0249 143.602 62.0655 143.506 62.1834L143.508 62.1922Z" fill="black"/>
<path d="M151.018 62.5215C149.288 61.6296 147.851 62.1226 146.688 63.5691" stroke="black" stroke-width="0.63" stroke-linecap="round" stroke-linejoin="round"/>
<path d="M121.345 29.6467C121.345 29.6467 124.64 16.6265 138.785 20.0687C152.93 23.511 162.206 50.253 158.412 57.5961C154.617 64.9391 129.606 77.2372 130.702 70.9007C133.739 53.5527 117.997 41.5442 121.345 29.6467Z" fill="black"/>
<path d="M130.349 21.958L130.358 21.9563C136.842 20.7135 143.105 24.9621 144.348 31.4459L147.051 45.5459C148.293 52.0296 144.045 58.2931 137.561 59.5359L137.552 59.5376C131.069 60.7804 124.805 56.5317 123.562 50.048L120.86 35.948C119.617 29.4643 123.865 23.2007 130.349 21.958Z" fill="#FED8B4"/>
<mask id="mask1_7979_15241" style="mask-type:luminance" maskUnits="userSpaceOnUse" x="120" y="21" width="28" height="39">
<path d="M130.341 21.9677L130.35 21.9661C136.834 20.7233 143.097 24.9719 144.34 31.4556L147.043 45.5556C148.286 52.0394 144.037 58.3029 137.553 59.5457L137.544 59.5474C131.061 60.7901 124.797 56.5415 123.554 50.0578L120.852 35.9578C119.609 29.4741 123.858 23.2105 130.341 21.9677Z" fill="white"/>
</mask>
<g mask="url(#mask1_7979_15241)">
<path d="M126.136 25.9652C126.136 25.9652 121.226 28.7188 121.103 38.0498C120.979 47.3809 125.422 60.5854 133.718 60.7444L135.406 61.7983L119.682 63.0722L110.25 35.6621L118.392 23.6705L126.136 25.9652Z" fill="black"/>
<path d="M124.325 39.7773L124.527 41.7404" stroke="black" stroke-width="1.54" stroke-miterlimit="10" stroke-linecap="round"/>
</g>
<path d="M124.095 25.5939C124.095 25.5939 127.455 36.5047 143.38 31.6399L144.34 29.3713C144.34 29.3713 141.972 22.7836 133.65 21.7778C128.828 21.2067 125.77 22.844 124.095 25.5939Z" fill="black"/>
<path d="M128.815 38.1908L131.082 50.0159L136.711 45.3397" stroke="black" stroke-width="0.7" stroke-linecap="round" stroke-linejoin="round"/>
<path d="M140.234 47.1201C139.914 48.5681 139.052 49.839 137.827 50.6811" stroke="black" stroke-width="0.7" stroke-miterlimit="10" stroke-linecap="round"/>
<path d="M134.01 36.7224L135.072 38.3857" stroke="black" stroke-width="1.54" stroke-miterlimit="10" stroke-linecap="round"/>
<path d="M121.861 28.6417C121.861 28.6417 124.898 17.9638 138.285 23.5994C142.83 25.5106 144.942 27.9243 147.73 32.9181C152.014 40.6157 155.165 55.2098 145.339 63.99C136.824 71.5763 136.812 69.5757 133.688 68.4527C133.571 68.4116 133.456 68.3792 133.341 68.3469C130.609 67.7105 127.872 69.4133 127.246 72.1523C127.147 72.5792 127.101 73.0048 127.112 73.4378L127.165 76.4546C127.165 76.4546 154.223 83.6295 160.073 64.6458C169.065 35.4595 131.777 0.807379 121.861 28.6417Z" fill="#9DA0A3"/>
<mask id="mask2_7979_15241" style="mask-type:luminance" maskUnits="userSpaceOnUse" x="121" y="18" width="41" height="60">
<path d="M121.865 28.6442C121.865 28.6442 124.902 17.9662 138.29 23.6019C142.834 25.5131 144.946 27.9267 147.734 32.9206C152.019 40.6181 155.169 55.2123 145.343 63.9925C136.828 71.5787 136.816 69.5781 133.692 68.4551C133.575 68.414 133.46 68.3817 133.345 68.3493C130.613 67.713 127.876 69.4157 127.251 72.1548C127.151 72.5817 127.106 73.0072 127.116 73.4402L127.169 76.4571C127.169 76.4571 154.228 83.632 160.078 64.6482C167.398 40.9509 136.499 -0.442553 121.865 28.6442Z" fill="white"/>
</mask>
<g mask="url(#mask2_7979_15241)">
<path d="M142.617 18.7196C142.617 18.7196 163.991 45.1274 158.599 56.9456C153.206 68.7638 150.941 74.7261 126.009 73.5871L125.176 82.003L165.315 74.9618L164.751 38.357L142.617 18.7196Z" fill="#242932"/>
</g>
<path d="M141.037 35.9148C143.236 29.231 147.426 28.0653 149.405 28.7463C151.384 29.4272 152.159 33.6561 150.948 36.7972C149.38 41.0945 142.68 42.5508 142.324 42.6282" fill="#FED8B4"/>
<path d="M141.037 35.9148C143.236 29.231 147.426 28.0653 149.405 28.7463C151.384 29.4272 152.159 33.6561 150.948 36.7972C149.38 41.0945 142.68 42.5508 142.324 42.6282" stroke="black" stroke-width="0.7" stroke-linecap="round" stroke-linejoin="round"/>
<path d="M147.867 34.2617C147.867 34.2617 145.533 34.7091 145.269 36.4997L147.332 36.1043" stroke="black" stroke-width="0.77" stroke-linecap="round" stroke-linejoin="round"/>
<path d="M125.135 24.3833C125.437 27.7764 125.048 35.1555 121.075 37.5268C120.588 34.0435 120.717 26.5382 125.135 24.3833Z" fill="black"/>
<path d="M141.442 69.0948C141.442 69.0948 140.009 65.1673 136.669 61.7209C135.65 60.6695 134.205 59.921 133.323 58.5619C131.737 54.9525 130.152 51.3431 130.152 51.3431C129.886 51.1757 127.761 49.7201 126.777 50.9583C125.988 51.6787 126.845 53.9568 126.556 53.7813C126.335 52.6936 126.318 51.3841 126.096 50.2964C125.932 49.4983 125.625 48.6852 125.461 47.8871C125.308 47.1496 124.744 46.8746 124.318 46.2384C123.413 44.8882 121.494 44.7467 120.634 46.2192C120.284 46.8207 120.114 47.5291 119.938 48.1925C119.753 48.8865 119.602 49.5891 119.481 50.2976C119.23 51.7712 119.095 53.2621 119.156 54.7597C119.28 57.7645 120.154 60.6082 121.814 63.1193C122.647 64.3776 123.582 65.5638 124.52 66.7463C123.088 68.6731 121.682 70.6163 120.261 72.545C117.322 76.5361 114.409 80.5468 111.524 84.5765C106.272 91.9176 102.896 97.2625 97.8339 104.738L82.6264 98.5662C82.2185 99.9364 79.8689 107.195 79.4814 108.573C78.1349 113.356 79.6499 108.005 78.817 112.907C77.3139 121.774 76.4168 132.985 84.3208 139.249C87.4256 141.71 91.5441 142.557 95.4238 142.139C99.5862 141.693 103.384 139.966 106.666 137.393C110.149 134.662 112.929 131.12 115.388 127.467C120.88 119.3 122.301 120.603 127.064 111.997C131.635 103.74 136.055 96.9818 139.725 88.2624C141.021 85.1843 142.18 82.0098 142.665 78.6925C143.149 75.4049 142.735 72.1574 141.442 69.098L141.442 69.0948Z" fill="#FED8B4"/>
<path d="M122.577 46.8913C122.836 46.4586 123.283 46.05 123.821 46.1063C124.478 46.173 124.852 46.8649 125.071 47.4108C125.644 48.844 125.914 50.4153 125.996 51.9493L126.713 51.8546C126.666 51.1031 127.408 50.6098 128.094 50.6562C128.862 50.7082 129.486 51.2398 129.929 51.8344C130.55 52.6636 130.951 53.6558 131.344 54.6098C131.91 55.9852 132.433 57.3825 132.928 58.7837C133.083 59.2236 133.749 58.9397 133.593 58.4997C133.146 57.236 132.677 55.9753 132.177 54.7316C131.455 52.9392 130.561 50.3627 128.409 49.9646C127.172 49.7363 125.913 50.631 126 51.9489C126.029 52.4154 126.742 52.3179 126.716 51.8542C126.663 50.8389 126.521 49.8354 126.273 48.849C126.06 47.9986 125.825 47.1118 125.347 46.3716C124.958 45.7666 124.328 45.3109 123.579 45.3806C122.923 45.4412 122.335 45.8913 122.005 46.4477C121.767 46.8448 122.341 47.2916 122.581 46.8908L122.577 46.8913Z" fill="black"/>
<path d="M133.038 58.9307C134.283 59.8831 135.482 60.9005 136.54 62.0605C137.576 63.1974 138.47 64.4509 139.311 65.7409C139.565 66.132 140.137 65.684 139.884 65.2962C139.026 63.9757 138.108 62.6959 137.04 61.5371C135.961 60.3603 134.746 59.3222 133.479 58.3563C133.11 58.072 132.668 58.6497 133.038 58.934L133.038 58.9307Z" fill="black"/>
<path d="M128.285 59.2C127.416 56.8162 126.826 54.3955 126.714 51.8529C126.695 51.3851 125.975 51.4835 125.998 51.9476C126.114 54.5517 126.73 57.0408 127.619 59.4807C127.778 59.9202 128.446 59.6359 128.284 59.1968L128.285 59.2Z" fill="black"/>
<path d="M123.224 59.1122C122.287 57.0935 121.967 54.794 121.886 52.5869C121.819 50.7013 121.863 48.5693 122.627 46.8124C122.814 46.3826 122.145 46.1019 121.958 46.5317C121.16 48.3748 121.103 50.5772 121.166 52.5515C121.237 54.8611 121.577 57.2854 122.559 59.3962C122.754 59.8178 123.424 59.5398 123.224 59.1122Z" fill="black"/>
<path d="M127.466 158.943C127.639 160.221 126.745 161.401 125.468 161.578L105.279 164.367L104.649 159.735L124.839 156.947C126.116 156.769 127.291 157.664 127.466 158.943Z" fill="#7C7F84"/>
<path d="M110.228 158.944L113.322 163.285L108.395 163.953L107.917 159.294L110.228 158.944Z" fill="#7C7F84"/>
<ellipse cx="92.4234" cy="163.446" rx="16.9426" ry="16.913" transform="rotate(-141.891 92.4234 163.446)" fill="#7C7F84"/>
<ellipse cx="91.3515" cy="163.59" rx="16.014" ry="15.986" transform="rotate(-141.891 91.3515 163.59)" fill="#EDEDED"/>
<ellipse cx="91.3537" cy="163.588" rx="13.2099" ry="13.1868" transform="rotate(-141.891 91.3537 163.588)" fill="#7C7F84"/>
<ellipse cx="92.252" cy="163.482" rx="12.5701" ry="12.5481" transform="rotate(-141.891 92.252 163.482)" fill="white"/>
<ellipse cx="92.252" cy="163.482" rx="12.5701" ry="12.5481" transform="rotate(-141.891 92.252 163.482)" fill="white"/>
<path d="M120.454 163.718C118.999 163.893 117.677 162.855 117.5 161.401L117.238 159.25C117.061 157.796 118.096 156.476 119.551 156.302L130.983 154.93C133.031 154.684 134.894 156.145 135.143 158.193C135.393 160.242 133.934 162.101 131.886 162.347L120.454 163.718Z" fill="#242932"/>
<path fill-rule="evenodd" clip-rule="evenodd" d="M97.2029 158.536C97.8247 159.157 97.8574 160.143 97.3011 160.802L97.2029 160.909L94.6266 163.48L97.2029 166.053C97.8591 166.708 97.8591 167.77 97.2029 168.425C96.5811 169.046 95.5934 169.078 94.9332 168.523L94.8263 168.425L92.2493 165.853L89.6735 168.425C89.0173 169.08 87.9532 169.08 87.297 168.425C86.6752 167.804 86.6425 166.818 87.1988 166.159L87.297 166.053L89.8719 163.48L87.2969 160.909C86.6406 160.254 86.6406 159.191 87.2969 158.536C87.9186 157.916 88.9063 157.883 89.5666 158.438L89.6735 158.536L92.2493 161.107L94.8264 158.536C95.4826 157.881 96.5467 157.881 97.2029 158.536Z" fill="#242932"/>
<path fill-rule="evenodd" clip-rule="evenodd" d="M99.6542 157.511C94.4273 153.411 86.8722 154.317 82.7796 159.535C82.7688 159.549 82.758 159.563 82.7472 159.576C83.1039 158.54 83.6369 157.544 84.3513 156.634C87.7953 152.243 94.1528 151.48 98.5513 154.93C100.246 156.259 101.402 158.02 101.987 159.933C101.342 159.041 100.563 158.224 99.6542 157.511Z" fill="#D8D8D8"/>
<path d="M165.749 140.702C165.738 140.667 165.722 140.628 165.699 140.595C163.14 136.704 159.359 133.694 154.962 132.076C153.702 131.612 152.401 131.281 151.074 131.054C150.767 131.001 150.474 131.224 150.356 131.501C150.251 131.501 150.134 131.527 150.018 131.596C145.371 134.22 140.657 136.887 136.701 140.502C131.882 144.899 128.089 150.401 125.467 156.3C122.928 162.017 120.902 168.546 119.978 174.746C119.78 176.062 119.498 177.577 120.008 178.851C120.438 179.925 121.628 180.769 122.815 180.423C124.323 179.982 124.644 178.209 125.124 176.943C126.125 174.286 127.26 169.269 128.244 167.652C128.358 167.463 128.655 167.547 128.693 167.765C128.824 168.53 128.988 169.289 129.175 170.044C129.6 171.722 130.429 174.383 131.168 175.95C131.855 177.403 132.786 178.767 134.103 179.727C135.265 180.572 136.84 181.15 138.292 180.853C139.784 180.548 140.894 179.281 140.34 177.736C140.074 176.992 139.531 176.373 139.114 175.709C139.096 175.683 139.083 175.657 139.069 175.63C140.032 176.035 141.135 176.146 142.146 175.885C142.785 175.72 143.425 175.388 143.799 174.825C144.282 174.095 144.09 173.295 143.699 172.572C143.531 172.267 143.366 171.958 143.198 171.653C144.208 172.016 145.319 171.951 146.198 171.119C147.714 169.695 147.384 167.553 146.9 165.766C146.422 164.007 146.241 162.269 146.644 160.468C146.661 160.386 146.684 160.307 146.701 160.224C146.754 160.018 146.896 159.845 147.081 159.739C149.868 158.189 150.744 154.799 151.373 151.544C151.543 150.667 152.084 149.909 152.861 149.459C156.179 147.532 165.1 142.355 165.705 142.013C165.217 142.287 166.132 140.949 165.74 140.7L165.749 140.702Z" fill="#FED8B4"/>
<path d="M168.131 144.35C168.16 144.332 168.145 144.339 168.104 144.363C168.112 144.362 168.12 144.36 168.131 144.35Z" fill="#FED8B4"/>
<path d="M133.729 163.316C133.467 167.736 135.295 171.968 138.065 175.344C138.4 175.75 139.021 175.214 138.686 174.804C136.059 171.6 134.304 167.574 134.55 163.378C134.582 162.851 133.761 162.789 133.729 163.316Z" fill="black"/>
<path d="M139.875 160.958C139.492 164.728 140.518 168.516 142.719 171.598C143.024 172.026 143.645 171.482 143.34 171.058C141.271 168.158 140.336 164.56 140.696 161.02C140.75 160.494 139.929 160.436 139.875 160.958Z" fill="black"/>
<path d="M128.187 164.302C127.977 164.971 127.864 165.667 127.869 166.365C127.868 166.578 128.011 166.795 128.247 166.804C128.454 166.81 128.692 166.655 128.69 166.427C128.69 166.102 128.711 165.774 128.757 165.453C128.768 165.376 128.782 165.298 128.796 165.221C128.805 165.177 128.813 165.13 128.821 165.087C128.805 165.156 128.821 165.087 128.828 165.06C128.868 164.895 128.912 164.732 128.961 164.573C129.026 164.369 128.927 164.118 128.709 164.051C128.504 163.987 128.254 164.085 128.183 164.303L128.187 164.302Z" fill="black"/>
<path d="M215.957 114.753C215.309 112.761 214.631 110.779 213.925 108.809C212.509 104.867 210.992 100.963 209.363 97.1037C208.975 96.1812 208.571 95.2619 208.164 94.3457C203.644 95.6258 199.153 96.9984 194.69 98.4636C189.572 100.146 184.425 101.844 179.437 103.89C179.275 103.957 179.116 104.024 178.954 104.091C180.105 106.355 181.266 108.615 182.437 110.865C180.328 111.682 178.228 112.528 176.138 113.393C171.602 115.274 167.105 117.256 162.658 119.337C149.609 125.444 138.855 138.836 138.855 138.836L153.678 151.999C160.87 150.365 168.011 148.485 175.13 146.56C183.241 144.367 191.432 142.471 199.461 139.981C203.234 138.813 206.873 137.354 210.582 136.019C215.977 134.079 218.21 129.102 217.92 123.564C217.761 120.534 216.886 117.62 215.954 114.753H215.957Z" fill="#9DA0A3"/>
<g clip-path="url(#clip0_7979_15241)">
<path d="M172.104 95.6476C172.728 97.4312 173.351 99.2149 173.975 100.995C174.973 103.852 175.972 106.711 176.973 109.568C177.2 110.218 177.428 110.872 177.658 111.523C177.72 111.697 177.895 111.837 178.082 111.77C179.32 111.342 180.555 110.913 181.793 110.485C182.211 110.339 182.033 109.653 181.609 109.799C180.371 110.228 179.136 110.656 177.898 111.085C178.039 111.167 178.18 111.25 178.322 111.332C177.698 109.549 177.074 107.765 176.451 105.984C175.449 103.128 174.451 100.272 173.453 97.4153C173.225 96.7647 172.998 96.1109 172.768 95.4603C172.62 95.0318 171.953 95.2159 172.104 95.6476Z" fill="black"/>
</g>
<path d="M178.44 111.766C183.781 109.624 190.045 107.207 195.637 109.94C196.047 110.141 196.41 109.525 195.996 109.32C190.197 106.486 183.807 108.845 178.25 111.073C177.83 111.242 178.011 111.935 178.44 111.762V111.766Z" fill="black"/>
<path d="M126.224 66.9895C125.336 66.4045 124.146 66.6161 123.517 67.4728C122.453 68.9216 121.393 70.3734 120.333 71.8191C117.358 75.8601 114.416 79.9122 111.496 83.9977C106.179 91.4247 102.771 96.8312 97.6415 104.403L82.5919 98.4978C80.9007 104.211 78.2382 109.175 77.2482 114.997C75.7273 123.967 74.817 135.313 82.8213 141.652C85.9631 144.139 90.1262 144.994 94.0562 144.572C98.2638 144.117 102.116 142.374 105.435 139.765C114.226 132.861 121.883 121.375 127.216 111.741C131.846 103.381 136.32 96.5426 140.028 87.7278C141.338 84.6083 142.515 81.3999 143.003 78.0471L126.224 66.9895Z" fill="#9DA0A3"/>
<path d="M125.494 66.7488C125.298 66.345 124.91 66.1385 124.459 66.2077C123.868 66.2965 123.539 66.8409 123.238 67.2927C122.413 68.5368 121.585 69.7812 120.76 71.0289C119.075 73.5671 117.386 76.1092 115.701 78.6474C112.404 83.6164 109.08 88.5662 105.833 93.5667C104.025 96.3535 102.244 99.1631 100.535 102.013C100.295 102.409 100.953 102.71 101.19 102.318C104.051 97.5467 107.108 92.8909 110.184 88.2514C113.279 83.5813 116.381 78.9142 119.48 74.2474C120.341 72.9533 121.201 71.6592 122.058 70.3619C122.486 69.715 122.918 69.0678 123.346 68.4209C123.57 68.084 123.786 67.7406 124.018 67.4102C124.115 67.2719 124.629 66.6102 124.816 67.0003C125.016 67.4145 125.695 67.1666 125.494 66.7488Z" fill="black"/>
<path d="M136.579 74.056C138.407 75.1096 140.103 76.4595 141.79 77.7166C142.163 77.9929 142.533 78.2732 142.896 78.5576C143.06 78.687 143.238 78.8079 143.358 78.9772C143.607 79.3223 143.545 79.6411 143.411 80.0167C142.969 81.2842 142.468 82.5318 141.939 83.7638C139.377 89.7222 136.195 95.4154 132.976 101.044C131.137 104.258 129.259 107.451 127.39 110.65C127.157 111.049 127.812 111.351 128.045 110.955C131.529 104.997 135.048 99.0578 138.273 92.9574C139.781 90.1037 141.235 87.2117 142.516 84.2488C143.075 82.9564 143.601 81.6526 144.066 80.3218C144.301 79.6563 144.351 79.0396 143.867 78.4599C143.603 78.1415 143.225 77.898 142.895 77.6502C141.843 76.8476 140.776 76.0681 139.698 75.3002C138.779 74.6442 137.862 73.9628 136.883 73.4022C136.481 73.1716 136.177 73.8219 136.575 74.0527L136.579 74.056Z" fill="black"/>
<path d="M117.732 77.0613C123.592 80.0518 128.798 84.2207 133.762 88.4796C135.122 89.6472 136.466 90.8306 137.802 92.0218C138.149 92.3293 138.612 91.7802 138.265 91.4727C133.32 87.068 128.27 82.7015 122.684 79.1068C121.178 78.1359 119.634 77.2297 118.037 76.4147C117.623 76.2033 117.315 76.8538 117.729 77.0652L117.732 77.0613Z" fill="black"/>
<path fill-rule="evenodd" clip-rule="evenodd" d="M236.582 83.5578C237.337 80.494 237.288 77.5436 237.378 74.436C237.396 73.8291 236.918 73.3245 236.311 73.3063C235.704 73.288 235.197 73.7669 235.179 74.3738C235.093 77.3206 235.163 80.1247 234.445 83.0349C234.3 83.6236 234.661 84.2195 235.251 84.3621C235.84 84.5083 236.437 84.1464 236.582 83.5578Z" fill="#7C7F84"/>
<path fill-rule="evenodd" clip-rule="evenodd" d="M243.004 89.495C248.131 84.8226 252.962 78.8121 256.338 72.7431C256.633 72.213 256.441 71.5439 255.91 71.2514C255.379 70.959 254.709 71.1491 254.414 71.6792C251.149 77.5471 246.478 83.3602 241.52 87.8754C241.072 88.2849 241.041 88.9795 241.45 89.4255C241.86 89.8716 242.556 89.9045 243.004 89.495Z" fill="#7C7F84"/>
<path fill-rule="evenodd" clip-rule="evenodd" d="M244.305 94.5986C248.994 95.37 253.827 94.0538 258.091 92.1929C258.647 91.948 258.901 91.3009 258.658 90.7488C258.414 90.1931 257.765 89.9408 257.209 90.1821C253.325 91.8785 248.934 93.1362 244.663 92.4342C244.064 92.3355 243.497 92.7413 243.399 93.3372C243.3 93.9332 243.706 94.4998 244.305 94.5986Z" fill="#7C7F84"/>
<path d="M217.415 157.861C217.537 157.283 218.361 157.283 218.484 157.861L220.351 166.681C220.395 166.892 220.559 167.056 220.769 167.102L229.498 169.004C230.072 169.129 230.072 169.947 229.498 170.072L220.769 171.973C220.559 172.019 220.395 172.184 220.351 172.394L218.484 181.215C218.361 181.793 217.537 181.793 217.415 181.215L215.547 172.394C215.503 172.184 215.339 172.019 215.129 171.973L206.4 170.072C205.827 169.947 205.827 169.129 206.4 169.004L215.129 167.102C215.339 167.056 215.503 166.892 215.547 166.681L217.415 157.861Z" fill="white"/>
<path d="M67.1807 133.024C66.8639 132.956 66.8639 132.504 67.1807 132.437L71.3898 131.542C71.5052 131.517 71.5956 131.427 71.6206 131.312L72.5272 127.131C72.5955 126.816 73.0452 126.816 73.1136 127.131L74.0202 131.312C74.0452 131.427 74.1355 131.517 74.251 131.542L78.4601 132.437C78.7769 132.504 78.7769 132.956 78.4601 133.024L74.251 133.919C74.1355 133.943 74.0452 134.033 74.0202 134.149L73.1136 138.33C73.0452 138.645 72.5955 138.645 72.5272 138.33L71.6206 134.149C71.5956 134.033 71.5052 133.943 71.3898 133.919L67.1807 133.024Z" fill="white"/>
<path d="M53.8604 91.9531C64.636 96.9937 76.2153 100.097 88.0675 101.119C86.466 104.842 75.087 123.477 41.3085 138.832C40.3953 138.972 19.3022 129.159 7.72656 122.43C8.11991 122.992 43.6826 109.907 53.8604 91.9531Z" fill="#D8D8D8"/>
<path d="M53.0285 101.219C53.5244 100.874 54.1524 100.782 54.7266 100.967L73.5796 107.067C74.255 107.285 74.4956 108.117 74.0412 108.663C73.6752 109.102 73.0763 109.269 72.5355 109.084L53.2015 102.462C52.656 102.275 52.5547 101.547 53.0285 101.219Z" fill="#EDEDED"/>
<path d="M47.7459 106.24C48.224 105.791 48.9104 105.641 49.5321 105.85L62.5837 110.243C63.1592 110.436 63.3624 111.146 62.9765 111.615C62.6612 111.998 62.1416 112.146 61.672 111.986L47.9803 107.324C47.5181 107.167 47.3899 106.574 47.7459 106.24Z" fill="#EDEDED"/>
<path d="M42.3229 110.407C42.8219 110.008 43.4931 109.897 44.0939 110.115L59.1277 115.579C59.7178 115.794 59.8954 116.542 59.4645 116.999C59.1349 117.348 58.6288 117.468 58.1779 117.302L42.5098 111.553C42.0228 111.374 41.918 110.732 42.3229 110.407Z" fill="#EDEDED"/>
<path d="M30.1167 118.747C30.5789 118.236 31.3072 118.061 31.9508 118.307L40.5427 121.585C41.0703 121.787 41.2605 122.436 40.9251 122.89C40.6108 123.316 40.0504 123.478 39.5569 123.287L30.3477 119.72C29.9506 119.567 29.831 119.062 30.1167 118.747Z" fill="#EDEDED"/>
<path d="M35.725 114.292C36.2336 113.973 36.8611 113.907 37.4249 114.113L57.2216 121.352C57.8543 121.583 58.0076 122.408 57.5002 122.851C57.1646 123.144 56.6957 123.231 56.2776 123.077L35.8562 115.554C35.3055 115.351 35.2278 114.604 35.725 114.292Z" fill="#EDEDED"/>
<path d="M242.998 121.258C231.317 126.722 218.765 130.085 205.917 131.194C207.653 135.23 219.988 155.43 256.604 172.075C257.594 172.227 280.46 161.59 293.008 154.296C292.581 154.905 254.031 140.72 242.998 121.258Z" fill="#D8D8D8"/>
<path d="M243.902 131.302C243.365 130.929 242.684 130.828 242.061 131.03L221.624 137.642C220.892 137.878 220.631 138.78 221.124 139.371C221.521 139.847 222.17 140.029 222.756 139.828L243.715 132.65C244.306 132.447 244.416 131.658 243.902 131.302Z" fill="#EDEDED"/>
<path d="M243.546 139.445C243.027 138.959 242.283 138.797 241.609 139.023L227.461 143.785C226.837 143.995 226.617 144.765 227.035 145.273C227.377 145.688 227.94 145.848 228.45 145.675L243.292 140.621C243.793 140.451 243.932 139.808 243.546 139.445Z" fill="#EDEDED"/>
<path d="M251.141 143.477C250.6 143.044 249.872 142.924 249.221 143.161L232.924 149.084C232.284 149.316 232.092 150.128 232.559 150.623C232.916 151.001 233.465 151.131 233.954 150.951L250.938 144.719C251.466 144.525 251.58 143.829 251.141 143.477Z" fill="#EDEDED"/>
<path d="M262.475 146.15C261.924 145.804 261.244 145.733 260.633 145.956L239.173 153.802C238.487 154.053 238.321 154.947 238.871 155.428C239.234 155.746 239.743 155.839 240.196 155.672L262.333 147.518C262.93 147.298 263.014 146.488 262.475 146.15Z" fill="#EDEDED"/>
<defs>
<clipPath id="clip0_7979_15241">
<rect width="9.94402" height="16.5734" fill="white" transform="translate(172.082 95.2158)"/>
</clipPath>
</defs>
</svg>
