<svg width="300" height="200" viewBox="0 0 300 200" fill="none" xmlns="http://www.w3.org/2000/svg">
<g clip-path="url(#clip0_7979_15480)">
<circle cx="149" cy="92" r="78.5" fill="#F0F0F0" stroke="#EDEDED"/>
<circle cx="149" cy="92" r="71" fill="#D8DADA"/>
<circle cx="56.8882" cy="85.7681" r="6.23193" fill="#7C7F84"/>
<circle cx="91.3882" cy="167.896" r="4.17334" fill="#7C7F84"/>
<path d="M45.1313 57.9823C45.2065 57.6274 45.7131 57.6274 45.7882 57.9823L47.4351 65.7629C47.4625 65.8922 47.5631 65.9933 47.6921 66.0214L55.3826 67.6968C55.7349 67.7736 55.7349 68.2761 55.3826 68.3529L47.6921 70.0282C47.5631 70.0563 47.4625 70.1575 47.4351 70.2867L45.7882 78.0673C45.7131 78.4223 45.2065 78.4223 45.1313 78.0673L43.4844 70.2867C43.4571 70.1575 43.3565 70.0563 43.2274 70.0282L35.537 68.3529C35.1846 68.2761 35.1846 67.7736 35.537 67.6968L43.2274 66.0214C43.3565 65.9933 43.4571 65.8922 43.4844 65.7629L45.1313 57.9823Z" fill="#7C7F84"/>
<circle cx="234.882" cy="59.8821" r="6.88214" fill="#7C7F84"/>
<path d="M209.468 21.6054C209.543 21.2504 210.049 21.2504 210.124 21.6054L210.779 24.6983C210.807 24.8275 210.907 24.9287 211.036 24.9568L214.106 25.6256C214.458 25.7023 214.458 26.2048 214.106 26.2816L211.036 26.9503C210.907 26.9785 210.807 27.0796 210.779 27.2088L210.124 30.3018C210.049 30.6567 209.543 30.6567 209.468 30.3018L208.813 27.2088C208.786 27.0796 208.685 26.9785 208.556 26.9503L205.486 26.2816C205.134 26.2048 205.134 25.7023 205.486 25.6256L208.556 24.9568C208.685 24.9287 208.786 24.8275 208.813 24.6983L209.468 21.6054Z" fill="#7C7F84"/>
<circle cx="232.5" cy="72.5" r="2.5" fill="#7C7F84"/>
<path fill-rule="evenodd" clip-rule="evenodd" d="M176.538 138.583H113.457C109.017 138.583 105.383 134.938 105.383 130.483V40.5259C105.383 36.071 109.017 32.4277 113.457 32.4277H176.538C180.98 32.4277 184.614 36.071 184.614 40.5259V130.483C184.614 134.938 180.98 138.583 176.538 138.583Z" fill="#9DA0A3"/>
<path fill-rule="evenodd" clip-rule="evenodd" d="M171.302 134.853H108.091C103.642 134.853 100 131.223 100 126.787V37.2023C100 32.7659 103.642 29.1377 108.091 29.1377H171.302C175.753 29.1377 179.395 32.7659 179.395 37.2023V126.787C179.395 131.223 175.753 134.853 171.302 134.853Z" fill="white"/>
<path fill-rule="evenodd" clip-rule="evenodd" d="M162.188 56.4309H115.499C114.166 56.4309 113.074 55.3925 113.074 54.124C113.074 52.8538 114.166 51.8154 115.499 51.8154H162.188C163.522 51.8154 164.613 52.8538 164.613 54.124C164.613 55.3925 163.522 56.4309 162.188 56.4309Z" fill="#9DA0A3"/>
<path fill-rule="evenodd" clip-rule="evenodd" d="M162.188 70.2775H115.499C114.166 70.2775 113.074 69.2392 113.074 67.9707C113.074 66.7005 114.166 65.6621 115.499 65.6621H162.188C163.522 65.6621 164.613 66.7005 164.613 67.9707C164.613 69.2392 163.522 70.2775 162.188 70.2775Z" fill="#9DA0A3"/>
<path fill-rule="evenodd" clip-rule="evenodd" d="M162.188 84.1232H115.499C114.166 84.1232 113.074 83.0849 113.074 81.8164C113.074 80.5479 114.166 79.5078 115.499 79.5078H162.188C163.522 79.5078 164.613 80.5479 164.613 81.8164C164.613 83.0849 163.522 84.1232 162.188 84.1232Z" fill="#9DA0A3"/>
<path fill-rule="evenodd" clip-rule="evenodd" d="M162.188 97.9689H115.499C114.166 97.9689 113.074 96.9306 113.074 95.6621C113.074 94.3919 114.166 93.3535 115.499 93.3535H162.188C163.522 93.3535 164.613 94.3919 164.613 95.6621C164.613 96.9306 163.522 97.9689 162.188 97.9689Z" fill="#9DA0A3"/>
<path fill-rule="evenodd" clip-rule="evenodd" d="M173.198 99.3225H152.96C150.845 99.3225 149.113 97.6751 149.113 95.6626C149.113 93.6473 150.845 92 152.96 92H173.198C175.313 92 177.045 93.6473 177.045 95.6626C177.045 97.6751 175.313 99.3225 173.198 99.3225Z" fill="#9DA0A3"/>
<path fill-rule="evenodd" clip-rule="evenodd" d="M172.198 113.17H149.96C147.845 113.17 146.113 111.523 146.113 109.51C146.113 107.495 147.845 105.848 149.96 105.848H172.198C174.313 105.848 176.045 107.495 176.045 109.51C176.045 111.523 174.313 113.17 172.198 113.17Z" fill="#9DA0A3"/>
<path fill-rule="evenodd" clip-rule="evenodd" d="M146.87 111.817H115.509C114.17 111.817 113.074 110.778 113.074 109.51C113.074 108.24 114.17 107.201 115.509 107.201H146.87C148.209 107.201 149.305 108.24 149.305 109.51C149.305 110.778 148.209 111.817 146.87 111.817Z" fill="#9DA0A3"/>
<mask id="mask0_7979_15480" style="mask-type:alpha" maskUnits="userSpaceOnUse" x="100" y="29" width="80" height="106">
<path fill-rule="evenodd" clip-rule="evenodd" d="M171.302 134.853H108.091C103.642 134.853 100 131.223 100 126.787V37.2023C100 32.7659 103.642 29.1377 108.091 29.1377H171.302C175.753 29.1377 179.395 32.7659 179.395 37.2023V126.787C179.395 131.223 175.753 134.853 171.302 134.853Z" fill="#EDEDED"/>
</mask>
<g mask="url(#mask0_7979_15480)">
<g style="mix-blend-mode:multiply">
<path fill-rule="evenodd" clip-rule="evenodd" d="M167.464 144.499C150.95 143.383 138.466 129.115 139.579 112.63C140.693 96.1447 154.983 83.685 171.497 84.8005C188.011 85.916 200.496 100.184 199.382 116.67C198.269 133.155 183.979 145.614 167.464 144.499ZM167.796 136.548C155.544 135.72 146.282 125.134 147.108 112.904C147.934 100.673 158.536 91.4287 170.788 92.2564C183.04 93.084 192.303 103.67 191.477 115.901C190.651 128.131 180.048 137.376 167.796 136.548Z" fill="#9DA0A3"/>
</g>
<g style="mix-blend-mode:multiply">
<path d="M139.711 55.3895C139.711 48.2767 133.945 42.5107 126.832 42.5107H80.3436C73.2308 42.5107 67.4648 48.2767 67.4648 55.3895C67.4648 62.5022 73.2308 68.2682 80.3436 68.2682H126.832C133.945 68.2682 139.711 62.5022 139.711 55.3895Z" fill="#9DA0A3"/>
</g>
</g>
<path d="M207.673 155.91C204.75 154.755 201.774 155.785 200.301 157.236C198.832 158.693 198.12 161.496 200.629 164.401C203.139 167.306 216.172 184.744 224.099 190.648C232.02 196.55 253.84 195.767 253.84 195.767L240.431 160.549L207.674 155.905L207.673 155.91Z" fill="#FFDFC1"/>
<path d="M213.235 158.028C214.974 156.552 215.196 153.944 213.726 152.2L190.473 124.648L184.166 129.994L207.419 157.546C208.888 159.29 211.493 159.503 213.235 158.028Z" fill="#9DA0A3"/>
<path d="M190.566 137.635L199.77 135.587L194.081 128.88L187.94 134.441L190.566 137.635Z" fill="#7C7F84"/>
<path fill-rule="evenodd" clip-rule="evenodd" d="M170.464 140.499C153.95 139.383 141.466 125.115 142.579 108.63C143.693 92.1447 157.983 79.685 174.497 80.8005C191.011 81.916 203.496 96.1843 202.382 112.67C201.269 129.155 186.979 141.614 170.464 140.499ZM170.796 132.548C158.544 131.72 149.282 121.134 150.108 108.904C150.934 96.6728 161.536 87.4287 173.788 88.2564C186.04 89.084 195.303 99.6699 194.477 111.901C193.651 124.131 183.048 133.376 170.796 132.548Z" fill="#9DA0A3"/>
<path fill-rule="evenodd" clip-rule="evenodd" d="M169.332 137.41C153.723 136.356 141.923 122.869 142.975 107.288C144.028 91.7059 157.535 79.9291 173.144 80.9835C188.753 82.0378 200.553 95.5241 199.5 111.106C198.448 126.688 184.941 138.464 169.332 137.41ZM170.796 132.548C158.544 131.72 149.282 121.134 150.108 108.904C150.934 96.6728 161.536 87.4287 173.788 88.2564C186.04 89.084 195.303 99.6699 194.477 111.901C193.651 124.131 183.048 133.376 170.796 132.548Z" fill="#D8DADA"/>
<path fill-rule="evenodd" clip-rule="evenodd" d="M169.667 132.47C156.791 131.601 147.057 120.476 147.925 107.622C148.794 94.7691 159.935 85.0545 172.811 85.9242C185.687 86.794 195.421 97.9187 194.553 110.772C194.54 110.963 194.525 111.153 194.508 111.342C195.02 99.3492 185.853 89.0713 173.788 88.2564C161.536 87.4287 150.934 96.6728 150.108 108.904C149.295 120.939 158.251 131.382 170.211 132.501C170.03 132.493 169.849 132.483 169.667 132.47Z" fill="#9DA0A3"/>
<ellipse cx="22.2351" cy="22.1963" rx="22.2351" ry="22.1963" transform="matrix(-0.997726 -0.0673949 -0.0673949 0.997726 195.973 89.7549)" fill="white" fill-opacity="0.64"/>
<path d="M209.208 142.937C207.754 141.275 205.224 141.104 203.559 142.555L199.628 145.984C197.963 147.435 197.792 149.96 199.247 151.623L213.114 167.471C215.517 170.217 219.695 170.5 222.446 168.101C225.197 165.703 225.479 161.532 223.075 158.785L209.208 142.937Z" fill="#242932"/>
<path fill-rule="evenodd" clip-rule="evenodd" d="M181.05 119.148C182.149 118.051 182.207 116.306 181.223 115.141L181.05 114.952L176.492 110.403L181.05 105.853C182.21 104.694 182.21 102.815 181.05 101.656C179.95 100.558 178.203 100.501 177.035 101.483L176.846 101.656L172.287 106.205L167.731 101.656C166.57 100.497 164.688 100.497 163.527 101.656C162.427 102.754 162.369 104.498 163.353 105.664L163.527 105.853L168.082 110.403L163.527 114.952C162.366 116.111 162.366 117.99 163.527 119.148C164.627 120.246 166.374 120.304 167.542 119.322L167.731 119.148L172.287 114.601L176.846 119.148C178.007 120.307 179.889 120.307 181.05 119.148Z" fill="#242932"/>
<path fill-rule="evenodd" clip-rule="evenodd" d="M174.951 127.006C163.227 126.214 154.364 116.084 155.154 104.381C155.156 104.36 155.157 104.34 155.158 104.32C154.408 106.097 153.935 108.028 153.798 110.061C153.133 119.909 160.591 128.433 170.457 129.1C174.265 129.357 177.876 128.406 180.912 126.574C179.001 126.988 177 127.144 174.951 127.006Z" fill="white"/>
<path d="M216.891 169.66L229.399 159.746L228.195 181.799L223.47 184.393L221.153 181.799L217.633 175.776L216.891 169.66Z" fill="#FFDFC1"/>
<path d="M231.64 189.135C225.499 183.846 222.671 173.473 228.654 166.865C229.058 166.419 229.71 167.093 229.306 167.54C223.649 173.788 226.605 183.555 232.321 188.478C232.781 188.875 232.102 189.521 231.647 189.131L231.64 189.135Z" fill="#242932"/>
<path d="M276.76 159.117L255.562 158.822C255.562 158.822 256.505 134.519 234.039 132.315C215.604 130.508 207.423 148.765 206.207 152.483C204.989 156.205 203.487 161.471 206.065 162.691C208.649 163.913 210.747 162.85 210.747 162.85C210.747 162.85 208.705 166.853 211.441 170.437C212.922 172.381 216.285 172.139 216.285 172.139C216.285 172.139 215.943 175.161 219.809 176.256C223.473 177.294 227.816 172.628 229.407 171.086C231.952 168.616 237.387 164.727 237.387 164.727C237.387 164.727 240.706 195.514 252.428 195.741C264.156 195.97 276.086 195.676 276.086 195.676C276.086 195.676 286.727 177.059 276.767 159.113L276.76 159.117Z" fill="#FFDFC1"/>
<path d="M234.399 142.474C223.942 144.794 215.404 152.295 211.47 162.244C211.252 162.803 210.343 162.551 210.568 161.989C214.624 151.726 223.368 143.956 234.167 141.564C234.76 141.433 234.992 142.342 234.399 142.474Z" fill="#242932"/>
<path d="M239.144 150.396C229.227 154.981 219.954 161.616 216.505 172.486C216.321 173.06 215.418 172.809 215.603 172.23C219.131 161.121 228.53 154.271 238.684 149.579C239.229 149.326 239.69 150.142 239.143 150.401L239.144 150.396Z" fill="#242932"/>
<path d="M239.481 164.504C236.511 166.418 233.621 168.453 230.842 170.649C228.563 172.448 226.407 174.718 223.727 175.913C220.611 177.306 215.707 176.549 215.588 172.356C215.569 171.752 216.508 171.762 216.529 172.361C216.639 176.258 221.455 176.076 223.919 174.775C225.87 173.749 227.488 172.149 229.191 170.77C232.335 168.224 235.625 165.873 239.028 163.679C239.536 163.349 239.995 164.171 239.487 164.501L239.481 164.504Z" fill="#242932"/>
<path d="M210.86 163.523C208.826 164.417 206.654 164.494 205.207 162.548C203.234 159.897 204.943 155.514 205.599 152.386C205.722 151.795 206.625 152.051 206.501 152.642C206.164 154.234 204.836 159.128 205.328 160.737C206.07 163.174 208.259 163.652 210.4 162.707C210.947 162.465 211.413 163.282 210.858 163.528L210.86 163.523Z" fill="#242932"/>
<path d="M255.446 165.921C255.623 163.646 255.622 161.381 255.443 159.109C255.395 158.508 256.335 158.518 256.383 159.114C256.562 161.386 256.563 163.651 256.387 165.926C256.342 166.529 255.401 166.524 255.446 165.921Z" fill="#242932"/>
<path d="M207.044 163.085C208.472 159.929 210.414 154.936 206.321 152.911C205.782 152.644 206.271 151.841 206.81 152.108C211.432 154.397 209.48 159.964 207.848 163.574C207.599 164.124 206.797 163.63 207.044 163.085Z" fill="#242932"/>
<path d="M212.591 171.026C214.019 167.87 215.961 162.878 211.868 160.853C211.329 160.586 211.818 159.782 212.357 160.049C216.979 162.338 215.027 167.905 213.395 171.515C213.146 172.066 212.344 171.572 212.591 171.026Z" fill="#242932"/>
<path d="M219.109 175.518C220.213 173.082 222.546 167.748 219.319 165.876C218.795 165.575 219.284 164.772 219.808 165.073C223.602 167.268 221.241 173.068 219.914 176.002C219.666 176.553 218.864 176.059 219.111 175.513L219.109 175.518Z" fill="#242932"/>
<path d="M216.053 172.825C213.472 172.731 211.211 172.101 210.123 169.561C209.078 167.12 209.665 164.373 210.568 161.994C210.781 161.434 211.684 161.684 211.47 162.249C210.743 164.161 210.188 166.258 210.687 168.3C211.358 171.027 213.492 171.795 216.058 171.884C216.661 171.908 216.658 172.844 216.053 172.825Z" fill="#242932"/>
<path d="M168.426 34.9072L169.773 41.269L176.044 42.6352L169.773 44.0013L168.426 50.3631L167.08 44.0013L160.809 42.6352L167.08 41.269L168.426 34.9072Z" fill="#F0F0F0"/>
<path d="M113.074 118.161L113.87 121.866L117.574 122.661L113.87 123.457L113.074 127.161L112.279 123.457L108.574 122.661L112.279 121.866L113.074 118.161Z" fill="#7C7F84"/>
<path d="M90.9359 154.966C94.2936 150.234 97.0617 145.206 100.184 140.349" stroke="#7C7F84" stroke-width="2" stroke-miterlimit="1.5" stroke-linecap="round" stroke-linejoin="round"/>
<path d="M74.1488 155.372C81.9816 149.753 89.2896 143.236 96.1289 136.572" stroke="#7C7F84" stroke-width="2" stroke-miterlimit="1.5" stroke-linecap="round" stroke-linejoin="round"/>
<path d="M71.6681 139.306C78.3245 138.31 87.1697 134.176 93.6016 131.614" stroke="#7C7F84" stroke-width="2" stroke-miterlimit="1.5" stroke-linecap="round" stroke-linejoin="round"/>
<path d="M135.367 50.3631C135.367 43.2504 129.601 37.4844 122.488 37.4844H75.9998C68.8871 37.4844 63.1211 43.2504 63.1211 50.3631C63.1211 57.4758 68.8871 63.2418 75.9998 63.2418H122.488C129.601 63.2418 135.367 57.4758 135.367 50.3631Z" fill="#9DA0A3"/>
<rect width="24.3621" height="3.37802" rx="1.68901" transform="matrix(-1 0 0 1 117.301 45.3525)" fill="#242932"/>
<rect width="48.0068" height="3.37802" rx="1.68901" transform="matrix(-1 0 0 1 117.301 52.4189)" fill="white"/>
<ellipse cx="4.20035" cy="4.22253" rx="4.20035" ry="4.22253" transform="matrix(-1 0 0 1 129.066 46.3525)" fill="white"/>
</g>
<defs>
<clipPath id="clip0_7979_15480">
<rect width="300" height="200" fill="white"/>
</clipPath>
</defs>
</svg>
