<svg width="300" height="200" viewBox="0 0 300 200" fill="none" xmlns="http://www.w3.org/2000/svg">
<g clip-path="url(#clip0_7397_6562)">
<circle cx="149" cy="92" r="78.5" fill="#F1F3FF" fill-opacity="0.3" stroke="#F0F0F0"/>
<circle cx="149" cy="92" r="71" fill="#F0F0F0"/>
<circle cx="205" cy="132" r="6" fill="white"/>
<path d="M88.9498 153.059C86.7074 150.88 86.6461 147.291 88.8171 145.041L123.17 109.502L131.304 117.398L96.9505 152.937C94.7795 155.187 91.1976 155.238 88.9498 153.059Z" fill="#9DA0A3"/>
<path d="M121.839 127.257L109.438 123.606L117.839 114.957L125.725 123.131L121.839 127.257Z" fill="#7C7F84"/>
<ellipse cx="149.073" cy="92.0167" rx="41.0884" ry="41.0167" fill="#9DA0A3"/>
<ellipse cx="150.907" cy="90.1436" rx="38.8365" ry="38.7686" fill="#EDEDED"/>
<ellipse cx="150.903" cy="90.1461" rx="32.0361" ry="31.9801" fill="#9DA0A3"/>
<ellipse cx="149.352" cy="91.6948" rx="30.4844" ry="30.4311" fill="white"/>
<ellipse cx="149.352" cy="91.6948" rx="30.4844" ry="30.4311" fill="white"/>
<path d="M96.8957 131.74C98.4591 130.179 100.994 130.179 102.557 131.74L109.719 138.889C111.283 140.45 111.283 142.981 109.719 144.541L88.2362 165.987C84.695 169.522 78.9537 169.522 75.4125 165.987C71.8713 162.452 71.8713 156.721 75.4125 153.186L96.8957 131.74Z" fill="#242932"/>
<path fill-rule="evenodd" clip-rule="evenodd" d="M161.366 79.7033C162.874 81.2085 162.953 83.5996 161.604 85.1981L161.366 85.4568L155.118 91.6927L161.366 97.9316C162.957 99.5204 162.957 102.096 161.366 103.685C159.858 105.19 157.463 105.269 155.861 103.923L155.602 103.685L149.352 97.4482L143.106 103.685C141.514 105.274 138.934 105.274 137.342 103.685C135.835 102.18 135.755 99.7888 137.104 98.1903L137.342 97.9316L143.587 91.6927L137.342 85.4568C135.751 83.868 135.751 81.2921 137.342 79.7033C138.85 78.1981 141.245 78.1189 142.846 79.4657L143.106 79.7033L149.352 85.9372L155.602 79.7033C157.194 78.1145 159.774 78.1145 161.366 79.7033Z" fill="#242932"/>
<path fill-rule="evenodd" clip-rule="evenodd" d="M144.155 114.162C160.265 114.162 173.325 101.125 173.325 85.0425C173.325 85.0137 173.325 84.9849 173.325 84.9561C174.188 87.4578 174.656 90.1427 174.656 92.9369C174.656 106.47 163.666 117.441 150.109 117.441C144.877 117.441 140.026 115.807 136.043 113.021C138.618 113.764 141.34 114.162 144.155 114.162Z" fill="#EDEDED"/>
<path d="M169.618 48L170.964 54.3618L177.235 55.7279L170.964 57.094L169.618 63.4559L168.271 57.094L162 55.7279L168.271 54.3618L169.618 48Z" fill="white"/>
<path d="M136.5 122L137.295 125.705L141 126.5L137.295 127.295L136.5 131L135.705 127.295L132 126.5L135.705 125.705L136.5 122Z" fill="white"/>
<path d="M50.999 88.7243C50.999 88.7243 66.5191 91.4879 77.3354 79.7439C88.191 67.955 84.7152 43.1384 84.7152 43.1384L59.7308 37.0674L40.4531 67.2151L51.0046 88.7243H50.999Z" fill="#FED8B4"/>
<path d="M49.0779 83.1141C48.8822 85.054 49.4314 86.8907 50.5952 88.4002C50.9433 88.8536 51.5415 88.2108 51.1989 87.7631C50.1765 86.4315 49.7577 84.813 49.9318 83.1141C49.9916 82.5401 49.1378 82.5401 49.0779 83.1141Z" fill="black"/>
<path d="M84.2117 46.629C84.2117 46.629 75.9501 51.2689 71.6406 54.5814C67.3256 57.894 64.7076 64.3505 70.4349 66.8813C70.4349 66.8813 69.0337 68.7935 68.9835 71.0037C68.9444 72.8259 69.9157 74.5469 72.0593 74.9631C72.0593 74.9631 69.8152 78.6918 72.4445 81.0539C74.7834 83.1573 78.5458 81.9763 80.2651 81.0933C81.9565 80.2216 89.5706 75.143 91.4518 73.2365C93.305 71.358 93.746 68.1017 90.4526 65.8914C90.4526 65.8914 92.6631 64.6317 93.5395 61.7971C94.1814 59.7275 93.7907 56.2012 92.2277 55.1439C92.2277 55.1439 94.081 52.0394 93.2046 48.44C92.0993 43.907 87.0977 44.953 84.2117 46.6234V46.629Z" fill="#FED8B4"/>
<path d="M71.6434 68.1886C73.5247 68.4275 74.9568 67.6027 76.5292 66.6187C78.4329 65.4241 80.3198 64.1898 82.1843 62.9327C85.6717 60.5721 89.0524 58.0636 92.332 55.4186C92.7756 55.0602 92.1467 54.4288 91.7086 54.7872C88.6873 57.2274 85.5762 59.5425 82.3696 61.7325C80.8646 62.762 79.3371 63.7632 77.804 64.7472C75.9451 65.9418 73.9684 67.5913 71.6378 67.2955C71.0763 67.2216 71.0819 68.1203 71.6378 68.1886H71.6434Z" fill="black"/>
<path d="M72.4332 76.1989C75.756 76.9356 78.6144 75.0374 81.3218 73.3205C84.6893 71.1843 87.9001 68.8102 90.9711 66.2603C91.4075 65.8977 90.7865 65.2687 90.3502 65.6314C87.7547 67.7846 85.0585 69.8074 82.2504 71.6603C79.4814 73.4905 76.1531 76.1139 72.6682 75.3377C72.1144 75.213 71.8794 76.0743 72.4332 76.1989Z" fill="black"/>
<path d="M66.2806 60.7779C65.9161 64.0999 68.1802 67.2352 71.5809 67.7735C72.1196 67.8605 72.3535 67.0341 71.8094 66.9471C68.7569 66.4686 66.8084 63.752 67.1403 60.7779C67.2002 60.2342 66.3459 60.2342 66.2861 60.7779H66.2806Z" fill="black"/>
<path d="M69.6134 67.0745C67.0885 70.6932 69.0368 75.5632 73.3701 76.3523C73.9243 76.4538 74.1595 75.597 73.6052 75.4956C69.815 74.8023 68.1522 70.6989 70.3748 67.5198C70.6995 67.052 69.9381 66.6067 69.6134 67.0745Z" fill="black"/>
<path d="M71.5978 75.308C70.6844 77.8811 71.4293 80.7227 73.751 82.1658C74.224 82.4567 74.6536 81.7016 74.1805 81.4051C72.1742 80.1521 71.6468 77.7301 72.4243 75.5374C72.6146 75.006 71.7881 74.7766 71.5978 75.3024V75.308Z" fill="black"/>
<path d="M69.8545 56.3307C74.0995 53.4678 77.6385 51.1389 81.8835 48.276C82.3447 47.9634 81.9113 47.2175 81.4446 47.5301C77.1995 50.393 73.6606 52.7219 69.4155 55.5848C68.9544 55.8974 69.3877 56.6433 69.8545 56.3307Z" fill="black"/>
<path d="M72.5663 66.9887C70.1269 65.8773 70.2212 63.2079 72.1228 61.5735C73.1207 60.7127 74.784 60.0644 76.0979 60.0535C78.2768 60.0372 79.4244 62.0202 78.6981 63.9161C78.5041 64.4336 79.3412 64.657 79.5408 64.1449C80.1507 62.5432 79.7127 60.631 78.1548 59.7103C76.2753 58.5935 73.6363 59.4869 71.9676 60.6092C69.2565 62.4234 68.9848 66.3023 72.1228 67.7351C72.6273 67.9639 73.0708 67.2284 72.5608 66.9942L72.5663 66.9887Z" fill="black"/>
<path d="M74.9553 75.1215C72.405 74.0102 72.5036 71.3407 74.4917 69.7063C75.535 68.8455 77.2738 68.1972 78.6475 68.1863C80.9254 68.17 82.1252 70.153 81.3659 72.0489C81.163 72.5665 82.0382 72.7898 82.2469 72.2777C82.8845 70.676 82.4266 68.7638 80.7978 67.8431C78.833 66.7263 76.074 67.6198 74.3294 68.742C71.4951 70.5562 71.211 74.4351 74.4917 75.8679C75.0191 76.0967 75.4828 75.3612 74.9496 75.127L74.9553 75.1215Z" fill="black"/>
<path d="M77.9292 81.4215C76.1663 80.6011 76.2388 78.6587 77.6223 77.4587C78.3531 76.8224 79.5693 76.3368 80.5289 76.3312C82.0965 76.3201 82.8942 77.7601 82.3754 79.1443C82.1802 79.6745 83.0226 79.9034 83.2234 79.3787C83.6976 78.1061 83.3405 76.5936 82.1355 75.8624C80.6906 74.9861 78.6655 75.6726 77.3769 76.5489C75.2792 77.9778 75.0561 81.0532 77.494 82.1862C78.0017 82.4206 78.448 81.6671 77.9347 81.4271L77.9292 81.4215Z" fill="black"/>
<path d="M68.0715 40.4457C65.6635 36.1102 64.4595 33.9424 64.4017 31.8172C64.3529 30.0263 64.8589 28.264 65.8507 26.7707C67.0275 24.9988 69.199 23.7969 73.5421 21.3931L105.57 3.66664C109.913 1.26284 112.084 0.0609412 114.213 0.00321112C116.007 -0.0454374 117.773 0.459696 119.268 1.44968C121.043 2.62447 122.247 4.79222 124.655 9.12772L131.663 21.7441C134.071 26.0796 135.275 28.2474 135.333 30.3726C135.381 32.1635 134.875 33.9258 133.884 35.4191C132.707 37.191 130.535 38.3929 126.192 40.7967L94.1648 58.5232C89.8217 60.927 87.6501 62.1289 85.5212 62.1866C83.7271 62.2352 81.9617 61.7301 80.4659 60.7401C78.6909 59.5653 77.4869 57.3976 75.0789 53.0621L68.0715 40.4457Z" fill="#EDEDED"/>
<path d="M128.402 15.903L71.7422 46.9365L77.1917 56.8513L133.852 25.8178L128.402 15.903Z" fill="#9DA0A3"/>
<path d="M71.8844 45.3212C80.9332 47.3085 89.2692 45.6416 92.1347 44.8136C85.7708 51.0198 80.288 53.0722 75.4381 53.6768L70.6875 45.3212H71.8844Z" fill="black"/>
<path d="M6.003 71.4728L32.683 56.4773C32.683 56.4773 35.9018 34.2383 57.2033 30.1117C73.3872 26.9732 91.043 34.9177 94.4753 37.6575C97.9075 40.403 95.3572 44.9115 92.0204 46.3825C88.6836 47.8535 81.527 47.5615 71.5222 46.4779C71.5222 46.4779 72.7974 56.9658 60.5344 65.6907L50.9454 88.7045L26.7968 101.055C26.7968 101.055 -0.506229 76.5547 6.003 71.4728Z" fill="#FED8B4"/>
<path d="M57.8494 69.074C65.8941 64.4075 71.4957 56.3154 73.0164 47.1059C73.1058 46.5499 72.2616 46.3141 72.1666 46.87C70.6795 55.8662 65.268 63.7504 57.4022 68.3103C56.9102 68.5967 57.3519 69.3548 57.8438 69.074H57.8494Z" fill="black"/>
<path d="M69.8298 46.8547C73.5125 47.2422 77.2063 47.6297 80.9112 47.8024C84.6885 47.9798 88.6497 48.0825 92.1987 46.8407C92.7112 46.6633 92.4884 45.9489 91.9647 46.131C88.321 47.4056 84.1704 47.2468 80.2872 47.0367C76.7884 46.8453 73.3063 46.4858 69.8298 46.117C69.2727 46.0563 69.2783 46.794 69.8298 46.85V46.8547Z" fill="black"/>
<path d="M95.2228 38.9115C92.1395 38.8179 85.5732 38.8124 86.6535 33.9939C86.7773 33.4494 85.9221 33.2184 85.7983 33.7629C85.3369 35.8311 86.4678 37.8113 88.3528 38.8069C90.3671 39.8686 93.0116 39.7035 95.2228 39.775C95.7911 39.7915 95.7911 38.928 95.2228 38.9115Z" fill="black"/>
<path d="M111.757 16.5663C112.433 14.2677 111.114 11.8576 108.811 11.1832C106.508 10.5088 104.094 11.8255 103.419 14.1241C102.743 16.4227 104.062 18.8328 106.365 19.5072C108.667 20.1816 111.082 18.8649 111.757 16.5663Z" fill="white"/>
<path d="M116.648 14.1047C117.405 11.8315 116.172 9.37623 113.895 8.62084C111.618 7.86546 109.158 9.09595 108.401 11.3692C107.645 13.6425 108.877 16.0977 111.155 16.8531C113.432 17.6085 115.891 16.378 116.648 14.1047Z" fill="#9DA0A3"/>
<circle cx="100" cy="164" r="4" fill="#9DA0A3"/>
<path fill-rule="evenodd" clip-rule="evenodd" d="M82.8433 191.43C79.3568 192.369 75.8279 193.132 72.3375 194.048C71.6196 194.236 69.4974 195.376 68.9147 195.163C68.0979 194.862 68.3428 192.248 68.3828 191.638C68.5889 188.511 69.0798 185.445 69.5701 182.354C69.627 181.995 69.7587 179.785 70.062 179.659C71.2146 179.182 72.9102 181.106 73.6204 181.668C76.7205 184.123 81.0376 187.402 83.4356 190.6" fill="#9DA0A3"/>
<path d="M82.8433 191.43C79.3568 192.369 75.8279 193.132 72.3375 194.048C71.6196 194.236 69.4974 195.376 68.9147 195.163C68.0979 194.862 68.3428 192.248 68.3828 191.638C68.5889 188.511 69.0798 185.445 69.5701 182.354C69.627 181.995 69.7587 179.785 70.062 179.659C71.2146 179.182 72.9102 181.106 73.6204 181.668C76.7205 184.123 81.0376 187.402 83.4356 190.6" stroke="#9DA0A3" stroke-width="1.30432" stroke-miterlimit="1.5" stroke-linecap="round" stroke-linejoin="round"/>
<path d="M76.9305 188.596C65.5883 188.804 49.6552 184.587 41.8557 175.644C38.3172 171.588 33.7498 158.518 41.8178 156.129C50.6577 153.511 50.1924 168.328 41.77 168.643C34.3229 168.921 29.2413 162.63 27.0396 156.135C23.1487 144.655 25.0429 133.534 31.8828 123.636" stroke="#9DA0A3" stroke-width="1.30432" stroke-miterlimit="1.5" stroke-linecap="round" stroke-linejoin="round"/>
<path fill-rule="evenodd" clip-rule="evenodd" d="M205.978 8.23802C209.429 7.25015 212.924 6.43782 216.379 5.47338C217.089 5.27556 219.181 4.10979 219.763 4.3133C220.58 4.59913 220.376 7.20156 220.346 7.80807C220.189 10.9184 219.749 13.9736 219.309 17.0531C219.258 17.4108 219.161 19.6092 218.862 19.7387C217.724 20.2311 216.009 18.3447 215.294 17.7968C212.176 15.4048 207.835 12.2128 205.402 9.0719" fill="#9DA0A3"/>
<path d="M205.978 8.23802C209.429 7.25015 212.924 6.43782 216.379 5.47338C217.089 5.27556 219.181 4.10979 219.763 4.3133C220.58 4.59913 220.376 7.20156 220.346 7.80807C220.189 10.9184 219.749 13.9736 219.309 17.0531C219.258 17.4108 219.161 19.6092 218.862 19.7387C217.724 20.2311 216.009 18.3447 215.294 17.7968C212.176 15.4048 207.835 12.2128 205.402 9.0719" stroke="#9DA0A3" stroke-width="1.29642" stroke-miterlimit="1.5" stroke-linecap="round" stroke-linejoin="round"/>
<path d="M211.901 10.9643C223.17 10.582 239.069 14.5283 246.958 23.2948C250.538 27.2719 255.278 40.1908 247.297 42.6895C238.552 45.427 238.786 30.6943 247.151 30.2518C254.548 29.8607 259.695 36.034 261.984 42.4557C266.027 53.8047 264.316 64.8861 257.671 74.8288" stroke="#9DA0A3" stroke-width="1.29642" stroke-miterlimit="1.5" stroke-linecap="round" stroke-linejoin="round"/>
<path d="M57.132 131.552C57.2071 131.197 57.7137 131.197 57.7888 131.552L58.9111 136.853C58.9384 136.983 59.039 137.084 59.1681 137.112L64.4151 138.255C64.7674 138.332 64.7674 138.834 64.4151 138.911L59.1681 140.054C59.039 140.082 58.9384 140.183 58.9111 140.313L57.7888 145.614C57.7137 145.969 57.2071 145.969 57.132 145.614L56.0097 140.313C55.9824 140.183 55.8818 140.082 55.7528 140.054L50.5057 138.911C50.1534 138.834 50.1534 138.332 50.5057 138.255L55.7528 137.112C55.8818 137.084 55.9824 136.983 56.0097 136.853L57.132 131.552Z" fill="#9DA0A3"/>
<circle cx="234.882" cy="59.8821" r="6.88214" fill="#9DA0A3"/>
<path d="M177.487 23.5516C177.562 23.1967 178.069 23.1967 178.144 23.5517L178.799 26.6446C178.826 26.7738 178.927 26.875 179.056 26.9031L182.125 27.5718C182.478 27.6486 182.478 28.1511 182.125 28.2279L179.056 28.8966C178.927 28.9247 178.826 29.0259 178.799 29.1551L178.144 32.2481C178.069 32.603 177.562 32.603 177.487 32.2481L176.832 29.1551C176.805 29.0259 176.705 28.9247 176.575 28.8966L173.506 28.2279C173.153 28.1511 173.153 27.6486 173.506 27.5718L176.575 26.9031C176.705 26.875 176.805 26.7738 176.832 26.6446L177.487 23.5516Z" fill="#9DA0A3"/>
<circle cx="232.5" cy="72.5" r="2.5" fill="#9DA0A3"/>
<path d="M218.833 114.931C215.653 114.051 212.66 115.455 211.282 117.129C209.91 118.811 209.476 121.812 212.417 124.561C215.358 127.311 230.894 144.044 239.823 149.319C248.746 154.594 271.442 151.361 271.442 151.361L253.548 116.139L218.834 114.926L218.833 114.931Z" fill="#FED8B4"/>
<path fill-rule="evenodd" clip-rule="evenodd" d="M199.945 124.829C200.711 124.248 200.86 123.157 200.278 122.393C200.248 122.352 200.215 122.314 200.182 122.277L217.667 109.014C221.187 106.344 226.21 107.029 228.886 110.546L246.143 133.225C248.819 136.741 248.134 141.755 244.614 144.426L227.126 157.691C227.125 157.689 227.123 157.687 227.122 157.686C226.541 156.922 225.448 156.773 224.683 157.354C223.917 157.935 223.767 159.025 224.349 159.789C224.35 159.791 224.352 159.793 224.353 159.794L173.843 198.107C170.323 200.777 165.301 200.091 162.625 196.575L145.367 173.896C142.692 170.38 143.376 165.365 146.896 162.695L197.419 124.372C197.446 124.415 197.475 124.456 197.505 124.496C198.087 125.261 199.179 125.409 199.945 124.829ZM203.614 126.803C204.196 127.567 204.047 128.658 203.281 129.239C202.515 129.82 201.423 129.671 200.841 128.907C200.26 128.142 200.409 127.052 201.175 126.471C201.941 125.89 203.033 126.039 203.614 126.803ZM206.648 133.651C207.414 133.07 207.563 131.979 206.982 131.215C206.4 130.451 205.308 130.302 204.542 130.883C203.776 131.464 203.627 132.554 204.208 133.319C204.79 134.083 205.882 134.232 206.648 133.651ZM210.349 135.627C210.93 136.392 210.781 137.482 210.015 138.063C209.249 138.644 208.157 138.495 207.576 137.731C206.994 136.967 207.143 135.876 207.909 135.295C208.675 134.714 209.767 134.863 210.349 135.627ZM213.359 142.474C214.125 141.893 214.274 140.803 213.693 140.038C213.111 139.274 212.019 139.125 211.253 139.706C210.487 140.287 210.338 141.378 210.919 142.142C211.501 142.906 212.593 143.055 213.359 142.474ZM217.052 144.451C217.634 145.215 217.484 146.305 216.718 146.886C215.953 147.467 214.86 147.318 214.279 146.554C213.697 145.79 213.846 144.699 214.612 144.118C215.378 143.538 216.47 143.686 217.052 144.451ZM220.07 151.297C220.836 150.716 220.985 149.626 220.403 148.862C219.822 148.097 218.73 147.949 217.964 148.53C217.198 149.11 217.049 150.201 217.63 150.965C218.212 151.729 219.304 151.878 220.07 151.297ZM223.771 153.274C224.352 154.038 224.203 155.128 223.437 155.709C222.671 156.29 221.579 156.142 220.997 155.377C220.416 154.613 220.565 153.523 221.331 152.942C222.097 152.361 223.189 152.51 223.771 153.274Z" fill="#EDEDED"/>
<rect width="2.3386" height="5.77269" transform="matrix(0.79673 -0.604335 0.605568 0.795793 212.578 128.056)" fill="#9DA0A3"/>
<rect width="2.3386" height="5.77269" transform="matrix(0.79673 -0.604335 0.605568 0.795793 221.586 139.9)" fill="#9DA0A3"/>
<rect width="2.3386" height="5.77269" transform="matrix(0.79673 -0.604335 0.605568 0.795793 226.133 145.897)" fill="#9DA0A3"/>
<rect width="2.3386" height="5.77269" transform="matrix(0.79673 -0.604335 0.605568 0.795793 230.383 142.762)" fill="#9DA0A3"/>
<path fill-rule="evenodd" clip-rule="evenodd" d="M200.278 122.393C200.86 123.157 200.711 124.248 199.945 124.829C199.179 125.409 198.087 125.261 197.505 124.496C197.475 124.456 197.446 124.415 197.419 124.372L146.896 162.695C143.376 165.365 142.692 170.38 145.367 173.896L146.075 174.826L229.593 111.475L228.886 110.546C226.21 107.029 221.187 106.344 217.667 109.014L200.182 122.277C200.215 122.314 200.248 122.352 200.278 122.393ZM203.281 129.239C204.047 128.658 204.196 127.567 203.614 126.803C203.033 126.039 201.941 125.89 201.175 126.471C200.409 127.052 200.26 128.142 200.841 128.907C201.423 129.671 202.515 129.82 203.281 129.239Z" fill="#9DA0A3"/>
<rect width="21.9279" height="2.76068" transform="matrix(0.79673 -0.604335 0.605568 0.795793 185.797 153.48)" fill="white"/>
<rect width="14.2457" height="2.76068" transform="matrix(0.79673 -0.604335 0.605568 0.795793 195.648 153.736)" fill="#9DA0A3"/>
<rect width="26.7556" height="2.76068" transform="matrix(0.79673 -0.604335 0.605568 0.795793 189.406 166.195)" fill="white"/>
<path d="M220.188 126.501C216.185 125.531 215.854 121.4 215.941 119.812L229.062 123.638L239.914 132.339C239.633 136.501 243.266 142.195 245.117 144.522C241.095 143.363 238.332 138.313 237.7 135.577C232.03 139.302 228.741 135.826 227.805 133.623C221.924 134.006 220.277 129.034 220.188 126.501Z" fill="black"/>
<path d="M239.94 132.459L251.904 120.741L253.085 143.859L248.438 147.087L245.732 144.639L241.39 138.752L239.94 132.459Z" fill="#FED8B4"/>
<path d="M247.531 146.909C240.535 142.077 236.436 131.579 241.951 124.028C242.324 123.518 243.08 124.15 242.708 124.66C237.492 131.799 241.658 141.651 248.17 146.15C248.694 146.512 248.057 147.261 247.538 146.905L247.531 146.909Z" fill="black"/>
<path d="M297.029 108.94L269.157 112.663C269.157 112.663 267.455 87.2276 243.755 87.419C224.307 87.5766 217.783 107.512 216.924 111.521C216.064 115.535 215.079 121.191 217.905 122.177C220.738 123.164 222.81 121.824 222.81 121.824C222.81 121.824 221.122 126.222 224.375 129.655C226.135 131.517 229.62 130.892 229.62 130.892C229.62 130.892 229.597 134.081 233.754 134.794C237.695 135.47 241.714 130.125 243.204 128.342C245.589 125.486 250.834 120.831 250.834 120.831C250.834 120.831 257.702 152.551 269.967 151.49C282.237 150.43 294.66 148.803 294.66 148.803C297.824 142.514 303.21 110.065 297.029 108.94Z" fill="#FED8B4"/>
<path d="M245.258 97.9693C234.596 101.545 226.51 110.309 223.503 121.115C223.337 121.721 222.36 121.559 222.532 120.948C225.632 109.802 233.904 100.735 244.914 97.0469C245.519 96.8441 245.862 97.7665 245.258 97.9693Z" fill="black"/>
<path d="M251.093 105.698C241.246 111.575 232.297 119.517 229.898 131.229C229.769 131.848 228.798 131.687 228.928 131.063C231.383 119.093 240.439 110.913 250.523 104.898C251.064 104.573 251.635 105.373 251.092 105.704L251.093 105.698Z" fill="black"/>
<path d="M253.002 120.367C250.113 122.69 247.32 125.131 244.662 127.728C242.481 129.856 240.481 132.46 237.815 134.003C234.715 135.8 229.512 135.554 228.924 131.196C228.837 130.568 229.818 130.475 229.906 131.097C230.452 135.147 235.46 134.423 237.889 132.795C239.813 131.51 241.326 129.663 242.951 128.036C245.952 125.036 249.128 122.221 252.439 119.557C252.932 119.157 253.502 119.962 253.009 120.362L253.002 120.367Z" fill="black"/>
<path d="M223.001 122.514C220.977 123.671 218.717 123.991 216.991 122.124C214.638 119.579 215.938 114.821 216.277 111.489C216.341 110.859 217.311 111.026 217.247 111.655C217.071 113.352 216.226 118.6 216.917 120.223C217.961 122.68 220.3 122.937 222.43 121.714C222.975 121.401 223.551 122.202 223 122.52L223.001 122.514Z" fill="black"/>
<path d="M269.829 120.078C269.761 117.688 269.51 115.327 269.072 112.979C268.956 112.357 269.938 112.264 270.055 112.88C270.493 115.228 270.744 117.589 270.812 119.98C270.831 120.612 269.848 120.711 269.829 120.078Z" fill="black"/>
<path d="M218.977 122.479C220.119 119.031 221.595 113.612 217.098 111.955C216.505 111.736 216.927 110.845 217.52 111.064C222.598 112.938 221.175 118.956 219.87 122.899C219.672 123.501 218.78 123.075 218.977 122.479Z" fill="black"/>
<path d="M225.641 130.142C226.783 126.694 228.259 121.275 223.762 119.618C223.169 119.4 223.591 118.508 224.184 118.727C229.262 120.601 227.839 126.619 226.534 130.563C226.336 131.164 225.444 130.738 225.641 130.142Z" fill="black"/>
<path d="M232.934 134.105C233.818 131.443 235.664 125.625 232.088 124.031C231.507 123.776 231.928 122.884 232.509 123.14C236.713 125.008 234.889 131.314 233.828 134.52C233.63 135.121 232.738 134.695 232.935 134.099L232.934 134.105Z" fill="black"/>
<path d="M229.453 131.635C226.747 131.823 224.317 131.417 222.9 128.89C221.539 126.461 221.848 123.534 222.528 120.954C222.688 120.346 223.66 120.507 223.498 121.12C222.951 123.193 222.602 125.44 223.35 127.513C224.351 130.281 226.665 130.845 229.354 130.654C229.986 130.612 230.086 131.588 229.453 131.635Z" fill="black"/>
</g>
<defs>
<clipPath id="clip0_7397_6562">
<rect width="300" height="200" fill="white"/>
</clipPath>
</defs>
</svg>
