<svg width="140" height="140" viewBox="0 0 140 140" fill="none" xmlns="http://www.w3.org/2000/svg">
<path d="M69.6262 7H70.2796C70.8135 7.04685 71.3362 7.18151 71.8263 7.39853C73.2082 8.09528 74.4004 9.11696 75.3004 10.3759C76.8102 12.421 78.0804 14.6325 79.0863 16.967C80.3511 19.7726 81.3956 22.6687 82.4382 25.5593C82.6156 26.0894 82.8424 26.6027 82.9834 27.1459C81.3779 27.368 79.7846 27.6742 78.1875 27.9495C78.0525 27.6813 77.9337 27.4051 77.8318 27.1226C77.2185 25.5947 76.4049 24.155 75.4124 22.8414C74.6924 21.8519 73.7162 21.0775 72.5888 20.6014C71.7533 20.2923 70.8371 20.2791 69.9931 20.5641C69.0378 20.9051 68.1676 21.4486 67.442 22.1573C66.0205 23.558 64.8046 25.153 63.8306 26.8948C62.7105 28.7671 61.8051 30.7532 60.8353 32.7011C57.7034 39.0701 54.5711 45.4388 51.4386 51.8072C51.1007 52.4606 50.8104 53.141 50.4455 53.7794C50.3213 53.729 50.1972 53.6795 50.0786 53.6198C48.4358 52.7798 46.7184 52.0658 45.168 51.0699C45.2287 50.8262 45.3167 50.5902 45.4303 50.3662C47.1449 46.3174 48.896 42.2826 50.6508 38.2506C52.7687 33.4104 54.9072 28.5767 57.125 23.7785C58.2712 21.3163 59.4249 18.8551 60.6888 16.45C61.3759 15.0695 62.1416 13.7295 62.9821 12.4367C63.9438 10.8796 65.1526 9.48947 66.5609 8.32067C67.4379 7.60055 68.5004 7.14275 69.6262 7Z" fill="url(#paint0_linear_7274_4914)"/>
<path d="M82.9855 34.5116C83.9673 34.4455 84.9517 34.43 85.935 34.4649C87.9624 39.6533 89.8779 44.8846 91.6392 50.1672C93.4293 55.3914 94.9162 60.7147 96.0925 66.1104C96.6145 68.4925 96.8736 70.9246 96.8654 73.3632C96.8441 74.0261 96.744 74.684 96.5675 75.3232C96.3875 75.8991 96.0823 76.4279 95.6737 76.8718C95.265 77.3158 94.7632 77.6638 94.2042 77.8908C93.047 78.3279 91.8019 78.4815 90.5732 78.3388C89.072 78.195 87.5904 77.8919 86.1535 77.4344C83.6237 76.6263 81.1545 75.6395 78.7645 74.4814C76.5113 73.4276 74.3364 72.2218 72.099 71.1382C71.2188 70.6958 70.3172 70.2907 69.4473 69.8315C69.585 69.7004 69.7375 69.5858 69.9018 69.4899C71.076 68.6729 72.2406 67.8432 73.3956 67.0007C73.9118 66.633 74.4046 66.2298 74.932 65.8807C75.3604 66.059 75.7487 66.3175 76.1622 66.5266C77.4148 67.2229 78.7109 67.838 80.0424 68.3681C81.2044 68.8584 82.449 69.1234 83.7099 69.1493C84.9986 69.1594 86.2393 68.6615 87.1634 67.7633C87.8632 66.8762 88.2732 65.7954 88.3377 64.6674C88.4678 63.0575 88.4145 61.4381 88.179 59.8402C87.7686 56.9324 87.1611 54.0558 86.3607 51.2303C84.843 45.6714 82.9322 40.2235 80.8983 34.8317C80.8909 34.7934 80.8759 34.7169 80.8694 34.6786C81.5704 34.5825 82.2808 34.5713 82.9855 34.5116Z" fill="url(#paint1_linear_7274_4914)"/>
<path d="M44.8673 35.7986C46.9441 35.3908 49.0275 35.0221 51.109 34.646C51.022 34.9009 50.9194 35.1503 50.8019 35.3926C50.2092 36.7469 49.6127 38.0993 49.0284 39.4573C48.9948 39.5465 48.9441 39.6283 48.8791 39.6981C46.8037 40.3626 44.8364 41.3266 43.0397 42.5597C42.0426 43.222 41.2239 44.1195 40.6557 45.173C40.4582 45.5833 40.3471 46.0298 40.3294 46.4849C40.3117 46.9399 40.3879 47.3937 40.5531 47.818C40.9862 48.8034 41.6475 49.6717 42.4824 50.3511C43.9208 51.5413 45.5025 52.5468 47.1905 53.3443C48.0539 53.7858 48.9585 54.1442 49.8097 54.6071C55.0611 57.2802 60.5104 59.5388 65.9195 61.8712C66.3078 62.0494 66.7148 62.1829 67.0984 62.3687C66.7612 62.6144 66.4089 62.8389 66.0436 63.0406C64.7369 63.8237 63.4254 64.5965 62.1009 65.3469C61.7322 65.5336 61.3906 65.7827 61.0069 65.9405C60.5981 65.8061 60.2135 65.6092 59.8187 65.4393C51.5082 61.6655 43.2655 57.7496 35.0907 53.6915C33.1189 52.825 31.2599 51.7217 29.5546 50.4062C28.6429 49.7021 27.8382 48.8693 27.166 47.9338C26.5401 47.0837 26.2097 46.0522 26.2251 44.9966C26.3075 44.0999 26.6869 43.2564 27.3032 42.5998C28.0404 41.8017 28.9003 41.1265 29.8505 40.5997C31.7619 39.5443 33.7793 38.6934 35.8692 38.061C38.8273 37.1513 41.8307 36.3962 44.8673 35.7986Z" fill="url(#paint2_linear_7274_4914)"/>
<path d="M81.8391 28.3396C86.5584 27.516 91.3314 27.0368 96.1203 26.906C97.5506 26.8831 98.9809 26.9455 100.404 27.0926C101.672 27.2002 102.926 27.4411 104.144 27.8113C105.194 28.1194 106.17 28.6387 107.012 29.3373C107.612 29.8547 108.047 30.536 108.264 31.2973C108.518 32.5444 108.363 33.8401 107.823 34.9923C106.959 36.8906 105.817 38.6497 104.434 40.2115C102.769 42.156 100.985 43.9966 99.0942 45.7228C97.3468 47.3337 95.5519 48.8961 93.7271 50.4165C93.4931 50.6183 93.2402 50.7971 92.9719 50.9504C92.4679 49.4692 91.961 47.988 91.4785 46.4993C91.653 46.2744 91.9106 46.1335 92.0936 45.9142C92.8185 45.0844 93.4586 44.1842 94.0043 43.2271C94.6946 42.0788 95.0679 40.768 95.0861 39.4284C95.0684 38.4479 94.754 37.4959 94.1844 36.6975C93.4652 35.7095 92.4998 34.9269 91.3842 34.4277C90.2 33.8846 88.9229 33.5728 87.6216 33.5093C85.2165 33.3763 82.8046 33.4365 80.4091 33.6894C73.4608 34.4889 66.5624 35.6748 59.7461 37.2417C60.4844 35.655 61.2872 34.1066 62.0432 32.5312C62.0918 32.366 62.2691 32.3445 62.4166 32.3156C65.9636 31.6034 69.4816 30.7224 73.0323 30.0037C75.9551 29.3827 78.8907 28.828 81.8391 28.3396Z" fill="url(#paint3_linear_7274_4914)"/>
<path d="M84.1783 52.4778C84.5853 52.2024 84.9605 51.8851 85.3666 51.6079C85.4199 51.6738 85.4555 51.7522 85.4701 51.8357C85.7128 52.7606 85.9294 53.6902 86.16 54.617C86.2307 54.854 86.2792 55.0971 86.3047 55.3431C85.2984 56.1616 84.3324 57.0231 83.3392 57.8631C79.5103 61.0986 75.5573 64.1842 71.4802 67.1198C67.2037 70.2152 62.7499 73.058 58.1417 75.6337C54.8324 77.4881 51.381 79.0767 47.82 80.3843C46.3805 80.8798 44.8933 81.2238 43.3825 81.411C42.8812 81.491 42.3744 81.5322 41.8667 81.5342C40.389 81.6317 38.9141 81.3081 37.6131 80.6009C36.7912 80.0908 36.1447 79.3418 35.7603 78.4542C35.3774 77.5522 35.1922 76.5787 35.217 75.5991C35.217 75.1642 35.2096 74.7293 35.2366 74.2925C35.3408 73.3927 35.49 72.4987 35.6838 71.6138C36.0459 70.1933 36.5238 68.8055 36.9998 67.4195C37.6638 65.5528 38.4106 63.7172 39.2401 61.9128C39.858 60.5465 40.5453 59.2126 41.2992 57.9163C41.3822 57.9251 41.463 57.9481 41.5381 57.9844C43.1613 58.7796 44.7985 59.5478 46.4255 60.3346C46.6431 60.4164 46.8497 60.5249 47.0406 60.6575C46.8782 61.0252 46.6672 61.3733 46.5337 61.7532C46.1549 62.7527 45.8376 63.7744 45.5835 64.8127C45.3324 65.7673 45.2069 66.7506 45.2102 67.7377C45.1498 68.658 45.359 69.5758 45.8122 70.379C46.1591 70.9194 46.6726 71.3322 47.2749 71.555C48.1752 71.8473 49.1335 71.9143 50.0658 71.7501C51.4373 71.5202 52.778 71.1341 54.0617 70.5993C56.5331 69.5118 58.9484 68.301 61.2985 66.9714C65.7378 64.499 70.0576 61.8232 74.3243 59.0699C77.6385 56.9201 80.9232 54.7227 84.1783 52.4778Z" fill="url(#paint4_linear_7274_4914)"/>
<path d="M59.6217 90.9267C59.9717 90.7951 60.3105 90.63 60.6698 90.5264C60.6847 97.5161 60.6698 104.507 60.6773 111.496C60.6773 113.898 60.6829 116.298 60.6773 118.698C60.2106 118.929 59.7094 119.089 59.2306 119.295C58.2908 119.669 57.3537 120.054 56.412 120.426C56.1252 120.556 55.8298 120.666 55.5281 120.755C55.4973 119.262 55.5235 117.768 55.5151 116.275C55.5151 108.937 55.5151 101.6 55.5151 94.2624C55.531 93.7024 55.4796 93.1332 55.5403 92.5722C56.8917 92.0132 58.2628 91.4849 59.6217 90.9267Z" fill="#F58221"/>
<path d="M101.831 91.1575C102.372 90.9568 102.891 90.6982 103.442 90.5283C103.468 93.6736 103.442 96.8209 103.453 99.9671C103.453 106.033 103.453 112.1 103.453 118.167C105.498 117.195 107.533 116.207 109.577 115.23C110.384 114.822 111.219 114.468 112.017 114.041C112.048 112.518 112.017 110.992 112.03 109.468C112.042 108.975 112.004 108.48 112.047 107.988C113.039 107.503 114.039 107.039 115.034 106.564C115.301 106.423 115.577 106.299 115.859 106.191C115.892 108.592 115.858 110.995 115.874 113.398C115.891 114.347 115.671 115.286 115.234 116.13C114.779 116.971 114.16 117.712 113.413 118.309C113.73 118.176 114.037 118.02 114.346 117.872C120.125 115.113 125.904 112.355 131.685 109.598C134.459 108.285 137.221 106.944 140 105.641V107.459C139.971 107.646 139.936 107.832 139.907 108.019C139.68 109.489 138.89 110.812 137.704 111.71C137.089 112.131 136.432 112.488 135.744 112.776C128.479 116.244 121.214 119.713 113.951 123.182C113.665 123.337 113.367 123.469 113.061 123.577C113.024 121.912 113.061 120.245 113.045 118.58C112.592 118.878 112.116 119.14 111.621 119.364C108.849 120.696 106.077 122.028 103.303 123.358C102.675 123.642 101.979 123.738 101.298 123.635C100.617 123.532 99.9798 123.234 99.464 122.778C99.09 122.449 98.7904 122.044 98.5852 121.59C98.38 121.137 98.274 120.645 98.2739 120.147C98.2739 111.63 98.2739 103.113 98.2739 94.5958C98.2889 93.9238 98.2431 93.2509 98.2954 92.5817C99.4761 92.0945 100.654 91.6325 101.831 91.1575Z" fill="#F58221"/>
<path d="M30.1084 90.98C30.4389 90.8549 30.7618 90.7 31.0988 90.6011C31.1147 98.5493 31.0988 106.498 31.1081 114.445C31.1081 115.036 31.1343 115.627 31.1035 116.218C31.0648 116.798 30.8751 117.357 30.5531 117.841C30.2312 118.324 29.7882 118.715 29.2684 118.974C26.7267 120.218 24.1645 121.42 21.6088 122.634C18.124 124.285 14.6393 125.937 11.1545 127.589C10.1038 128.065 8.96546 128.317 7.81197 128.329C6.65187 128.345 5.50257 128.104 4.44641 127.624C3.39024 127.144 2.45334 126.436 1.70277 125.551C0.867194 124.54 0.313388 123.326 0.0972924 122.032C-0.0790233 120.917 -0.0151686 119.776 0.284556 118.688C0.584281 117.599 1.11297 116.587 1.83531 115.719C2.58136 114.821 3.50897 114.091 4.55716 113.578C9.88695 111.056 15.2146 108.532 20.54 106.005C20.5633 107.397 20.54 108.792 20.5503 110.185C20.5641 110.503 20.5548 110.822 20.5223 111.139C15.7525 113.39 10.9865 115.648 6.22425 117.914C5.70904 118.142 5.24949 118.48 4.87725 118.903C4.50501 119.326 4.22895 119.825 4.06806 120.365C3.91705 120.889 3.92048 121.445 4.07795 121.967C4.23541 122.489 4.54021 122.954 4.95573 123.307C5.46697 123.686 6.06994 123.922 6.70266 123.991C7.33539 124.06 7.97504 123.959 8.5559 123.699C9.58266 123.24 10.573 122.725 11.5914 122.259C16.3711 119.992 21.1511 117.726 25.9314 115.461C25.9538 112.13 25.9314 108.799 25.9407 105.468V94.3959C25.951 93.8088 25.9193 93.2219 25.9548 92.6367C27.3362 92.0776 28.7251 91.5344 30.1084 90.98Z" fill="#F58221"/>
<path d="M107.431 99.2797C108.035 99.2172 108.644 99.3384 109.178 99.6274C109.713 99.9165 110.147 100.36 110.425 100.9C110.681 101.399 110.79 101.96 110.738 102.518C110.686 103.076 110.477 103.608 110.133 104.051C109.782 104.506 109.308 104.851 108.767 105.045C108.226 105.239 107.64 105.274 107.08 105.146C106.531 105.024 106.027 104.749 105.628 104.352C105.229 103.956 104.951 103.454 104.825 102.906C104.713 102.433 104.72 101.939 104.846 101.469C104.972 101 105.212 100.569 105.546 100.215C106.042 99.6872 106.711 99.3553 107.431 99.2797Z" fill="#F58221"/>
<path d="M114.678 98.016C115.193 97.9628 115.714 98.0428 116.19 98.2482C116.665 98.4536 117.081 98.7775 117.395 99.1891C117.76 99.669 117.969 100.249 117.996 100.85C118.023 101.452 117.865 102.048 117.545 102.558C117.232 103.056 116.779 103.451 116.244 103.695C115.708 103.938 115.113 104.018 114.532 103.927C113.951 103.835 113.41 103.575 112.975 103.178C112.541 102.782 112.232 102.266 112.088 101.696C111.963 101.194 111.971 100.669 112.113 100.171C112.254 99.6737 112.523 99.2219 112.893 98.8607C113.377 98.3872 114.005 98.0897 114.678 98.016Z" fill="#F58221"/>
<path d="M72.2348 101.548C74.4982 102.82 76.6707 104.247 78.7369 105.819C80.312 106.989 81.7218 108.367 82.928 109.914C83.6178 110.766 84.0645 111.789 84.2208 112.874C84.246 113.616 84.2207 114.358 84.2329 115.101C84.2476 115.451 84.166 115.799 83.9968 116.107C83.5492 116.805 82.8973 117.348 82.1299 117.663C78.3732 119.37 74.6169 121.077 70.8608 122.785C69.6912 123.312 68.4274 123.597 67.1449 123.625C66.302 123.661 65.4759 123.382 64.8291 122.84C64.1947 122.21 63.817 121.367 63.7697 120.475C63.6961 119.148 63.917 117.821 64.4165 116.589C65.3255 114.423 66.5899 112.423 68.1576 110.673C69.408 109.229 70.7606 107.877 72.2049 106.627C72.2619 106.115 72.2115 105.595 72.2283 105.079C72.2339 103.901 72.219 102.724 72.2348 101.548ZM75.8425 109.648C73.8562 110.935 71.97 112.37 70.1999 113.941C69.401 114.64 68.7027 115.445 68.125 116.336C67.8645 116.726 67.7338 117.188 67.7516 117.657C67.7645 117.804 67.8155 117.944 67.8997 118.065C67.9839 118.185 68.0983 118.282 68.2314 118.344C68.5785 118.483 68.954 118.537 69.3263 118.502C69.9725 118.469 70.6038 118.296 71.1763 117.994C74.2311 116.545 77.2852 115.096 80.3387 113.646C79.8167 112.895 79.219 112.201 78.555 111.573C77.7898 110.824 76.9773 110.124 76.1225 109.479C76.0263 109.532 75.9321 109.586 75.8425 109.648Z" fill="#F58221"/>
<path d="M37.6799 104.788C38.6016 104.202 39.6542 103.854 40.7434 103.774C42.3171 103.641 43.8962 103.959 45.2948 104.693C46.9904 105.622 48.4662 106.905 49.622 108.455C50.4515 109.489 51.1488 110.623 51.698 111.829C52.1473 112.819 52.4008 113.887 52.4447 114.974C52.4648 116.2 52.0984 117.401 51.3974 118.407C50.7035 119.383 49.7863 120.179 48.7222 120.728C43.9145 123.012 39.105 125.293 34.2935 127.572C33.74 127.82 33.2042 128.109 32.6405 128.336C32.6355 126.637 32.6355 124.939 32.6405 123.241C34.9917 122.094 37.3692 120.994 39.7298 119.866C41.9936 118.792 44.2577 117.718 46.5222 116.645C47.0916 116.365 47.6787 116.117 48.2387 115.818C48.137 115.153 47.9488 114.505 47.6787 113.889C46.5689 114.382 45.4824 114.93 44.3781 115.439C42.9871 116.174 41.5209 116.756 40.0051 117.177C38.881 117.492 37.694 117.508 36.5617 117.224C36.04 117.073 35.5658 116.79 35.1843 116.404C34.8027 116.017 34.5266 115.539 34.3822 115.016C34.0935 113.491 34.0619 111.928 34.2889 110.393C34.4544 109.277 34.8236 108.202 35.3781 107.219C35.9424 106.238 36.7312 105.405 37.6799 104.788ZM38.941 109.449C38.3831 109.925 38.0208 110.589 37.9236 111.316C37.8257 111.984 37.8523 112.665 38.002 113.324C38.4855 113.138 38.9354 112.876 39.4143 112.671C40.8573 111.987 42.3 111.302 43.7425 110.618C44.155 110.41 44.5947 110.244 44.9839 110.002C44.6006 109.532 44.1131 109.158 43.5602 108.91C43.0072 108.661 42.4039 108.545 41.7982 108.57C40.7752 108.538 39.7705 108.846 38.941 109.445V109.449Z" fill="#F58221"/>
<path d="M94.6297 108.055C94.8139 107.959 95.0056 107.877 95.2028 107.812C95.2364 110.219 95.2028 112.627 95.2177 115.035C95.2348 116.161 94.9163 117.265 94.3029 118.209C93.6108 119.264 92.6578 120.123 91.5362 120.703C86.3284 123.181 81.1178 125.654 75.9044 128.121C75.7475 128.202 75.5847 128.271 75.4172 128.328C75.4172 126.636 75.4069 124.942 75.4237 123.25C75.5702 123.146 75.7292 123.062 75.8969 123C81.045 120.552 86.1949 118.108 91.3468 115.667C91.3897 113.649 91.3347 111.626 91.373 109.607C92.4511 109.077 93.5469 108.579 94.6297 108.055Z" fill="#F58221"/>
<defs>
<linearGradient id="paint0_linear_7274_4914" x1="55.8319" y1="65.6146" x2="75.8185" y2="23.6246" gradientUnits="userSpaceOnUse">
<stop stop-color="#F7941A"/>
<stop offset="1" stop-color="#FECA06"/>
</linearGradient>
<linearGradient id="paint1_linear_7274_4914" x1="82.6081" y1="73.8204" x2="109.926" y2="39.6302" gradientUnits="userSpaceOnUse">
<stop stop-color="#F7941A"/>
<stop offset="1" stop-color="#FECA06"/>
</linearGradient>
<linearGradient id="paint2_linear_7274_4914" x1="44.0456" y1="61.9974" x2="52.4011" y2="16.1047" gradientUnits="userSpaceOnUse">
<stop stop-color="#F7941A"/>
<stop offset="1" stop-color="#FECA06"/>
</linearGradient>
<linearGradient id="paint3_linear_7274_4914" x1="84.2591" y1="80.3624" x2="84.2115" y2="35.9196" gradientUnits="userSpaceOnUse">
<stop stop-color="#17637C"/>
<stop offset="1" stop-color="#56C5D0"/>
</linearGradient>
<linearGradient id="paint4_linear_7274_4914" x1="60.8108" y1="80.4732" x2="60.7406" y2="36.0372" gradientUnits="userSpaceOnUse">
<stop stop-color="#17637C"/>
<stop offset="1" stop-color="#56C5D0"/>
</linearGradient>
</defs>
</svg>
