<svg width="63" height="24" viewBox="0 0 63 24" fill="none" xmlns="http://www.w3.org/2000/svg">
<g clip-path="url(#clip0_8341_2991)">
<path d="M8.83258 0H9.19706C9.52252 0.0443335 9.8329 0.170481 10.1017 0.367672C10.4193 0.606496 10.6571 0.94393 10.7814 1.33216C10.9057 1.72038 10.9101 2.13972 10.7941 2.53073C10.6781 2.92175 10.4475 3.26461 10.135 3.51075C9.82245 3.75688 9.44389 3.8938 9.05292 3.9021C8.66195 3.9104 8.2784 3.78966 7.95662 3.55699C7.63484 3.32432 7.39116 2.99152 7.26009 2.60575C7.12902 2.21998 7.11723 1.8008 7.22637 1.40762C7.33551 1.01444 7.56006 0.667189 7.8682 0.415082C8.14925 0.190426 8.48188 0.0472617 8.83258 0V0Z" fill="#6F59CA"/>
<path d="M36.4425 0H40.5263C40.8429 0.0375677 41.1455 0.15749 41.4065 0.348841C41.6675 0.540191 41.8786 0.796888 42.0207 1.09554C42.1595 1.3924 42.2238 1.72137 42.2077 2.05146C42.1915 2.38156 42.0954 2.70192 41.9284 2.98239C41.7614 3.26285 41.5289 3.49419 41.2529 3.65462C40.9769 3.81505 40.6665 3.89929 40.3508 3.89941C39.1433 3.90334 37.9358 3.89823 36.7289 3.90157C36.4763 3.90972 36.2244 3.86973 35.9854 3.78354C35.6731 3.66459 35.3968 3.46027 35.1853 3.19178C34.9738 2.92328 34.8348 2.60041 34.7828 2.25668C34.7307 1.91295 34.7674 1.56089 34.8892 1.23705C35.0109 0.913213 35.2133 0.629402 35.4751 0.415082C35.7571 0.189958 36.0908 0.0467716 36.4425 0V0Z" fill="#6F59CA"/>
<path d="M50.3084 0H50.6734C50.9988 0.0444102 51.309 0.170554 51.5777 0.367672C51.8952 0.606477 52.1328 0.943825 52.257 1.33192C52.3811 1.72002 52.3855 2.13918 52.2695 2.53003C52.1535 2.92088 51.9229 3.26359 51.6105 3.50961C51.2981 3.75562 50.9197 3.89247 50.5289 3.90077C50.1381 3.90907 49.7547 3.78839 49.433 3.55583C49.1114 3.32327 48.8678 2.99062 48.7367 2.60502C48.6056 2.21942 48.5938 1.80041 48.7028 1.40736C48.8119 1.01432 49.0362 0.667163 49.3442 0.415082C49.6254 0.190781 49.9579 0.0476549 50.3084 0V0Z" fill="#6F59CA"/>
<path d="M60.4499 0H60.8202C61.073 0.0658482 61.3071 0.193998 61.503 0.37377C61.6738 0.545476 61.7976 0.761831 61.8618 1.00047C61.926 1.2391 61.9281 1.49136 61.868 1.73115C61.7761 2.04617 61.6001 2.32711 61.3607 2.54085C61.0154 2.88472 60.6998 3.26125 60.3443 3.59351C60.2521 3.66312 60.144 3.70618 60.0309 3.71839C59.9177 3.7306 59.8035 3.71154 59.6997 3.66311C59.5958 3.61467 59.5058 3.53856 59.4388 3.44236C59.3718 3.34617 59.3301 3.23325 59.3178 3.11489C59.2666 2.80111 59.4951 2.56603 59.6738 2.35102C59.5507 2.19042 59.4507 2.01188 59.3769 1.82105C59.3034 1.58984 59.2889 1.34255 59.3348 1.10366C59.3807 0.864775 59.4855 0.642598 59.6386 0.459148C59.853 0.216133 60.1383 0.0546138 60.4499 0V0Z" fill="#6F59CA"/>
<path d="M0.746873 6.42786C0.947612 6.05854 1.2582 5.7681 1.63128 5.60084C2.00436 5.43358 2.41945 5.39867 2.81324 5.50144C3.20703 5.60421 3.55791 5.83901 3.81237 6.17005C4.06684 6.50108 4.21091 6.91018 4.22263 7.33494C4.23014 9.28681 4.22056 11.2393 4.22733 13.1913C4.25577 14.516 4.78376 15.775 5.69595 16.6934C6.60815 17.6118 7.83039 18.1148 9.09565 18.0925C10.3609 18.0703 11.5664 17.5247 12.4486 16.5748C13.3309 15.6249 13.8183 14.3481 13.8043 13.0231C13.8043 11.1464 13.8043 9.26956 13.8043 7.39258C13.8043 6.87548 14.0004 6.37957 14.3496 6.01393C14.6989 5.64829 15.1725 5.44287 15.6663 5.44287C16.1602 5.44287 16.6338 5.64829 16.983 6.01393C17.3322 6.37957 17.5284 6.87548 17.5284 7.39258C17.5301 8.4891 17.5284 9.58641 17.5284 10.6829C17.4964 11.1596 17.5415 11.6385 17.662 12.0993C17.8695 12.7935 18.3061 13.3878 18.8937 13.7758C19.4813 14.1638 20.1816 14.3203 20.8693 14.2173C21.557 14.1142 22.1873 13.7583 22.6474 13.2133C23.1075 12.6683 23.3674 11.9697 23.3806 11.2424C23.3865 9.94012 23.3769 8.63743 23.3849 7.33513C23.3976 6.89598 23.5516 6.47418 23.8219 6.13818C24.0923 5.80218 24.4631 5.5717 24.8743 5.48413C25.2855 5.39657 25.7129 5.45706 26.0871 5.65579C26.4613 5.85452 26.7604 6.17984 26.9359 6.57894C27.073 6.90575 27.1323 7.2625 27.1089 7.61861C27.1063 8.8072 27.1089 9.99559 27.1089 11.1842C27.1086 12.2078 26.8929 13.2188 26.4772 14.1452C26.0614 15.0716 25.4558 15.8908 24.7035 16.5444C23.9511 17.1979 23.0704 17.6699 22.1241 17.9267C21.1777 18.1835 20.189 18.2188 19.2281 18.0301C18.3225 17.8466 17.4609 17.4757 16.6938 16.9391C15.9303 18.5988 14.6952 19.9707 13.1577 20.8664C11.6202 21.7622 9.85577 22.138 8.10627 21.9423C6.40601 21.7507 4.80013 21.0278 3.49742 19.8678C2.19472 18.7078 1.25545 17.1643 0.801733 15.4379C0.646738 14.8178 0.545747 14.1842 0.5 13.545L0.5 7.20746C0.535909 6.93393 0.619594 6.66966 0.746873 6.42786Z" fill="#6F59CA"/>
<path d="M30.3846 5.48853C30.656 5.42732 30.9371 5.43044 31.2073 5.49766C31.4774 5.56488 31.7298 5.6945 31.9459 5.87704C32.1621 6.05957 32.3365 6.2904 32.4564 6.55263C32.5764 6.81486 32.6388 7.10185 32.6391 7.3926C32.6412 8.67483 32.6376 9.95745 32.6406 11.2397C32.6557 12.0467 32.9743 12.8148 33.5272 13.3773C34.08 13.9397 34.8225 14.2511 35.5933 14.2437C36.3641 14.2363 37.101 13.9107 37.6439 13.3377C38.1868 12.7647 38.4919 11.9906 38.4928 11.1834C38.4955 9.9008 38.4897 8.61797 38.4955 7.33535C38.511 6.82434 38.7175 6.34015 39.0707 5.98712C39.4239 5.63409 39.8954 5.44048 40.3837 5.44802C40.8719 5.45555 41.3378 5.66363 41.6809 6.0274C42.024 6.39118 42.2168 6.88153 42.2179 7.39279C42.2194 8.37797 42.2179 9.36316 42.2179 10.3477C42.2328 10.8859 42.2185 11.4244 42.1753 11.9609C42.0708 12.9357 41.7709 13.8764 41.2951 14.7214C40.8194 15.5664 40.1785 16.2967 39.4145 16.8644C38.6505 17.432 37.7806 17.8244 36.8618 18.0156C35.9429 18.2069 34.9959 18.1928 34.0826 17.9742C33.0892 17.7338 32.1607 17.2613 31.3664 16.5919C30.5688 18.2823 29.4398 19.7777 28.0532 20.9805C27.5993 21.3594 27.1427 21.793 26.5501 21.9034C26.1874 21.976 25.8123 21.9341 25.4724 21.783C25.1324 21.6319 24.8431 21.3784 24.6411 21.0547C24.4391 20.731 24.3336 20.3517 24.338 19.9651C24.3424 19.5784 24.4565 19.2019 24.6657 18.8833C24.8616 18.6041 25.1108 18.3707 25.3975 18.1979C26.4532 17.3599 27.3164 16.2852 27.9239 15.0526C28.5314 13.8199 28.8677 12.4605 28.9082 11.074C28.9204 9.82821 28.9067 8.58158 28.9152 7.33634C28.9289 6.90107 29.0808 6.48302 29.347 6.14834C29.6131 5.81367 29.9782 5.58148 30.3846 5.48853Z" fill="#6F59CA"/>
<path d="M43.8233 7.38825C43.8409 6.87347 44.0523 6.38689 44.4113 6.03473C44.7704 5.68256 45.2479 5.49342 45.7396 5.50859C46.2314 5.52377 46.6974 5.74202 47.036 6.11571C47.3746 6.48939 47.5583 6.98817 47.5469 7.50314C47.5452 8.61757 47.5469 9.73199 47.5452 10.8474C47.5228 11.2429 47.5564 11.6396 47.6448 12.0248C47.825 12.7342 48.2424 13.3522 48.8212 13.7665C49.3999 14.1808 50.1015 14.3638 50.7982 14.2821C51.4949 14.2005 52.1405 13.8596 52.6174 13.3216C53.0943 12.7836 53.3709 12.0842 53.3969 11.3506C53.4049 10.0495 53.3969 8.74779 53.4006 7.44629C53.4006 6.92919 53.5968 6.43328 53.946 6.06764C54.2952 5.702 54.7688 5.49658 55.2627 5.49658C55.7565 5.49658 56.2302 5.702 56.5794 6.06764C56.9286 6.43328 57.1248 6.92919 57.1248 7.44629C57.1265 8.46924 57.1248 9.49062 57.1248 10.5126C57.137 10.9938 57.1245 11.4753 57.0872 11.9551C56.9625 13.2037 56.5182 14.3938 55.8011 15.3998C55.084 16.4058 54.1207 17.1904 53.0131 17.6707C51.9054 18.151 50.6944 18.3092 49.508 18.1286C48.3215 17.948 47.2037 17.4353 46.2725 16.6446C45.8701 17.4909 45.387 18.2925 44.8305 19.0371C44.6113 19.3759 44.3796 19.7274 44.0206 19.9174C43.5804 20.1554 43.0735 20.221 42.5912 20.1024C42.3619 20.0462 42.1454 19.9429 41.9545 19.7985C41.7636 19.654 41.6019 19.4713 41.479 19.261C41.3434 19.0128 41.2563 18.739 41.2227 18.4553C41.1891 18.1716 41.2097 17.8838 41.2832 17.6085C41.404 17.2175 41.6225 16.8673 41.916 16.5944C43.0957 15.034 43.7627 13.1165 43.8179 11.1271C43.8205 9.88045 43.8223 8.63416 43.8233 7.38825Z" fill="#6F59CA"/>
<path d="M59.7143 5.70275C60.0243 5.51757 60.3785 5.42948 60.7348 5.44894C61.0912 5.4684 61.4347 5.59459 61.7246 5.81252C61.9385 5.97663 62.1178 6.18512 62.2513 6.42499C62.3848 6.66486 62.4696 6.93096 62.5006 7.20669V11.762C62.4479 12.7142 62.3017 13.6583 62.0643 14.5792C61.3036 17.4331 59.6054 19.9143 57.2689 21.5856C56.9576 21.8015 56.5954 21.9234 56.2222 21.9378C55.9062 21.9424 55.5947 21.8591 55.3196 21.6964C55.0444 21.5336 54.8154 21.2973 54.6561 21.0116C54.4277 20.5753 54.3515 20.0694 54.4406 19.5807C54.5328 19.0712 54.8112 18.6195 55.2165 18.3216C56.3111 17.5291 57.2063 16.4712 57.826 15.238C58.4456 14.0049 58.7713 12.6331 58.7751 11.2397C58.7762 10.1063 58.7762 8.97311 58.7751 7.84013C58.7632 7.56807 58.7746 7.29545 58.8091 7.02551C58.8606 6.74996 58.9681 6.48922 59.1242 6.26099C59.2804 6.03276 59.4817 5.84238 59.7143 5.70275Z" fill="#6F59CA"/>
<path d="M17.7972 19.9767C18.2926 19.8508 18.7875 20.028 19.2815 20.0646C19.927 20.124 20.5769 20.1078 21.219 20.0162C21.6204 19.9481 22.0397 19.8785 22.4373 20.0095C22.8349 20.1312 23.1826 20.3881 23.4254 20.7397C23.6681 21.0913 23.7921 21.5175 23.7779 21.9511C23.7636 22.3846 23.6118 22.8009 23.3465 23.1341C23.0812 23.4673 22.7174 23.6986 22.3127 23.7913C21.6795 23.9056 21.0396 23.9751 20.3975 23.9996H19.7115C19.0704 23.9727 18.4314 23.9044 17.7983 23.795C17.3824 23.6999 17.01 23.4587 16.7429 23.1116C16.4759 22.7644 16.3302 22.332 16.3301 21.8862C16.3299 21.4404 16.4754 21.008 16.7422 20.6606C17.0091 20.3133 17.3813 20.0719 17.7972 19.9765V19.9767Z" fill="#6F59CA"/>
</g>
<defs>
<clipPath id="clip0_8341_2991">
<rect width="62" height="24" fill="white" transform="translate(0.5)"/>
</clipPath>
</defs>
</svg>
