<svg width="77" height="18" viewBox="0 0 77 18" fill="none" xmlns="http://www.w3.org/2000/svg">
<path d="M40.5461 7.02415C40.5461 5.24965 40.5461 3.47514 40.5461 1.70065C40.5321 1.33454 40.6385 0.97421 40.8483 0.677296C41.0581 0.380381 41.3591 0.164059 41.7032 0.0629106C41.9355 -0.00555245 42.18 -0.0183393 42.4179 0.0255448C42.6558 0.0694289 42.8805 0.168789 43.0748 0.315942C43.2691 0.463095 43.4276 0.654084 43.5381 0.874063C43.6485 1.09404 43.708 1.3371 43.7118 1.5844C43.7229 2.47138 43.7137 3.35878 43.7145 4.24616C43.716 6.76985 43.718 9.2934 43.7202 11.8168C43.7035 12.5332 43.9533 13.2292 44.419 13.7643C44.8846 14.2994 45.5315 14.6336 46.2287 14.6993C46.926 14.765 47.6216 14.5573 48.1749 14.1182C48.7282 13.6791 49.098 13.0413 49.2093 12.3339C49.2595 11.8006 49.2723 11.2643 49.2476 10.729C49.2422 9.34455 49.2858 7.96124 49.2992 6.57753C49.2837 6.15645 49.4272 5.74541 49.6998 5.42958C49.9723 5.11375 50.3532 4.91733 50.7635 4.88104C51.1665 4.84658 51.5669 4.97276 51.8812 5.23322C52.1954 5.49368 52.3992 5.86831 52.45 6.27886C52.7843 8.35577 53.7946 10.2561 55.3169 11.6716C56.9978 13.3474 59.1732 14.4071 61.5041 14.6857C63.9219 14.9801 66.36 14.339 68.3396 12.8882C70.2317 11.5108 71.8126 9.7335 72.9753 7.67666C73.3494 7.05037 73.6799 6.40059 74.0127 5.7512C74.1593 5.45863 74.3898 5.21888 74.6732 5.06412C74.9567 4.90935 75.2797 4.84697 75.5988 4.88529C75.9179 4.92362 76.2179 5.06084 76.4587 5.27856C76.6994 5.49629 76.8694 5.78414 76.9458 6.1035C77.0445 6.46883 77.0069 6.85867 76.8402 7.19717C75.662 9.76188 74.0307 12.0817 72.0286 14.0398C70.1342 15.9002 67.7683 17.18 65.1992 17.7341C62.521 18.2897 59.7399 17.9698 57.249 16.8197C55.4161 16.0035 53.7734 14.7985 52.4293 13.2843C52.3911 13.242 52.3647 13.161 52.297 13.181C52.2293 13.201 52.2503 13.2855 52.2342 13.3411C51.5075 15.8924 49.8665 17.4417 47.3212 17.886C46.1282 18.0716 44.9082 17.8747 43.8289 17.3223C42.7496 16.7698 41.864 15.889 41.2936 14.8007C40.8278 13.9589 40.5778 13.0101 40.5668 12.0427" fill="#5439AC"/>
<path d="M8.44963 3.25613C8.95416 3.72311 9.46099 4.16035 9.92995 4.64103C11.0936 5.77099 11.9791 7.16699 12.5138 8.71466C12.5669 8.85754 12.6078 9.00489 12.6359 9.15503C12.6657 9.36601 12.7506 9.43961 12.9698 9.43178C13.5355 9.41182 14.102 9.42786 14.6682 9.42473C14.9207 9.4267 15.1711 9.37696 15.4045 9.27842C15.638 9.17989 15.8498 9.03456 16.0276 8.85099C16.2053 8.66741 16.3454 8.44929 16.4395 8.20949C16.5337 7.96968 16.58 7.71304 16.5758 7.45464C16.5578 7.06537 16.5649 6.67532 16.5972 6.28701C16.6457 5.89078 16.8365 5.52715 17.1323 5.26679C17.4282 5.00643 17.8081 4.86793 18.1982 4.87817C18.5883 4.88842 18.9608 5.04669 19.2432 5.32224C19.5257 5.59779 19.6979 5.97094 19.7265 6.3692C19.8213 7.26852 19.7465 8.17811 19.5062 9.04857C19.208 10.024 18.6332 10.8867 17.8548 11.527C17.0764 12.1673 16.1294 12.5564 15.1344 12.6447C14.4207 12.712 13.705 12.6677 12.9905 12.6709C12.7992 12.6709 12.7254 12.7222 12.6825 12.9198C12.3839 14.5067 11.4957 15.9133 10.2046 16.8439C9.33797 17.4468 8.33626 17.8152 7.2929 17.9149C6.86999 17.9546 6.44523 17.9696 6.02066 17.9599C4.73159 17.9599 3.44251 17.9599 2.15344 17.9599C1.94214 17.9656 1.73185 17.928 1.53492 17.8494C1.33799 17.7709 1.15837 17.6528 1.0066 17.5023C0.854837 17.3517 0.73397 17.1717 0.651097 16.9727C0.568225 16.7737 0.52501 16.5598 0.523991 16.3435C0.522973 16.1272 0.564172 15.9128 0.645167 15.7131C0.726162 15.5133 0.845324 15.332 0.995667 15.18C1.14601 15.0279 1.32451 14.9081 1.52069 14.8276C1.71687 14.7471 1.9268 14.7074 2.13814 14.711C3.55345 14.7032 4.96875 14.7063 6.38405 14.711C6.8464 14.7227 7.30713 14.6508 7.74503 14.4985C8.22852 14.3178 8.65569 14.0075 8.98191 13.6001C9.30813 13.1926 9.5214 12.703 9.59946 12.1824C9.94372 10.6217 9.51607 9.25288 8.6011 8.0093C7.60727 6.72539 6.38297 5.64752 4.99399 4.83362C3.92222 4.17071 2.79032 3.61542 1.61409 3.1755C1.36486 3.09612 1.13864 2.955 0.955516 2.76464C0.772396 2.57429 0.638046 2.3406 0.564399 2.08434C0.490752 1.82808 0.480089 1.55719 0.533353 1.29569C0.586617 1.0342 0.702159 0.790198 0.869723 0.585387C1.00414 0.410753 1.17448 0.268534 1.36863 0.168821C1.56279 0.0691071 1.77601 0.0143422 1.99317 0.00841554C2.03142 0.00841554 2.06776 0.00841554 2.10486 0.00841554C7.43966 0.00841554 12.7745 0.00841554 18.1093 0.00841554C18.4823 -0.00208472 18.8467 0.124834 19.1361 0.366066C19.4255 0.607298 19.6206 0.946825 19.686 1.32286C19.7266 1.54272 19.7223 1.7688 19.6732 1.98684C19.6241 2.20489 19.5313 2.41015 19.4007 2.58964C19.2702 2.76913 19.1046 2.91894 18.9146 3.02962C18.7246 3.1403 18.5142 3.20942 18.2967 3.23265C18.1261 3.24674 17.9547 3.25458 17.7834 3.25458C14.8252 3.25588 11.8671 3.25588 8.90902 3.25458L8.44963 3.25613Z" fill="#5439AC"/>
<path d="M28.679 0.00796594C29.431 0.00796594 30.0422 0.00796594 30.6531 0.00796594C30.8586 -0.000789212 31.0638 0.0320725 31.2569 0.104677C31.45 0.177282 31.6272 0.288199 31.7783 0.431054C31.9294 0.57391 32.0515 0.745893 32.1375 0.937141C32.2235 1.12839 32.2717 1.33513 32.2795 1.54551C32.2953 1.75999 32.268 1.97554 32.1992 2.17879C32.1304 2.38204 32.0216 2.56866 31.8794 2.72714C31.7373 2.88561 31.5649 3.01256 31.3729 3.1001C31.1809 3.18765 30.9734 3.23392 30.7632 3.23609C29.5798 3.27054 28.3944 3.25331 27.2102 3.25762C26.8762 3.24813 26.5461 3.33207 26.2553 3.50037C25.9646 3.66868 25.7242 3.91495 25.5601 4.21271C25.3832 4.51696 25.2923 4.86551 25.2977 5.21949C25.2927 5.96908 25.2889 6.71908 25.2977 7.46867C25.2938 7.72498 25.3397 7.97953 25.4328 8.21752C25.5258 8.45551 25.6642 8.67219 25.8398 8.85498C26.0154 9.03777 26.2248 9.18303 26.4557 9.2823C26.6867 9.38157 26.9346 9.43288 27.1851 9.43324C27.4356 9.43361 27.6836 9.38302 27.9149 9.28442C28.1461 9.18582 28.3558 9.04118 28.532 8.8589C28.7081 8.67661 28.847 8.46033 28.9408 8.2226C29.0345 7.98488 29.0811 7.73046 29.0779 7.47414C29.0844 7.09954 29.0779 6.72416 29.0802 6.34956C29.0756 6.13412 29.1132 5.91991 29.1908 5.71958C29.2684 5.51924 29.3844 5.33684 29.532 5.18315C29.6796 5.02945 29.8558 4.90758 30.0502 4.82471C30.2446 4.74184 30.4532 4.69965 30.6638 4.70064C30.8744 4.70164 31.0826 4.74579 31.2762 4.83049C31.4699 4.91519 31.6449 5.03872 31.7912 5.1938C31.9374 5.34889 32.0517 5.53238 32.1275 5.73343C32.2033 5.93449 32.239 6.14903 32.2324 6.36442C32.2815 7.1742 32.2318 7.98708 32.0844 8.78426C31.8233 9.81895 31.2562 10.7458 30.4605 11.4379C29.6649 12.13 28.6797 12.5535 27.6397 12.6504C26.3269 12.7855 25.0153 12.3815 23.9934 11.5273C22.9715 10.6732 22.3228 9.43875 22.1899 8.09534C22.0001 6.72834 22.0328 5.33864 22.2866 3.98257C22.5125 2.9618 23.04 2.03696 23.7975 1.33381C24.5551 0.630654 25.5058 0.183294 26.5205 0.0525707C27.2852 -0.0499846 28.054 0.0388891 28.679 0.00796594Z" fill="#5439AC"/>
<path d="M38.1641 4.56284C38.1488 5.42634 38.2023 6.51998 38.1204 7.61169C37.8936 10.5827 36.9565 13.2374 34.7926 15.3229C33.3609 16.7167 31.5339 17.6095 29.5747 17.8727C29.084 17.9705 28.5817 17.9915 28.0848 17.935C27.6923 17.8731 27.3375 17.6606 27.0925 17.3407C26.8475 17.0208 26.7308 16.6175 26.7659 16.2126C26.7951 15.7995 26.9779 15.4135 27.2768 15.1342C27.5756 14.8548 27.9678 14.7032 28.3725 14.7107C29.8325 14.7072 31.2437 14.172 32.3533 13.201C33.5251 12.1619 34.34 10.7652 34.6778 9.21658C34.8935 8.33342 34.9998 7.42599 34.9942 6.51568C34.9942 4.89476 34.9907 3.27385 34.9942 1.65292C34.9908 1.44016 35.0284 1.2288 35.1049 1.03092C35.1813 0.833035 35.2951 0.652505 35.4398 0.499626C35.5844 0.346746 35.757 0.224522 35.9478 0.13992C36.1386 0.0553188 36.3439 0.010004 36.5518 0.00655991C36.7597 0.00311587 36.9662 0.041614 37.1596 0.119852C37.353 0.19809 37.5294 0.314538 37.6788 0.462546C37.8282 0.610555 37.9476 0.787219 38.0303 0.982466C38.113 1.17771 38.1573 1.3877 38.1606 1.60046C38.1732 2.51367 38.1641 3.42377 38.1641 4.56284Z" fill="#5439AC"/>
<path d="M19.0068 17.9611C17.8525 17.9611 16.6981 17.9666 15.5437 17.9611C15.1552 17.9599 14.7809 17.8117 14.4928 17.5449C14.2048 17.2782 14.0233 16.9118 13.9835 16.5163C13.9437 16.1329 14.0384 15.7475 14.2507 15.4289C14.4629 15.1103 14.7788 14.8792 15.1421 14.7768C15.3 14.7321 15.4632 14.7097 15.6271 14.7103C17.8984 14.7103 20.17 14.7052 22.4413 14.7122C22.7094 14.7019 22.9757 14.7614 23.2153 14.8851C23.4548 15.0088 23.6597 15.1926 23.8109 15.4195C23.962 15.6463 24.0545 15.9087 24.0795 16.1821C24.1046 16.4555 24.0614 16.7309 23.9541 16.9825C23.8446 17.2745 23.6497 17.5247 23.3961 17.6992C23.1425 17.8736 22.8424 17.9637 22.5369 17.9572C21.3604 17.9725 20.1838 17.9607 19.0068 17.9611Z" fill="#5439AC"/>
<path d="M50.7736 3.24243C49.7164 3.24243 48.6588 3.24674 47.6015 3.24243C47.2118 3.24351 46.8354 3.0973 46.5445 2.83184C46.2537 2.56638 46.0688 2.20037 46.0255 1.80402C45.9821 1.40766 46.0832 1.00885 46.3095 0.684118C46.5358 0.359389 46.8712 0.131608 47.2515 0.0444326C47.3457 0.0220566 47.4421 0.0107629 47.5388 0.01077C49.7133 0.01077 51.8875 0.00411564 54.062 0.01077C54.4274 0.0158 54.7792 0.153692 55.0544 0.399814C55.3296 0.645935 55.5102 0.98421 55.564 1.35415C55.6047 1.58401 55.5958 1.82021 55.5378 2.04615C55.4798 2.2721 55.3742 2.48232 55.2284 2.66207C55.0826 2.84181 54.9002 2.98672 54.6939 3.08664C54.4875 3.18656 54.2623 3.23907 54.034 3.24047C53.3643 3.25065 52.6953 3.24243 52.0236 3.24243H50.7736Z" fill="#5439AC"/>
</svg>
